<svg width="24" height="24" viewBox="0 0 24 24" fill="none" xmlns="http://www.w3.org/2000/svg">
<g opacity="0.28">
<path d="M19.408 2.06462C19.1428 1.97846 18.8572 1.97846 18.592 2.06462C18.3799 2.13355 18.2304 2.24687 18.1422 2.32172C18.0689 2.38394 17.9943 2.45869 17.9425 2.51052L17.5106 2.94251C17.4587 2.99427 17.384 3.06893 17.3217 3.14224C17.2469 3.2304 17.1335 3.37986 17.0646 3.59198C16.9785 3.85717 16.9785 4.14283 17.0646 4.40802C17.1335 4.62014 17.2469 4.7696 17.3217 4.85776C17.384 4.93108 17.4587 5.00574 17.5106 5.0575L17.9425 5.48943C17.9943 5.54127 18.0689 5.61604 18.1422 5.67828C18.2304 5.75313 18.3799 5.86645 18.592 5.93538C18.8572 6.02154 19.1428 6.02154 19.408 5.93538C19.6201 5.86645 19.7696 5.75313 19.8578 5.67828C19.9311 5.61606 20.0057 5.54131 20.0575 5.48947L20.4894 5.05749C20.5413 5.00574 20.6161 4.93104 20.6783 4.85777C20.7531 4.7696 20.8665 4.62015 20.9354 4.40802C21.0215 4.14283 21.0215 3.85717 20.9354 3.59198C20.8665 3.37985 20.7531 3.2304 20.6783 3.14223C20.616 3.06892 20.5413 2.99426 20.4894 2.94251L20.0575 2.51054C20.0057 2.4587 19.9311 2.38394 19.8578 2.32172C19.7696 2.24687 19.6201 2.13355 19.408 2.06462Z" fill="#111111"/>
<path d="M19.5743 15.1127C19.2043 14.9624 18.7957 14.9624 18.4257 15.1127C18.156 15.2222 17.9699 15.3982 17.8511 15.5243C17.7409 15.6412 17.6232 15.7884 17.512 15.9274L16.6787 16.9691C16.6614 16.9907 16.6432 17.0132 16.6244 17.0364C16.4311 17.2752 16.1675 17.6009 16.0635 18.0009C15.9788 18.3268 15.9788 18.6732 16.0635 18.9991C16.1675 19.3991 16.4311 19.7248 16.6244 19.9636C16.6432 19.9869 16.6614 20.0093 16.6787 20.0309L17.512 21.0725C17.6231 21.2115 17.7409 21.3587 17.8511 21.4757C17.9699 21.6018 18.156 21.7778 18.4257 21.8873C18.7957 22.0376 19.2043 22.0376 19.5743 21.8873C19.844 21.7778 20.0301 21.6018 20.1489 21.4757C20.2592 21.3587 20.3769 21.2115 20.488 21.0725L21.3213 20.0309C21.3385 20.0094 21.3565 19.9871 21.3752 19.964C21.5685 19.7252 21.8325 19.3991 21.9365 18.9991C22.0212 18.6732 22.0212 18.3268 21.9365 18.0009C21.8325 17.6009 21.5689 17.2752 21.3756 17.0364C21.3568 17.0131 21.3386 16.9907 21.3213 16.9691L20.488 15.9275C20.3769 15.7885 20.2591 15.6412 20.1489 15.5243C20.0301 15.3982 19.844 15.2222 19.5743 15.1127Z" fill="#111111"/>
</g>
<path d="M10.8485 3.374C10.3108 3.12208 9.68901 3.12208 9.15134 3.374C8.72838 3.57217 8.46625 3.92611 8.2893 4.20429C8.11096 4.48466 7.92082 4.85409 7.7082 5.26722L6.49651 7.62119C6.45378 7.70419 6.43265 7.74497 6.41635 7.77417L6.41519 7.77624L6.41319 7.7775C6.38485 7.79526 6.3452 7.81845 6.26449 7.86536L3.84172 9.27323C3.48209 9.48217 3.15493 9.67225 2.90515 9.84977C2.65091 10.0305 2.33924 10.2899 2.16223 10.6887C1.9329 11.2053 1.9329 11.7949 2.16223 12.3115C2.33924 12.7103 2.65091 12.9697 2.90515 13.1504C3.15492 13.3279 3.48208 13.518 3.84169 13.7269L6.26449 15.1348C6.3452 15.1817 6.38485 15.2049 6.41319 15.2227L6.41519 15.2239L6.41635 15.226C6.43264 15.2552 6.45378 15.296 6.49651 15.379L7.70821 17.733C7.92083 18.1461 8.11096 18.5155 8.2893 18.7959C8.46625 19.0741 8.72838 19.428 9.15134 19.6262C9.68901 19.8781 10.3108 19.8781 10.8485 19.6262C11.2714 19.428 11.5336 19.0741 11.7105 18.7959C11.8889 18.5155 12.079 18.1461 12.2916 17.733L13.5033 15.379C13.546 15.296 13.5672 15.2552 13.5835 15.226L13.5846 15.2239L13.5866 15.2227C13.615 15.2049 13.6546 15.1817 13.7353 15.1348L16.1581 13.7269C16.5177 13.518 16.8449 13.3279 17.0947 13.1504C17.3489 12.9697 17.6606 12.7103 17.8376 12.3115C18.0669 11.7949 18.0669 11.2053 17.8376 10.6887C17.6606 10.2899 17.3489 10.0305 17.0947 9.84977C16.8449 9.67225 16.5177 9.48217 16.1581 9.27323L13.7353 7.86536C13.6546 7.81845 13.615 7.79526 13.5866 7.7775L13.5846 7.77624L13.5835 7.77417C13.5672 7.74497 13.546 7.70419 13.5033 7.62119L12.2916 5.26721C12.079 4.8541 11.8888 4.48465 11.7105 4.20429C11.5336 3.92611 11.2714 3.57217 10.8485 3.374Z" fill="#111111"/>
</svg>
