<svg width="24" height="24" viewBox="0 0 24 24" fill="none" xmlns="http://www.w3.org/2000/svg">
<path fill-rule="evenodd" clip-rule="evenodd" d="M13.383 4.9996L13.9234 3.90977C14.2293 3.29294 14.9403 2.93579 15.652 3.1399C16.3342 3.33556 17.8375 3.82454 19.0723 4.6765C19.0831 4.68397 19.0938 4.69164 19.1043 4.69953C21.3355 6.37248 22.2791 9.02251 22.6856 11.2747C23.06 13.3487 23.0068 15.2532 22.9839 16.0756C22.9817 16.1546 22.9798 16.2236 22.9785 16.2818C22.9735 16.5204 22.9124 16.7666 22.7844 16.9925C21.6602 18.9766 20.1061 19.9869 18.8264 20.4922C18.1912 20.743 17.6253 20.8693 17.2126 20.9332C17.0057 20.9652 16.8357 20.9817 16.7125 20.9903C16.6509 20.9946 16.6008 20.997 16.5636 20.9982C16.5528 20.9986 16.543 20.9988 16.5344 20.999C16.5281 20.9992 16.5225 20.9993 16.5174 20.9994L16.5017 20.9996L16.4958 20.9996L16.4934 20.9996L16.4922 20.9996C16.4922 20.9996 16.4912 20.9996 16.4912 19.9996V20.9996C16.1068 20.9996 15.7565 20.7793 15.5899 20.4328L14.7854 18.7591C15.0546 18.6923 15.3299 18.6163 15.613 18.5312C16.1633 18.3657 16.7401 18.1667 17.3551 17.9361C17.8722 17.7422 18.1343 17.1658 17.9404 16.6487C17.7465 16.1316 17.1702 15.8695 16.653 16.0634C16.0676 16.2829 15.5341 16.4664 15.037 16.6159C12.7809 17.2945 11.2236 17.2944 8.96724 16.6155C8.47052 16.4661 7.93742 16.2827 7.35254 16.0634C6.8354 15.8695 6.25901 16.1316 6.06513 16.6487C5.87126 17.1658 6.13331 17.7422 6.65045 17.9361C7.26489 18.1665 7.84124 18.3653 8.39104 18.5307C8.6738 18.6158 8.94879 18.6917 9.21766 18.7585L8.40991 20.4339C8.24316 20.7798 7.8931 20.9996 7.50914 20.9996V19.9996C7.50914 20.9996 7.5081 20.9996 7.5081 20.9996L7.50699 20.9996L7.50451 20.9996L7.4986 20.9996L7.48295 20.9994C7.47084 20.9992 7.4554 20.9988 7.43676 20.9982C7.39951 20.997 7.34945 20.9946 7.28782 20.9903C7.16468 20.9817 6.99463 20.9652 6.78776 20.9332C6.37502 20.8693 5.80914 20.743 5.17394 20.4922C3.89428 19.9869 2.3401 18.9766 1.21595 16.9925C1.08795 16.7666 1.02688 16.5203 1.0218 16.2818C1.02056 16.2236 1.01864 16.1546 1.01643 16.0756C0.993499 15.2532 0.940387 13.3487 1.31471 11.2747C1.7212 9.02251 2.66485 6.37248 4.89603 4.69953C4.90655 4.69164 4.91722 4.68397 4.92804 4.6765C6.16341 3.82417 7.66747 3.33512 8.34933 3.13962C9.05974 2.93595 9.76962 3.29151 10.0763 3.90651L10.6215 4.9996H13.383ZM7.00174 11.9998C7.00174 10.8949 7.89752 9.99976 9.00199 9.99976C10.1065 9.99976 11.0022 10.8949 11.0022 11.9998C11.0022 13.1046 10.1065 13.9998 9.00199 13.9998C7.89752 13.9998 7.00174 13.1046 7.00174 11.9998ZM13.0033 11.9998C13.0033 10.8949 13.8991 9.99976 15.0035 9.99976C16.108 9.99976 17.0038 10.8949 17.0038 11.9998C17.0038 13.1046 16.108 13.9998 15.0035 13.9998C13.8991 13.9998 13.0033 13.1046 13.0033 11.9998Z" fill="#111111"/>
</svg>
