<svg width="24" height="24" viewBox="0 0 24 24" fill="none" xmlns="http://www.w3.org/2000/svg">
<path opacity="0.32" d="M10.5094 2.22933C11.48 1.92616 12.5201 1.92616 13.4907 2.22933C14.1 2.41965 14.6264 2.7554 15.171 3.19337C15.6991 3.61803 16.3032 4.18862 17.0509 4.89477L19.7673 7.46022C20.4238 8.07983 20.8781 8.50869 21.2102 9.02697C21.5035 9.4849 21.7202 9.98762 21.8517 10.5153C22.0005 11.1126 22.0003 11.7373 22.0001 12.64L22 14.6428C22.0001 15.7266 22.0001 16.6008 21.9422 17.3086C21.8827 18.0375 21.7569 18.6777 21.4551 19.2699C20.9757 20.2108 20.2108 20.9757 19.27 21.455C18.7137 21.7385 18.1161 21.8664 17.4427 21.9303C17.0216 21.9704 16.5438 21.9873 16 21.9945V16C16 13.7909 14.2091 12 12 12C9.79086 12 8 13.7909 8 16V21.9945C7.45622 21.9873 6.97848 21.9704 6.5574 21.9303C5.88404 21.8664 5.28637 21.7385 4.73009 21.455C3.78928 20.9757 3.02438 20.2108 2.54501 19.2699C2.24323 18.6777 2.11741 18.0375 2.05786 17.3086C2.00003 16.6007 2.00004 15.7266 2.00005 14.6428L2.00002 12.6401C1.99975 11.7374 1.99956 11.1126 2.14838 10.5153C2.27986 9.98762 2.49656 9.4849 2.78993 9.02697C3.12196 8.50869 3.57631 8.07984 4.23278 7.46022L6.94916 4.89478C7.69685 4.18862 8.30099 3.61803 8.82906 3.19337C9.37368 2.7554 9.90005 2.41965 10.5094 2.22933Z" fill="#111111"/>
<path d="M14 22.0005C12.6667 22.0012 11.3333 22.0012 10 22.0005V16C10 14.8954 10.8954 14 12 14C13.1046 14 14 14.8954 14 16V22.0005Z" fill="#111111"/>
<path d="M20.8818 10.7571C20.7766 10.3349 20.6033 9.93275 20.3686 9.56641C20.1038 9.15313 19.7342 8.80402 18.9949 8.1058L16.3949 5.65025C14.8484 4.18966 14.0751 3.45937 13.193 3.18385C12.4165 2.94132 11.5845 2.94132 10.808 3.18385C9.92584 3.45937 9.15259 4.18966 7.60609 5.65025L5.00609 8.1058C4.2668 8.80402 3.89715 9.15313 3.63238 9.56641C3.39769 9.93275 3.22433 10.3349 3.11914 10.7571" stroke="#111111" stroke-width="2" stroke-linecap="round" stroke-linejoin="round"/>
</svg>
