<svg width="24" height="24" viewBox="0 0 24 24" fill="none" xmlns="http://www.w3.org/2000/svg">
<path d="M17.1071 3.40104C15.9352 5.23775 14.3866 6.81159 12.57 8.01324C11.4763 6.06587 10.2075 4.2303 8.78499 2.52782C9.79379 2.1856 10.8749 2 11.9994 2C13.8654 2 15.6121 2.51114 17.1071 3.40104Z" fill="#111111"/>
<path d="M18.7182 4.59331C17.3678 6.67317 15.588 8.44765 13.5046 9.79161C13.8419 10.4794 14.158 11.1795 14.452 11.8911C15.8187 11.5486 17.2483 11.3669 18.7191 11.3669C19.8381 11.3669 20.9329 11.4721 21.9941 11.673C21.904 8.86791 20.6586 6.3546 18.7182 4.59331Z" fill="#111111"/>
<path d="M21.858 13.6847C20.8447 13.4764 19.7949 13.3669 18.7191 13.3669C17.4968 13.3669 16.3085 13.5082 15.1693 13.7751C15.9486 16.0088 16.5147 18.3422 16.8434 20.7506C19.4493 19.3049 21.3416 16.7289 21.858 13.6847Z" fill="#111111"/>
<path d="M14.9313 21.5633C14.6314 19.068 14.0623 16.6563 13.2542 14.3575C10.3036 15.4694 7.78038 17.4566 6.00211 20.0028C7.67296 21.2569 9.74938 22 11.9994 22C13.0196 22 14.0041 21.8472 14.9313 21.5633Z" fill="#111111"/>
<path d="M4.51915 18.6369C6.51325 15.8736 9.29432 13.7155 12.5354 12.4911C12.2927 11.9123 12.0345 11.3416 11.7613 10.7796C9.42909 11.9297 6.80395 12.5757 4.03028 12.5757C3.34714 12.5757 2.67291 12.5365 2.00977 12.4602C2.11695 14.8264 3.04641 16.9783 4.51915 18.6369Z" fill="#111111"/>
<path d="M2.11737 10.459C2.58227 7.45339 4.38554 4.88992 6.89907 3.39662C8.38982 5.12449 9.71019 7.00324 10.8341 9.00673C8.78101 10.0115 6.47269 10.5757 4.03028 10.5757C3.38234 10.5757 2.74396 10.536 2.11737 10.459Z" fill="#111111"/>
</svg>
