<svg width="24" height="24" viewBox="0 0 24 24" fill="none" xmlns="http://www.w3.org/2000/svg">
<g opacity="0.28">
<path d="M17.4595 19.4062C17.2058 19.089 17.0789 18.9304 17.0314 18.7475C16.9895 18.5866 16.9895 18.4134 17.0314 18.2525C17.0789 18.0696 17.2058 17.911 17.4595 17.5938L18.2751 16.5744C18.5288 16.2572 18.6557 16.0986 18.802 16.0392C18.9307 15.9869 19.0693 15.9869 19.198 16.0392C19.3443 16.0986 19.4712 16.2572 19.7249 16.5744L20.5405 17.5938C20.7942 17.911 20.9211 18.0696 20.9686 18.2525C21.0105 18.4134 21.0105 18.5866 20.9686 18.7475C20.9211 18.9304 20.7942 19.089 20.5405 19.4062L19.7249 20.4256C19.4712 20.7428 19.3443 20.9014 19.198 20.9608C19.0693 21.0131 18.9307 21.0131 18.802 20.9608C18.6557 20.9014 18.5288 20.7428 18.2751 20.4256L17.4595 19.4062Z" stroke="#111111" stroke-width="2" stroke-linecap="round" stroke-linejoin="round"/>
<path d="M18.2298 4.36247C18.1029 4.23559 18.0394 4.17215 18.0157 4.099C17.9948 4.03466 17.9948 3.96534 18.0157 3.901C18.0394 3.82785 18.1029 3.76441 18.2298 3.63753L18.6375 3.22976C18.7644 3.10289 18.8278 3.03945 18.901 3.01568C18.9653 2.99477 19.0347 2.99477 19.099 3.01568C19.1722 3.03945 19.2356 3.10289 19.3625 3.22976L19.7702 3.63753C19.8971 3.76441 19.9606 3.82785 19.9843 3.901C20.0052 3.96534 20.0052 4.03466 19.9843 4.099C19.9606 4.17215 19.8971 4.23559 19.7702 4.36247L19.3625 4.77024C19.2356 4.89711 19.1722 4.96055 19.099 4.98432C19.0347 5.00523 18.9653 5.00523 18.901 4.98432C18.8278 4.96055 18.7644 4.89711 18.6375 4.77024L18.2298 4.36247Z" stroke="#111111" stroke-width="2" stroke-linecap="round" stroke-linejoin="round"/>
</g>
<path d="M8.57731 5.76376C9.037 4.87072 9.26685 4.4242 9.57563 4.27953C9.84446 4.15357 10.1554 4.15357 10.4242 4.27953C10.733 4.4242 10.9628 4.87073 11.4225 5.76377L12.6142 8.07886C12.6938 8.23358 12.7337 8.31094 12.7852 8.37926C12.8309 8.4399 12.8834 8.49514 12.9416 8.5439C13.0072 8.59883 13.0824 8.64254 13.2329 8.72997L15.6193 10.1167C16.4012 10.5711 16.7921 10.7983 16.9236 11.0944C17.0382 11.3527 17.0382 11.6475 16.9236 11.9058C16.7921 12.2019 16.4012 12.4291 15.6193 12.8835L13.2329 14.2702C13.0824 14.3576 13.0072 14.4013 12.9416 14.4563C12.8834 14.505 12.8309 14.5603 12.7852 14.6209C12.7337 14.6892 12.6938 14.7666 12.6142 14.9213L11.4225 17.2364C10.9628 18.1295 10.733 18.576 10.4242 18.7206C10.1554 18.8466 9.84446 18.8466 9.57563 18.7206C9.26685 18.576 9.037 18.1295 8.57731 17.2364L7.38563 14.9213C7.30598 14.7666 7.26616 14.6892 7.21465 14.6209C7.16892 14.5603 7.11644 14.505 7.05821 14.4563C6.99261 14.4013 6.91738 14.3576 6.76692 14.2702L4.38054 12.8835C3.59863 12.4291 3.20768 12.2019 3.07623 11.9058C2.96157 11.6475 2.96157 11.3527 3.07623 11.0944C3.20768 10.7983 3.59863 10.5711 4.38054 10.1167L6.76692 8.72997C6.91738 8.64254 6.99261 8.59883 7.05821 8.5439C7.11644 8.49514 7.16892 8.4399 7.21465 8.37926C7.26616 8.31094 7.30598 8.23358 7.38563 8.07886L8.57731 5.76376Z" stroke="#111111" stroke-width="2" stroke-linecap="round" stroke-linejoin="round"/>
</svg>
