<svg width="25" height="24" viewBox="0 0 25 24" fill="none" xmlns="http://www.w3.org/2000/svg">
<path d="M20.2072 10.7073C20.0122 10.9023 19.7562 11.0003 19.5002 11.0003C19.2442 11.0003 18.9882 10.9023 18.7933 10.7073L13.5002 5.41422V21.0003C13.5002 21.5533 13.0532 22.0003 12.5002 22.0003C11.9472 22.0003 11.5002 21.5533 11.5002 21.0003V5.41422L6.20719 10.7073C5.81619 11.0983 5.18425 11.0983 4.79325 10.7073C4.40225 10.3163 4.40225 9.68425 4.79325 9.29325L11.7933 2.29325C12.1842 1.90225 12.8162 1.90225 13.2072 2.29325L20.2072 9.29325C20.5982 9.68425 20.5982 10.3163 20.2072 10.7073Z" fill="black"/>
</svg>
