<svg width="25" height="24" viewBox="0 0 25 24" fill="none" xmlns="http://www.w3.org/2000/svg">
<path d="M22.5002 12.0003C22.5002 12.5533 22.0532 13.0003 21.5002 13.0003H5.91422L11.2072 18.2933C11.5982 18.6842 11.5982 19.3163 11.2072 19.7073C11.0122 19.9023 10.7562 20.0003 10.5002 20.0003C10.2442 20.0003 9.98825 19.9023 9.79325 19.7073L2.79325 12.7073C2.40225 12.3163 2.40225 11.6842 2.79325 11.2933L9.79325 4.29325C10.1842 3.90225 10.8162 3.90225 11.2072 4.29325C11.5982 4.68425 11.5982 5.31631 11.2072 5.70731L5.91422 11.0003H21.5002C22.0532 11.0003 22.5002 11.4473 22.5002 12.0003Z" fill="black"/>
</svg>
