<svg width="25" height="24" viewBox="0 0 25 24" fill="none" xmlns="http://www.w3.org/2000/svg">
<path d="M22.4963 12.0003C22.4963 12.5533 22.0493 13.0003 21.4963 13.0003H5.91032L11.2033 18.2933C11.5943 18.6842 11.5943 19.3163 11.2033 19.7073C11.0083 19.9023 10.7523 20.0003 10.4963 20.0003C10.2403 20.0003 9.98434 19.9023 9.78934 19.7073L2.78934 12.7073C2.39834 12.3163 2.39834 11.6842 2.78934 11.2933L9.78934 4.29325C10.1803 3.90225 10.8123 3.90225 11.2033 4.29325C11.5943 4.68425 11.5943 5.31631 11.2033 5.70731L5.91032 11.0003H21.4963C22.0493 11.0003 22.4963 11.4473 22.4963 12.0003Z" fill="black"/>
</svg>
