<svg width="25" height="24" viewBox="0 0 25 24" fill="none" xmlns="http://www.w3.org/2000/svg">
<path d="M20.2072 14.707L13.2072 21.707C13.0122 21.902 12.7562 22 12.5002 22C12.2442 22 11.9883 21.902 11.7933 21.707L4.79325 14.707C4.40225 14.316 4.40225 13.684 4.79325 13.293C5.18425 12.902 5.81619 12.902 6.20719 13.293L11.5002 18.5859V3C11.5002 2.447 11.9472 2 12.5002 2C13.0532 2 13.5002 2.447 13.5002 3V18.5859L18.7933 13.293C19.1842 12.902 19.8162 12.902 20.2072 13.293C20.5982 13.684 20.5982 14.316 20.2072 14.707Z" fill="black"/>
</svg>
