<svg width="25" height="24" viewBox="0 0 25 24" fill="none" xmlns="http://www.w3.org/2000/svg">
<path d="M22.2031 12.7073L15.2031 19.7073C15.0081 19.9023 14.7521 20.0003 14.4961 20.0003C14.2401 20.0003 13.9841 19.9023 13.7891 19.7073C13.3981 19.3163 13.3981 18.6842 13.7891 18.2933L19.0821 13.0003H3.49609C2.94309 13.0003 2.49609 12.5533 2.49609 12.0003C2.49609 11.4473 2.94309 11.0003 3.49609 11.0003H19.0821L13.7891 5.70731C13.3981 5.31631 13.3981 4.68425 13.7891 4.29325C14.1801 3.90225 14.8121 3.90225 15.2031 4.29325L22.2031 11.2933C22.5941 11.6842 22.5941 12.3163 22.2031 12.7073Z" fill="black"/>
</svg>
