<svg width="25" height="24" viewBox="0 0 25 24" fill="none" xmlns="http://www.w3.org/2000/svg">
<path d="M22.207 12.7073L15.207 19.7073C15.012 19.9023 14.756 20.0003 14.5 20.0003C14.244 20.0003 13.988 19.9023 13.793 19.7073C13.402 19.3163 13.402 18.6842 13.793 18.2933L19.086 13.0003H3.5C2.947 13.0003 2.5 12.5533 2.5 12.0003C2.5 11.4473 2.947 11.0003 3.5 11.0003H19.086L13.793 5.70731C13.402 5.31631 13.402 4.68425 13.793 4.29325C14.184 3.90225 14.816 3.90225 15.207 4.29325L22.207 11.2933C22.598 11.6842 22.598 12.3163 22.207 12.7073Z" fill="black"/>
</svg>
