<svg width="24" height="24" viewBox="0 0 24 24" fill="none" xmlns="http://www.w3.org/2000/svg">
<path opacity="0.28" fill-rule="evenodd" clip-rule="evenodd" d="M12.0006 2C9.56831 2 7.52829 3.78544 7.08842 6.08751C6.72226 6.1395 6.37849 6.2251 6.04499 6.36922C5.29145 6.69486 4.64135 7.22041 4.16505 7.88899C3.86507 8.31007 3.67875 8.77217 3.52539 9.29618C3.37791 9.80009 3.24457 10.4224 3.08202 11.181L2.67167 13.096C2.39626 14.3812 2.17575 15.4102 2.07192 16.246C1.96581 17.1001 1.9647 17.8638 2.20791 18.5893C2.58956 19.7277 3.3681 20.6907 4.40126 21.3024C5.05966 21.6923 5.80667 21.8512 6.66408 21.9264C7.50308 22 8.55546 22 9.86985 22H14.1314C15.4458 22 16.4982 22 17.3372 21.9264C18.1946 21.8512 18.9416 21.6923 19.6 21.3024C20.6332 20.6907 21.4117 19.7277 21.7934 18.5893C22.0366 17.8638 22.0355 17.1001 21.9294 16.246C21.8256 15.4102 21.605 14.3812 21.3296 13.096L20.9193 11.1809C20.7567 10.4224 20.6234 9.80008 20.4759 9.29618C20.3225 8.77217 20.1362 8.31007 19.8363 7.88899C19.36 7.22041 18.7098 6.69486 17.9563 6.36922C17.6228 6.22509 17.279 6.1395 16.9129 6.08751C16.473 3.78544 14.433 2 12.0006 2ZM9.18122 6.00011C9.60403 4.84517 10.72 4 12.0006 4C13.2813 4 14.3973 4.84517 14.8201 6.00011H9.18122Z" fill="#111111"/>
<path d="M10 12L9 16M14 12L15 16" stroke="#111111" stroke-width="2" stroke-linecap="round" stroke-linejoin="round"/>
</svg>
