<svg width="24" height="24" viewBox="0 0 24 24" fill="none" xmlns="http://www.w3.org/2000/svg">
<path opacity="0.28" d="M8.00061 7.01576C8.41741 7 8.9143 7 9.52774 7H14.4735C15.0869 7 15.5838 7 16.0006 7.01576M8.00061 7.01576C7.32051 7.04146 6.85365 7.10912 6.44164 7.28717C5.85556 7.54044 5.34992 7.94921 4.97947 8.46921C4.55944 9.05881 4.39031 9.84808 4.05205 11.4266L3.6594 13.259C3.0917 15.9083 2.80785 17.2329 3.15601 18.2714C3.46133 19.1822 4.08416 19.9526 4.91069 20.442C5.85322 21 7.20792 21 9.91733 21H14.0839C16.7933 21 18.148 21 19.0905 20.442C19.9171 19.9526 20.5399 19.1822 20.8452 18.2714C21.1934 17.2329 20.9095 15.9083 20.3418 13.259L19.9492 11.4266C19.6109 9.84808 19.4418 9.05881 19.0218 8.46921C18.6513 7.94921 18.1457 7.54044 17.5596 7.28717C17.1476 7.10912 16.6807 7.04146 16.0006 7.01576M8.00061 7.01576C8.00061 4.82986 9.80815 3 12.0006 3C14.1931 3 16.0006 4.82986 16.0006 7.01576" stroke="#111111" stroke-width="2" stroke-linecap="round" stroke-linejoin="round"/>
<path d="M10 12L9 16M14 12L15 16" stroke="#111111" stroke-width="2" stroke-linecap="round" stroke-linejoin="round"/>
</svg>
