<svg width="24" height="24" viewBox="0 0 24 24" fill="none" xmlns="http://www.w3.org/2000/svg">
<path fill-rule="evenodd" clip-rule="evenodd" d="M7.08842 6.08751C7.52829 3.78544 9.56831 2 12.0006 2C14.433 2 16.473 3.78544 16.9129 6.08751C17.279 6.1395 17.6228 6.22509 17.9563 6.36922C18.7098 6.69486 19.36 7.22041 19.8363 7.88899C20.1362 8.31007 20.3225 8.77217 20.4759 9.29618C20.6234 9.80007 20.7567 10.4223 20.9192 11.1809L21.3296 13.096C21.605 14.3811 21.8256 15.4102 21.9294 16.246C22.0355 17.1001 22.0366 17.8638 21.7934 18.5893C21.4117 19.7277 20.6332 20.6907 19.6 21.3024C18.9416 21.6923 18.1946 21.8512 17.3372 21.9264C16.4982 22 15.4458 22 14.1314 22H9.86985C8.55546 22 7.50308 22 6.66408 21.9264C5.80667 21.8512 5.05966 21.6923 4.40126 21.3024C3.3681 20.6907 2.58956 19.7277 2.20791 18.5893C1.9647 17.8638 1.96581 17.1001 2.07192 16.246C2.17575 15.4102 2.39626 14.3812 2.67167 13.096L3.08202 11.181C3.24457 10.4224 3.37791 9.80009 3.52539 9.29618C3.67875 8.77217 3.86507 8.31007 4.16505 7.88899C4.64135 7.22041 5.29145 6.69486 6.04499 6.36922C6.37849 6.2251 6.72226 6.1395 7.08842 6.08751ZM9.18122 6.00011H14.8201C14.3973 4.84517 13.2813 4 12.0006 4C10.72 4 9.60403 4.84517 9.18122 6.00011ZM10.9709 12.2425C11.1048 11.7067 10.7791 11.1638 10.2433 11.0299C9.70747 10.8959 9.16454 11.2217 9.03059 11.7575L8.03059 15.7575C7.89664 16.2933 8.2224 16.8362 8.7582 16.9701C9.29399 17.1041 9.83693 16.7783 9.97087 16.2425L10.9709 12.2425ZM14.9709 11.7575C14.8369 11.2217 14.294 10.8959 13.7582 11.0299C13.2224 11.1638 12.8966 11.7067 13.0306 12.2425L14.0306 16.2425C14.1645 16.7783 14.7075 17.1041 15.2433 16.9701C15.7791 16.8362 16.1048 16.2933 15.9709 15.7575L14.9709 11.7575Z" fill="#111111"/>
</svg>
