<svg width="25" height="24" viewBox="0 0 25 24" fill="none" xmlns="http://www.w3.org/2000/svg">
<path d="M10.4989 19.75H14.4989C14.4989 20.75 13.7819 21.75 12.4989 21.75C11.2159 21.75 10.4989 20.75 10.4989 19.75ZM20.7409 15.5249L19.6349 13.679C19.2159 12.98 18.9949 12.1799 18.9949 11.3669V8.73999C18.9949 5.16099 16.0809 2.25 12.4999 2.25C8.91889 2.25 6.00489 5.16099 6.00489 8.73999V11.3669C6.00489 12.1799 5.78389 12.98 5.36489 13.679L4.25888 15.5249C3.92088 16.0869 3.9129 16.7649 4.2369 17.3369C4.5609 17.9089 5.14688 18.25 5.80388 18.25H19.1979C19.8559 18.25 20.4419 17.9079 20.7659 17.3369C21.0869 16.7659 21.0789 16.0879 20.7409 15.5249Z" fill="black"/>
</svg>
