<svg width="25" height="24" viewBox="0 0 25 24" fill="none" xmlns="http://www.w3.org/2000/svg">
<path d="M20.0667 13.675C19.6957 13.059 19.4998 12.349 19.4998 11.62V8.98999C19.4998 8.22799 19.3778 7.48602 19.1378 6.77502L21.2068 4.70605C21.5978 4.31505 21.5978 3.68299 21.2068 3.29199C20.8158 2.90099 20.1838 2.90099 19.7928 3.29199L5.79377 17.291L5.79175 17.293L3.79276 19.292C3.40176 19.683 3.40176 20.3151 3.79276 20.7061C3.98776 20.9011 4.24376 20.999 4.49976 20.999C4.75576 20.999 5.01176 20.9011 5.20676 20.7061L6.91376 18.999H9.49976C9.49976 20.653 10.8458 21.999 12.4998 21.999C14.1538 21.999 15.4998 20.653 15.4998 18.999H19.1998C20.0368 18.999 20.7838 18.564 21.1968 17.837C21.6108 17.107 21.6008 16.239 21.1688 15.516L20.0667 13.675ZM12.4998 20C11.9488 20 11.4998 19.552 11.4998 19H13.4998C13.4998 19.552 13.0508 20 12.4998 20ZM19.4568 16.8521C19.4178 16.9191 19.3428 17 19.1998 17H8.91376L17.4448 8.46899C17.4628 8.64299 17.4998 8.81299 17.4998 8.98999V11.62C17.4998 12.712 17.7948 13.779 18.3518 14.704L19.4518 16.543C19.5318 16.678 19.4898 16.7941 19.4568 16.8521ZM4.16076 14.968L4.93076 13.678C5.30376 13.06 5.49976 12.349 5.49976 11.62V8.98999C5.49976 5.13599 8.63976 2 12.4998 2C14.0908 2 15.5908 2.51704 16.8368 3.49304C17.2718 3.83404 17.3478 4.46297 17.0068 4.89697C16.6648 5.33197 16.0358 5.40702 15.6028 5.06702C14.7128 4.36902 13.6398 4 12.4998 4C9.74276 4 7.49976 6.23799 7.49976 8.98999V11.62C7.49976 12.713 7.20476 13.78 6.64576 14.707L5.87775 15.993C5.68975 16.306 5.35777 16.48 5.01777 16.48C4.84377 16.48 4.66676 16.434 4.50576 16.338C4.03276 16.056 3.87776 15.442 4.16076 14.968Z" fill="black"/>
</svg>
