<svg width="25" height="24" viewBox="0 0 25 24" fill="none" xmlns="http://www.w3.org/2000/svg">
<path d="M10.4998 19.75H14.4998C14.4998 20.75 13.7828 21.75 12.4998 21.75C11.2168 21.75 10.4998 20.75 10.4998 19.75ZM5.01977 15.73C5.14777 15.73 5.27576 15.68 5.37376 15.584L16.5738 4.38403C16.6748 4.28203 16.7278 4.143 16.7198 4C16.7118 3.857 16.6418 3.72496 16.5298 3.63696C15.3728 2.72996 13.9798 2.25 12.5008 2.25C8.91677 2.25 6.00077 5.16099 6.00077 8.73999V11.3701C6.00077 12.1901 5.77976 12.9891 5.36176 13.6841L4.59176 14.9741C4.46276 15.1901 4.51477 15.469 4.71377 15.624C4.80377 15.695 4.91177 15.73 5.01977 15.73ZM21.2068 3.04297C20.8158 2.65197 20.1838 2.65197 19.7928 3.04297L3.79276 19.043C3.40176 19.434 3.40176 20.066 3.79276 20.457C3.98776 20.652 4.24376 20.75 4.49976 20.75C4.75576 20.75 5.01176 20.652 5.20676 20.457L7.41376 18.25H19.1998C19.8548 18.25 20.4388 17.91 20.7618 17.342C21.0868 16.77 21.0778 16.0899 20.7398 15.5239L19.6388 13.6831C19.2218 12.9901 19.0008 12.1901 19.0008 11.3711V8.74097C19.0008 8.12097 18.9068 7.51593 18.7358 6.92993L21.2078 4.45801C21.5978 4.06601 21.5978 3.43397 21.2068 3.04297Z" fill="black"/>
</svg>
