<svg width="25" height="24" viewBox="0 0 25 24" fill="none" xmlns="http://www.w3.org/2000/svg">
<path d="M21.1701 15.5179L20.0641 13.673C19.6911 13.051 19.4951 12.3409 19.4951 11.6169V8.98999C19.4951 5.13599 16.3571 2 12.5001 2C8.64309 2 5.50508 5.13599 5.50508 8.98999V11.6169C5.50508 12.3409 5.30808 13.051 4.93608 13.672L3.83007 15.5179C3.39807 16.2379 3.38808 17.103 3.80108 17.833C4.21408 18.563 4.96308 19 5.80308 19H9.49908C9.49908 20.654 10.8451 22 12.4991 22C14.1531 22 15.4991 20.654 15.4991 19H19.1961C20.0361 19 20.7851 18.563 21.1991 17.833C21.6121 17.103 21.6011 16.2369 21.1701 15.5179ZM12.4991 20C11.9481 20 11.4991 19.552 11.4991 19H13.4991C13.4991 19.552 13.0501 20 12.4991 20ZM19.4581 16.848C19.4261 16.905 19.3491 17 19.1961 17H5.80207C5.64907 17 5.57208 16.904 5.54008 16.848C5.50808 16.792 5.46608 16.677 5.54408 16.547L6.65008 14.7C7.20808 13.768 7.50409 12.7019 7.50409 11.6169V8.98999C7.50409 6.23799 9.74508 4 12.4991 4C15.2531 4 17.4941 6.23799 17.4941 8.98999V11.6169C17.4941 12.7019 17.7891 13.7681 18.3481 14.701L19.4551 16.547C19.5321 16.677 19.4901 16.791 19.4581 16.848Z" fill="black"/>
</svg>
