<svg width="25" height="24" viewBox="0 0 25 24" fill="none" xmlns="http://www.w3.org/2000/svg">
<path d="M15.5 2.00098H9.5C6.743 2.00098 4.5 4.24398 4.5 7.00098V19.999C4.5 20.745 4.91099 21.424 5.57199 21.77C6.23199 22.116 7.02501 22.0669 7.63901 21.6429L12.498 18.276L17.362 21.6429C17.704 21.8789 18.101 21.999 18.5 21.999C18.817 21.999 19.136 21.923 19.429 21.77C20.09 21.423 20.5 20.745 20.5 19.999V7.00098C20.5 4.24398 18.257 2.00098 15.5 2.00098ZM18.5 19.999L13.637 16.632C13.296 16.397 12.897 16.278 12.498 16.278C12.099 16.278 11.7 16.396 11.359 16.632L6.5 19.999V7.00098C6.5 5.34698 7.846 4.00098 9.5 4.00098H15.5C17.154 4.00098 18.5 5.34698 18.5 7.00098V19.999Z" fill="black"/>
</svg>
