<svg width="24" height="24" viewBox="0 0 24 24" fill="none" xmlns="http://www.w3.org/2000/svg">
<path opacity="0.28" d="M3.0233 11.9609C3 12.4945 3 13.1503 3 14.0002C3 15.8615 3 16.7921 3.24472 17.5453C3.73931 19.0675 4.93273 20.2609 6.45492 20.7555C7.20808 21.0002 8.13872 21.0002 10 21.0002H14C15.8613 21.0002 16.7919 21.0002 17.5451 20.7555C19.0673 20.2609 20.2607 19.0675 20.7553 17.5453C21 16.7921 21 15.8615 21 14.0002C21 13.1503 21 12.4945 20.9767 11.9609" stroke="#111111" stroke-width="2" stroke-linecap="round" stroke-linejoin="round"/>
<path d="M16.0001 7.02163V7C16.0001 6.07003 16.0001 5.60504 15.8979 5.22354C15.6205 4.18827 14.8119 3.37962 13.7766 3.10222C13.3951 3 12.9301 3 12.0001 3C11.0702 3 10.6052 3 10.2237 3.10222C9.18841 3.37962 8.37976 4.18827 8.10236 5.22354C8.00014 5.60504 8.00014 6.07003 8.00014 7V7.02163M16.0001 7.02163C15.4738 7 14.8293 7 14.0001 7H10.0001C9.17098 7 8.52651 7 8.00014 7.02163M16.0001 7.02163C16.6554 7.04856 17.1276 7.10902 17.5452 7.24472C19.0674 7.73931 20.2608 8.93273 20.7554 10.4549C20.8884 10.8642 20.9491 11.3258 20.9768 11.9607C20.7461 14.2296 18.8299 16 16.5001 16H7.50014C5.17041 16 3.25418 14.2296 3.02344 11.9607C3.05116 11.3258 3.11188 10.8642 3.24486 10.4549C3.73945 8.93273 4.93287 7.73931 6.45505 7.24472C6.8727 7.10902 7.34492 7.04856 8.00014 7.02163M12.0001 15V16V17" stroke="#111111" stroke-width="2" stroke-linecap="round" stroke-linejoin="round"/>
</svg>
