<svg width="25" height="24" viewBox="0 0 25 24" fill="none" xmlns="http://www.w3.org/2000/svg">
<path d="M17.5 3C17.5 2.447 17.052 2 16.5 2C15.948 2 15.5 2.447 15.5 3H9.5C9.5 2.447 9.052 2 8.5 2C7.948 2 7.5 2.447 7.5 3C4.743 3 2.5 5.243 2.5 8V17C2.5 19.757 4.743 22 7.5 22H17.5C20.257 22 22.5 19.757 22.5 17V8C22.5 5.243 20.257 3 17.5 3ZM7.5 5V6C7.5 6.553 7.948 7 8.5 7C9.052 7 9.5 6.553 9.5 6V5H15.5V6C15.5 6.553 15.948 7 16.5 7C17.052 7 17.5 6.553 17.5 6V5C19.154 5 20.5 6.346 20.5 8H4.5C4.5 6.346 5.846 5 7.5 5ZM17.5 20H7.5C5.846 20 4.5 18.654 4.5 17V10H20.5V17C20.5 18.654 19.154 20 17.5 20ZM17.5 13C17.5 13.552 17.052 14 16.5 14C15.948 14 15.5 13.552 15.5 13C15.5 12.448 15.948 12 16.5 12C17.052 12 17.5 12.448 17.5 13ZM13.5 13C13.5 13.552 13.052 14 12.5 14C11.948 14 11.5 13.552 11.5 13C11.5 12.448 11.948 12 12.5 12C13.052 12 13.5 12.448 13.5 13ZM9.5 13C9.5 13.552 9.052 14 8.5 14C7.948 14 7.5 13.552 7.5 13C7.5 12.448 7.948 12 8.5 12C9.052 12 9.5 12.448 9.5 13ZM17.5 17C17.5 17.552 17.052 18 16.5 18C15.948 18 15.5 17.552 15.5 17C15.5 16.448 15.948 16 16.5 16C17.052 16 17.5 16.448 17.5 17ZM13.5 17C13.5 17.552 13.052 18 12.5 18C11.948 18 11.5 17.552 11.5 17C11.5 16.448 11.948 16 12.5 16C13.052 16 13.5 16.448 13.5 17ZM9.5 17C9.5 17.552 9.052 18 8.5 18C7.948 18 7.5 17.552 7.5 17C7.5 16.448 7.948 16 8.5 16C9.052 16 9.5 16.448 9.5 17Z" fill="black"/>
</svg>
