<svg width="25" height="24" viewBox="0 0 25 24" fill="none" xmlns="http://www.w3.org/2000/svg">
<path d="M22 8.18994C22 5.65994 20 3.58995 17.5 3.44995V3.25C17.5 2.7 17.05 2.25 16.5 2.25C15.95 2.25 15.5 2.7 15.5 3.25V3.41992H9.5V3.25C9.5 2.7 9.05 2.25 8.5 2.25C7.95 2.25 7.5 2.7 7.5 3.25V3.44995C5 3.58995 3 5.65994 3 8.18994V10.0801C3 10.1101 3.00999 10.1399 3.01999 10.1699C3.00999 10.1899 3 10.22 3 10.25V17.25C3 19.73 5.02 21.75 7.5 21.75H17.5C19.98 21.75 22 19.73 22 17.25V10.25C22 10.22 21.99 10.1899 21.98 10.1699C21.99 10.1399 22 10.1101 22 10.0801V8.18994ZM8.5 18.25C7.95 18.25 7.5 17.8 7.5 17.25C7.5 16.7 7.95 16.25 8.5 16.25C9.05 16.25 9.5 16.7 9.5 17.25C9.5 17.8 9.05 18.25 8.5 18.25ZM8.5 14.25C7.95 14.25 7.5 13.8 7.5 13.25C7.5 12.7 7.95 12.25 8.5 12.25C9.05 12.25 9.5 12.7 9.5 13.25C9.5 13.8 9.05 14.25 8.5 14.25ZM12.5 18.25C11.95 18.25 11.5 17.8 11.5 17.25C11.5 16.7 11.95 16.25 12.5 16.25C13.05 16.25 13.5 16.7 13.5 17.25C13.5 17.8 13.05 18.25 12.5 18.25ZM12.5 14.25C11.95 14.25 11.5 13.8 11.5 13.25C11.5 12.7 11.95 12.25 12.5 12.25C13.05 12.25 13.5 12.7 13.5 13.25C13.5 13.8 13.05 14.25 12.5 14.25ZM16.5 18.25C15.95 18.25 15.5 17.8 15.5 17.25C15.5 16.7 15.95 16.25 16.5 16.25C17.05 16.25 17.5 16.7 17.5 17.25C17.5 17.8 17.05 18.25 16.5 18.25ZM16.5 14.25C15.95 14.25 15.5 13.8 15.5 13.25C15.5 12.7 15.95 12.25 16.5 12.25C17.05 12.25 17.5 12.7 17.5 13.25C17.5 13.8 17.05 14.25 16.5 14.25ZM20 9.75H5V8.18994C5 6.73994 6.12001 5.55994 7.54001 5.43994C7.63001 5.89994 8.02 6.25 8.5 6.25C8.99 6.25 9.38 5.88992 9.47 5.41992H15.53C15.62 5.88992 16.01 6.25 16.5 6.25C16.98 6.25 17.37 5.89994 17.46 5.43994C18.88 5.55994 20 6.74994 20 8.18994V9.75Z" fill="black"/>
</svg>
