<svg width="25" height="24" viewBox="0 0 25 24" fill="none" xmlns="http://www.w3.org/2000/svg">
<path d="M18.055 6.03003L16.925 4.33594C16.367 3.49894 15.434 3 14.429 3H10.57C9.56501 3 8.63201 3.49894 8.07401 4.33594L6.944 6.03003C4.447 6.30703 2.5 8.43 2.5 11V16C2.5 18.757 4.743 21 7.5 21H17.5C20.257 21 22.5 18.757 22.5 16V11C22.499 8.431 20.551 6.30803 18.055 6.03003ZM20.499 16C20.499 17.654 19.153 19 17.499 19H7.49899C5.84499 19 4.49899 17.654 4.49899 16V11C4.49899 9.346 5.84499 8 7.49899 8C7.83299 8 8.14499 7.83293 8.33099 7.55493L9.737 5.44604C9.923 5.16704 10.234 5.00098 10.569 5.00098H14.428C14.763 5.00098 15.074 5.16704 15.26 5.44604L16.666 7.55493C16.852 7.83293 17.164 8 17.498 8C19.152 8 20.498 9.346 20.498 11V16H20.499ZM12.499 9C10.293 9 8.49899 10.794 8.49899 13C8.49899 15.206 10.293 17 12.499 17C14.705 17 16.499 15.206 16.499 13C16.499 10.794 14.705 9 12.499 9ZM12.499 15C11.396 15 10.499 14.103 10.499 13C10.499 11.897 11.396 11 12.499 11C13.602 11 14.499 11.897 14.499 13C14.499 14.103 13.602 15 12.499 15ZM19.499 10C19.499 10.552 19.051 11 18.499 11C17.947 11 17.499 10.552 17.499 10C17.499 9.448 17.947 9 18.499 9C19.051 9 19.499 9.448 19.499 10Z" fill="black"/>
</svg>
