<svg width="25" height="24" viewBox="0 0 25 24" fill="none" xmlns="http://www.w3.org/2000/svg">
<path d="M14.5 13C14.5 14.1 13.6 15 12.5 15C11.4 15 10.5 14.1 10.5 13C10.5 11.9 11.4 11 12.5 11C13.6 11 14.5 11.9 14.5 13ZM22 11V16C22 18.48 19.98 20.5 17.5 20.5H7.5C5.02 20.5 3 18.48 3 16V11C3 8.61 4.87001 6.65001 7.23001 6.51001L8.48999 4.61011C8.95999 3.92011 9.73001 3.5 10.57 3.5H14.43C15.27 3.5 16.04 3.92011 16.51 4.61011L17.77 6.51001C20.13 6.65001 22 8.61 22 11ZM16.5 13C16.5 10.79 14.71 9 12.5 9C10.29 9 8.5 10.79 8.5 13C8.5 15.21 10.29 17 12.5 17C14.71 17 16.5 15.21 16.5 13ZM19.5 10C19.5 9.45 19.05 9 18.5 9C17.95 9 17.5 9.45 17.5 10C17.5 10.55 17.95 11 18.5 11C19.05 11 19.5 10.55 19.5 10Z" fill="black"/>
</svg>
