<svg width="25" height="24" viewBox="0 0 25 24" fill="none" xmlns="http://www.w3.org/2000/svg">
<path d="M22.45 9.93121C21.647 5.94721 18.554 2.85336 14.569 2.05036C13.836 1.90236 13.074 2.0904 12.488 2.5694C11.904 3.0484 11.569 3.75439 11.569 4.50739V9.93121C11.569 11.5852 12.915 12.9312 14.569 12.9312H19.993C20.747 12.9312 21.453 12.5963 21.931 12.0123C22.409 11.4283 22.599 10.6692 22.45 9.93121ZM20.385 10.7442C20.327 10.8132 20.201 10.9312 19.993 10.9312H14.569C14.017 10.9312 13.569 10.4832 13.569 9.93121V4.50739C13.569 4.29939 13.686 4.1733 13.756 4.1153C13.813 4.0693 13.922 4.00031 14.072 4.00031C14.104 4.00031 14.138 4.00329 14.175 4.01129C17.367 4.65429 19.847 7.13326 20.489 10.3253C20.53 10.5283 20.441 10.6752 20.385 10.7442ZM21.077 15.2913C19.854 19.3043 16.206 22.0003 12 22.0003C6.762 22.0003 2.5 17.7383 2.5 12.5003C2.5 8.29431 5.19598 4.6464 9.20898 3.4234C9.73798 3.2634 10.296 3.56142 10.457 4.08942C10.617 4.61742 10.319 5.17622 9.79102 5.33722C6.62702 6.30122 4.5 9.18031 4.5 12.5003C4.5 16.6363 7.864 20.0003 12 20.0003C15.32 20.0003 18.199 17.8733 19.163 14.7093C19.325 14.1803 19.885 13.8853 20.411 14.0433C20.939 14.2043 21.237 14.7633 21.077 15.2913Z" fill="black"/>
</svg>
