<svg width="25" height="24" viewBox="0 0 25 24" fill="none" xmlns="http://www.w3.org/2000/svg">
<path d="M22.2003 10.1808C21.3973 6.19681 18.3043 3.10295 14.3193 2.29995C13.5863 2.15295 12.8243 2.33999 12.2383 2.81899C11.6543 3.29799 11.3193 4.00398 11.3193 4.75698V10.1808C11.3193 11.8348 12.6653 13.1808 14.3193 13.1808H19.7433C20.4973 13.1808 21.2033 12.8459 21.6813 12.2619C22.1593 11.6779 22.3493 10.9188 22.2003 10.1808ZM20.1353 10.9938C20.0773 11.0628 19.9513 11.1808 19.7433 11.1808H14.3193C13.7673 11.1808 13.3193 10.7328 13.3193 10.1808V4.75698C13.3193 4.54898 13.4363 4.42289 13.5063 4.36489C13.5633 4.31889 13.6723 4.2499 13.8223 4.2499C13.8543 4.2499 13.8883 4.25289 13.9253 4.26089C17.1173 4.90389 19.5973 7.38285 20.2393 10.5749C20.2803 10.7779 20.1913 10.9248 20.1353 10.9938ZM19.9873 15.1879C20.1753 15.4689 20.2133 15.825 20.0853 16.141C18.6903 19.583 15.4193 21.7489 11.7593 21.7489C11.4423 21.7489 11.1213 21.7319 10.7993 21.6989C6.66332 21.2739 3.22432 17.8359 2.79932 13.6999C2.38432 9.66085 4.61832 5.92897 8.35932 4.41397C8.67732 4.28797 9.03232 4.32287 9.31233 4.51187C9.58633 4.69787 9.75031 5.00582 9.75031 5.33682V12.2499C9.75031 13.6289 10.8713 14.7499 12.2503 14.7499H19.1623C19.4933 14.7499 19.8023 14.9139 19.9873 15.1879Z" fill="black"/>
</svg>
