<svg width="25" height="24" viewBox="0 0 25 24" fill="none" xmlns="http://www.w3.org/2000/svg">
<path d="M12.5 2C6.99 2 2.5 6.49 2.5 12C2.5 17.51 6.99 22 12.5 22C18.01 22 22.5 17.51 22.5 12C22.5 6.49 18.01 2 12.5 2ZM17.21 10.71L12.21 15.71C12.01 15.9 11.76 16 11.5 16C11.24 16 10.99 15.9 10.79 15.71L7.79001 12.71C7.40001 12.32 7.40001 11.68 7.79001 11.29C8.18001 10.9 8.81999 10.9 9.20999 11.29L11.5 13.5901L15.79 9.29004C16.18 8.90004 16.82 8.90004 17.21 9.29004C17.6 9.68004 17.6 10.32 17.21 10.71Z" fill="black"/>
</svg>
