<svg width="24" height="24" viewBox="0 0 24 24" fill="none" xmlns="http://www.w3.org/2000/svg">
<path opacity="0.28" d="M11.9996 21.1501C17.053 21.1501 21.1496 17.0535 21.1496 12.0001C21.1496 6.94669 17.053 2.8501 11.9996 2.8501C6.9462 2.8501 2.84961 6.94669 2.84961 12.0001C2.84961 17.0535 6.9462 21.1501 11.9996 21.1501Z" fill="#111111"/>
<path d="M8.49951 12.5124L10.8407 14.851C11.9667 12.8821 13.5251 11.1944 15.3982 9.91536L15.4995 9.84619M21.1496 12.0001C21.1496 17.0535 17.053 21.1501 11.9996 21.1501C6.9462 21.1501 2.84961 17.0535 2.84961 12.0001C2.84961 6.94669 6.9462 2.8501 11.9996 2.8501C17.053 2.8501 21.1496 6.94669 21.1496 12.0001Z" stroke="#111111" stroke-width="2" stroke-linecap="round" stroke-linejoin="round"/>
</svg>
