<svg width="25" height="24" viewBox="0 0 25 24" fill="none" xmlns="http://www.w3.org/2000/svg">
<path d="M17.207 9.29297C17.598 9.68397 17.598 10.316 17.207 10.707L12.207 15.707C12.012 15.902 11.756 16 11.5 16C11.244 16 10.988 15.902 10.793 15.707L7.793 12.707C7.402 12.316 7.402 11.684 7.793 11.293C8.184 10.902 8.816 10.902 9.207 11.293L11.5 13.5861L15.793 9.29297C16.184 8.90197 16.816 8.90197 17.207 9.29297ZM22.5 12C22.5 17.514 18.014 22 12.5 22C6.986 22 2.5 17.514 2.5 12C2.5 6.486 6.986 2 12.5 2C18.014 2 22.5 6.486 22.5 12ZM20.5 12C20.5 7.589 16.911 4 12.5 4C8.089 4 4.5 7.589 4.5 12C4.5 16.411 8.089 20 12.5 20C16.911 20 20.5 16.411 20.5 12Z" fill="black"/>
</svg>
