<svg width="24" height="24" viewBox="0 0 24 24" fill="none" xmlns="http://www.w3.org/2000/svg">
<path fill-rule="evenodd" clip-rule="evenodd" d="M1.84961 12.0001C1.84961 6.39441 6.39392 1.8501 11.9996 1.8501C17.6053 1.8501 22.1496 6.39441 22.1496 12.0001C22.1496 17.6058 17.6053 22.1501 11.9996 22.1501C6.39392 22.1501 1.84961 17.6058 1.84961 12.0001ZM16.0634 10.672C16.5195 10.3606 16.6368 9.73836 16.3253 9.28227C16.0139 8.82618 15.3917 8.70892 14.9356 9.02036L14.8343 9.08953C13.1934 10.21 11.779 11.6244 10.6605 13.2575L9.20624 11.8049C8.81551 11.4146 8.18234 11.4149 7.79203 11.8056C7.40171 12.1964 7.40205 12.8295 7.79278 13.2198L10.134 15.5585C10.3544 15.7787 10.6648 15.8836 10.9735 15.8422C11.2823 15.8008 11.5541 15.6179 11.7088 15.3475C12.7597 13.5099 14.214 11.9349 15.9621 10.7412L16.0634 10.672Z" fill="#111111"/>
</svg>
