<svg width="25" height="24" viewBox="0 0 25 24" fill="none" xmlns="http://www.w3.org/2000/svg">
<path d="M12.5 2C6.986 2 2.5 6.486 2.5 12C2.5 17.514 6.986 22 12.5 22C18.014 22 22.5 17.514 22.5 12C22.5 6.486 18.014 2 12.5 2ZM12.5 20C8.089 20 4.5 16.411 4.5 12C4.5 7.589 8.089 4 12.5 4C16.911 4 20.5 7.589 20.5 12C20.5 16.411 16.911 20 12.5 20ZM16.207 10.293C16.598 10.684 16.598 11.316 16.207 11.707L13.207 14.707C13.012 14.902 12.756 15 12.5 15C12.244 15 11.988 14.902 11.793 14.707L8.79303 11.707C8.40203 11.316 8.40203 10.684 8.79303 10.293C9.18403 9.90197 9.81597 9.90197 10.207 10.293L12.5 12.5859L14.793 10.293C15.184 9.90197 15.816 9.90197 16.207 10.293Z" fill="black"/>
</svg>
