<svg width="25" height="24" viewBox="0 0 25 24" fill="none" xmlns="http://www.w3.org/2000/svg">
<path d="M12.5 2C6.986 2 2.5 6.486 2.5 12C2.5 17.514 6.986 22 12.5 22C18.014 22 22.5 17.514 22.5 12C22.5 6.486 18.014 2 12.5 2ZM12.5 20C8.089 20 4.5 16.411 4.5 12C4.5 7.589 8.089 4 12.5 4C16.911 4 20.5 7.589 20.5 12C20.5 16.411 16.911 20 12.5 20ZM15.207 11.293C15.598 11.684 15.598 12.316 15.207 12.707L12.207 15.707C12.012 15.902 11.756 16 11.5 16C11.244 16 10.988 15.902 10.793 15.707C10.402 15.316 10.402 14.684 10.793 14.293L13.086 12L10.793 9.70703C10.402 9.31603 10.402 8.68397 10.793 8.29297C11.184 7.90197 11.816 7.90197 12.207 8.29297L15.207 11.293Z" fill="black"/>
</svg>
