<svg width="25" height="24" viewBox="0 0 25 24" fill="none" xmlns="http://www.w3.org/2000/svg">
<path d="M14.207 9.70703L11.914 12L14.207 14.293C14.598 14.684 14.598 15.316 14.207 15.707C14.012 15.902 13.756 16 13.5 16C13.244 16 12.988 15.902 12.793 15.707L9.79303 12.707C9.40203 12.316 9.40203 11.684 9.79303 11.293L12.793 8.29297C13.184 7.90197 13.816 7.90197 14.207 8.29297C14.598 8.68397 14.598 9.31603 14.207 9.70703ZM22.5 12C22.5 17.514 18.014 22 12.5 22C6.986 22 2.5 17.514 2.5 12C2.5 6.486 6.986 2 12.5 2C18.014 2 22.5 6.486 22.5 12ZM20.5 12C20.5 7.589 16.911 4 12.5 4C8.089 4 4.5 7.589 4.5 12C4.5 16.411 8.089 20 12.5 20C16.911 20 20.5 16.411 20.5 12Z" fill="black"/>
</svg>
