<svg width="25" height="24" viewBox="0 0 25 24" fill="none" xmlns="http://www.w3.org/2000/svg">
<path d="M12.5 2.5C7.26 2.5 3 6.76 3 12C3 17.24 7.26 21.5 12.5 21.5C17.74 21.5 22 17.24 22 12C22 6.76 17.74 2.5 12.5 2.5ZM15.21 12.71L12.21 15.71C12.01 15.9 11.76 16 11.5 16C11.24 16 10.99 15.9 10.79 15.71C10.4 15.32 10.4 14.68 10.79 14.29L13.09 12L10.79 9.70996C10.4 9.31996 10.4 8.68004 10.79 8.29004C11.18 7.90004 11.82 7.90004 12.21 8.29004L15.21 11.29C15.6 11.68 15.6 12.32 15.21 12.71Z" fill="black"/>
</svg>
