<svg width="25" height="24" viewBox="0 0 25 24" fill="none" xmlns="http://www.w3.org/2000/svg">
<path d="M12.5 2.5C7.26 2.5 3 6.76 3 12C3 17.24 7.26 21.5 12.5 21.5C17.74 21.5 22 17.24 22 12C22 6.76 17.74 2.5 12.5 2.5ZM16.21 11.71L13.21 14.71C13.01 14.9 12.76 15 12.5 15C12.24 15 11.99 14.9 11.79 14.71L8.78998 11.71C8.39998 11.32 8.39998 10.68 8.78998 10.29C9.17998 9.90004 9.82002 9.90004 10.21 10.29L12.5 12.5901L14.79 10.29C15.18 9.90004 15.82 9.90004 16.21 10.29C16.6 10.68 16.6 11.32 16.21 11.71Z" fill="black"/>
</svg>
