<svg width="25" height="24" viewBox="0 0 25 24" fill="none" xmlns="http://www.w3.org/2000/svg">
<path d="M12.5 2.5C7.26 2.5 3 6.76 3 12C3 17.24 7.26 21.5 12.5 21.5C17.74 21.5 22 17.24 22 12C22 6.76 17.74 2.5 12.5 2.5ZM14.21 14.29C14.6 14.68 14.6 15.32 14.21 15.71C14.01 15.9 13.76 16 13.5 16C13.24 16 12.99 15.9 12.79 15.71L9.78998 12.71C9.39998 12.32 9.39998 11.68 9.78998 11.29L12.79 8.29004C13.18 7.90004 13.82 7.90004 14.21 8.29004C14.6 8.68004 14.6 9.31996 14.21 9.70996L11.91 12L14.21 14.29Z" fill="black"/>
</svg>
