<svg width="25" height="24" viewBox="0 0 25 24" fill="none" xmlns="http://www.w3.org/2000/svg">
<path d="M12.5 2.5C7.26 2.5 3 6.76 3 12C3 17.24 7.26 21.5 12.5 21.5C17.74 21.5 22 17.24 22 12C22 6.76 17.74 2.5 12.5 2.5ZM16.21 13.71C16.01 13.9 15.76 14 15.5 14C15.24 14 14.99 13.9 14.79 13.71L12.5 11.4099L10.21 13.71C9.82002 14.1 9.17998 14.1 8.78998 13.71C8.39998 13.32 8.39998 12.68 8.78998 12.29L11.79 9.29004C12.18 8.90004 12.82 8.90004 13.21 9.29004L16.21 12.29C16.6 12.68 16.6 13.32 16.21 13.71Z" fill="black"/>
</svg>
