<svg width="25" height="24" viewBox="0 0 25 24" fill="none" xmlns="http://www.w3.org/2000/svg">
<path d="M12.5 2C6.986 2 2.5 6.486 2.5 12C2.5 17.514 6.986 22 12.5 22C18.014 22 22.5 17.514 22.5 12C22.5 6.486 18.014 2 12.5 2ZM12.5 20C8.089 20 4.5 16.411 4.5 12C4.5 7.589 8.089 4 12.5 4C16.911 4 20.5 7.589 20.5 12C20.5 16.411 16.911 20 12.5 20ZM16.207 12.293C16.598 12.684 16.598 13.316 16.207 13.707C16.012 13.902 15.756 14 15.5 14C15.244 14 14.988 13.902 14.793 13.707L12.5 11.4141L10.207 13.707C9.81597 14.098 9.18403 14.098 8.79303 13.707C8.40203 13.316 8.40203 12.684 8.79303 12.293L11.793 9.29297C12.184 8.90197 12.816 8.90197 13.207 9.29297L16.207 12.293Z" fill="black"/>
</svg>
