<svg width="25" height="24" viewBox="0 0 25 24" fill="none" xmlns="http://www.w3.org/2000/svg">
<path d="M12.5 2C6.986 2 2.5 6.486 2.5 12C2.5 17.514 6.986 22 12.5 22C18.014 22 22.5 17.514 22.5 12C22.5 6.486 18.014 2 12.5 2ZM12.5 20C8.089 20 4.5 16.411 4.5 12C4.5 7.589 8.089 4 12.5 4C16.911 4 20.5 7.589 20.5 12C20.5 16.411 16.911 20 12.5 20ZM17.5 12C17.5 12.553 17.052 13 16.5 13H12.5C11.948 13 11.5 12.553 11.5 12V7C11.5 6.447 11.948 6 12.5 6C13.052 6 13.5 6.447 13.5 7V11H16.5C17.052 11 17.5 11.447 17.5 12Z" fill="black"/>
</svg>
