<svg width="25" height="24" viewBox="0 0 25 24" fill="none" xmlns="http://www.w3.org/2000/svg">
<path d="M17.5 2H7.5C4.743 2 2.5 4.243 2.5 7V20C2.5 20.404 2.744 20.7701 3.117 20.9241C3.241 20.9761 3.371 21 3.5 21C3.76 21 4.016 20.898 4.207 20.707L6.621 18.293C6.81 18.105 7.06101 18 7.32901 18H17.5C20.257 18 22.5 15.757 22.5 13V7C22.5 4.243 20.257 2 17.5 2ZM20.5 13C20.5 14.654 19.154 16 17.5 16H7.32901C6.52801 16 5.774 16.3119 5.207 16.8789L4.5 17.5859V7C4.5 5.346 5.846 4 7.5 4H17.5C19.154 4 20.5 5.346 20.5 7V13Z" fill="black"/>
</svg>
