<svg width="25" height="24" viewBox="0 0 25 24" fill="none" xmlns="http://www.w3.org/2000/svg">
<path d="M18.5 7V6C18.5 3.794 16.706 2 14.5 2H6.5C4.294 2 2.5 3.794 2.5 6V16C2.5 16.406 2.74601 16.772 3.12201 16.926C3.24401 16.976 3.372 17 3.5 17C3.764 17 4.02199 16.896 4.21399 16.7L5.88 15H6.5V16C6.5 18.206 8.294 20 10.5 20H19.12L20.786 21.7C20.978 21.895 21.237 22 21.5 22C21.627 22 21.756 21.976 21.878 21.926C22.254 21.773 22.5 21.406 22.5 21V11C22.5 8.794 20.706 7 18.5 7ZM5.45999 13C5.19099 13 4.934 13.108 4.746 13.3L4.5 13.551V6C4.5 4.897 5.397 4 6.5 4H14.5C15.603 4 16.5 4.897 16.5 6V11C16.5 12.103 15.603 13 14.5 13H5.45999ZM20.5 18.551L20.254 18.3C20.066 18.109 19.808 18 19.54 18H10.5C9.397 18 8.5 17.103 8.5 16V15H14.5C16.706 15 18.5 13.206 18.5 11V9C19.603 9 20.5 9.897 20.5 11V18.551Z" fill="black"/>
</svg>
