<svg width="25" height="24" viewBox="0 0 25 24" fill="none" xmlns="http://www.w3.org/2000/svg">
<path d="M17.5 3H7.5C5.02 3 3 5.02 3 7.5V20.5C3 20.7 3.12 20.88 3.31 20.96C3.37 20.99 3.44 21 3.5 21C3.63 21 3.76001 20.9501 3.85001 20.8501L6.26999 18.4399C6.54999 18.1599 6.92999 18 7.32999 18H17.5C19.98 18 22 15.98 22 13.5V7.5C22 5.02 19.98 3 17.5 3ZM8.5 11.75C7.81 11.75 7.25 11.19 7.25 10.5C7.25 9.81 7.81 9.25 8.5 9.25C9.19 9.25 9.75 9.81 9.75 10.5C9.75 11.19 9.19 11.75 8.5 11.75ZM12.5 11.75C11.81 11.75 11.25 11.19 11.25 10.5C11.25 9.81 11.81 9.25 12.5 9.25C13.19 9.25 13.75 9.81 13.75 10.5C13.75 11.19 13.19 11.75 12.5 11.75ZM16.5 11.75C15.81 11.75 15.25 11.19 15.25 10.5C15.25 9.81 15.81 9.25 16.5 9.25C17.19 9.25 17.75 9.81 17.75 10.5C17.75 11.19 17.19 11.75 16.5 11.75Z" fill="black"/>
</svg>
