<svg width="25" height="24" viewBox="0 0 25 24" fill="none" xmlns="http://www.w3.org/2000/svg">
<path d="M22 11V21C22 21.2 21.88 21.39 21.69 21.46C21.63 21.49 21.56 21.5 21.5 21.5C21.37 21.5 21.24 21.4501 21.14 21.3501L19.33 19.5H10.5C8.57 19.5 7 17.93 7 16H14.5C17.26 16 19.5 13.76 19.5 11V7.6499C20.94 8.0799 22 9.42 22 11ZM18 11V6C18 4.07 16.43 2.5 14.5 2.5H6.5C4.57 2.5 3 4.07 3 6V16C3 16.2 3.12 16.39 3.31 16.46C3.37 16.49 3.44 16.5 3.5 16.5C3.63 16.5 3.75999 16.4501 3.85999 16.3501L5.67001 14.5H14.5C16.43 14.5 18 12.93 18 11Z" fill="black"/>
</svg>
