<svg width="25" height="24" viewBox="0 0 25 24" fill="none" xmlns="http://www.w3.org/2000/svg">
<path d="M14 12C14 12.83 13.33 13.5 12.5 13.5C11.67 13.5 11 12.83 11 12C11 11.17 11.67 10.5 12.5 10.5C13.33 10.5 14 11.17 14 12ZM22 12C22 17.24 17.74 21.5 12.5 21.5C7.26 21.5 3 17.24 3 12C3 6.76 7.26 2.5 12.5 2.5C17.74 2.5 22 6.76 22 12ZM17.19 7.31006C16.81 6.94006 16.28 6.78992 15.76 6.91992L11.71 7.92993C10.09 8.33993 8.83999 9.58996 8.42999 11.21L7.42001 15.26C7.29001 15.78 7.44 16.3099 7.81 16.6899C8.1 16.9699 8.48 17.1299 8.87 17.1299C8.99 17.1299 9.11999 17.1101 9.23999 17.0801L13.29 16.0701C14.91 15.6601 16.16 14.41 16.57 12.79L17.58 8.73999C17.71 8.21999 17.56 7.69006 17.19 7.31006Z" fill="black"/>
</svg>
