<svg width="25" height="24" viewBox="0 0 25 24" fill="none" xmlns="http://www.w3.org/2000/svg">
<path d="M12.5 2C6.986 2 2.5 6.486 2.5 12C2.5 17.514 6.986 22 12.5 22C18.014 22 22.5 17.514 22.5 12C22.5 6.486 18.014 2 12.5 2ZM12.5 20C8.089 20 4.5 16.411 4.5 12C4.5 7.589 8.089 4 12.5 4C16.911 4 20.5 7.589 20.5 12C20.5 16.411 16.911 20 12.5 20ZM15.641 6.43506L11.586 7.44897C9.791 7.89697 8.398 9.29204 7.948 11.087L6.93399 15.1421C6.76199 15.8301 6.959 16.54 7.461 17.042C7.843 17.423 8.346 17.6279 8.867 17.6279C9.031 17.6279 9.19599 17.6079 9.35999 17.5659L13.415 16.552C15.21 16.104 16.603 14.7089 17.053 12.9139L18.067 8.85901C18.239 8.17101 18.042 7.46098 17.54 6.95898C17.038 6.45898 16.328 6.26306 15.641 6.43506ZM16.125 8.375L15.111 12.429C14.841 13.506 14.006 14.343 12.928 14.613L8.87299 15.626L9.88699 11.572C10.157 10.495 10.992 9.65794 12.07 9.38794L16.125 8.375ZM12.5 10.5C13.328 10.5 14 11.172 14 12C14 12.828 13.328 13.5 12.5 13.5C11.672 13.5 11 12.828 11 12C11 11.172 11.672 10.5 12.5 10.5Z" fill="black"/>
</svg>
