<svg width="25" height="24" viewBox="0 0 25 24" fill="none" xmlns="http://www.w3.org/2000/svg">
<path d="M11.5 19.5H17.2C16.61 20.97 15.18 22 13.5 22H6.5C4.29 22 2.5 20.21 2.5 18V10C2.5 7.96 4.03 6.28003 6 6.03003V14C6 17.03 8.47 19.5 11.5 19.5ZM20 6.25H22.12C22.06 6.16 21.99 6.08 21.91 6L18.5 2.59009C18.42 2.51009 18.34 2.43989 18.25 2.38989V4.5C18.25 5.46 19.04 6.25 20 6.25ZM20 7.75C18.21 7.75 16.75 6.29 16.75 4.5V2H11.5C9.29 2 7.5 3.79 7.5 6V14C7.5 16.21 9.29 18 11.5 18H18.5C20.71 18 22.5 16.21 22.5 14V7.75H20Z" fill="black"/>
</svg>
