<svg width="25" height="24" viewBox="0 0 25 24" fill="none" xmlns="http://www.w3.org/2000/svg">
<path d="M21.914 6L18.5 2.58606C18.122 2.20806 17.62 2 17.086 2H11.5C9.294 2 7.5 3.794 7.5 6H6.5C4.294 6 2.5 7.794 2.5 10V18C2.5 20.206 4.294 22 6.5 22H13.5C15.706 22 17.5 20.206 17.5 18H18.5C20.706 18 22.5 16.206 22.5 14V7.41394C22.5 6.88794 22.287 6.372 21.914 6ZM17.5 4.41394L20.086 7H18.765C18.067 7 17.5 6.43299 17.5 5.73499V4.41394ZM13.5 20H6.5C5.397 20 4.5 19.103 4.5 18V10C4.5 8.897 5.397 8 6.5 8H7.5V14C7.5 16.206 9.294 18 11.5 18H15.5C15.5 19.103 14.603 20 13.5 20ZM18.5 16H11.5C10.397 16 9.5 15.103 9.5 14V6C9.5 4.897 10.397 4 11.5 4H15.5V5.73499C15.5 7.53499 16.965 9 18.765 9H20.5V14C20.5 15.103 19.603 16 18.5 16Z" fill="black"/>
</svg>
