<svg width="25" height="24" viewBox="0 0 25 24" fill="none" xmlns="http://www.w3.org/2000/svg">
<path d="M21.5 11H22.5V9C22.5 6.243 20.257 4 17.5 4H7.5C4.743 4 2.5 6.243 2.5 9V11H3.5C4.051 11 4.5 11.448 4.5 12C4.5 12.552 4.051 13 3.5 13H2.5V15C2.5 17.757 4.743 20 7.5 20H17.5C20.257 20 22.5 17.757 22.5 15V13H21.5C20.948 13 20.5 12.552 20.5 12C20.5 11.448 20.948 11 21.5 11ZM20.5 9.17102C19.336 9.58402 18.5 10.696 18.5 12C18.5 13.304 19.336 14.416 20.5 14.829V15C20.5 16.654 19.154 18 17.5 18H16.5V16C16.5 15.447 16.053 15 15.5 15C14.947 15 14.5 15.447 14.5 16V18H7.5C5.846 18 4.5 16.654 4.5 15V14.829C5.664 14.416 6.5 13.304 6.5 12C6.5 10.696 5.664 9.58402 4.5 9.17102V9C4.5 7.346 5.846 6 7.5 6H14.5V8C14.5 8.553 14.947 9 15.5 9C16.053 9 16.5 8.553 16.5 8V6H17.5C19.154 6 20.5 7.346 20.5 9V9.17102ZM16.5 11V13C16.5 13.553 16.053 14 15.5 14C14.947 14 14.5 13.553 14.5 13V11C14.5 10.447 14.947 10 15.5 10C16.053 10 16.5 10.447 16.5 11Z" fill="black"/>
</svg>
