<svg width="25" height="24" viewBox="0 0 25 24" fill="none" xmlns="http://www.w3.org/2000/svg">
<path d="M21.5 10.5H22V9C22 6.525 19.975 4.5 17.5 4.5H17C16.724 4.5 16.5 4.724 16.5 5V7C16.5 7.55 16.05 8 15.5 8C14.95 8 14.5 7.55 14.5 7V5C14.5 4.724 14.276 4.5 14 4.5H7.5C5.025 4.5 3 6.525 3 9V10.5H3.5C4.33 10.5 5 11.17 5 12C5 12.83 4.33 13.5 3.5 13.5H3V15C3 17.475 5.025 19.5 7.5 19.5H14C14.276 19.5 14.5 19.276 14.5 19V17C14.5 16.45 14.95 16 15.5 16C16.05 16 16.5 16.45 16.5 17V19C16.5 19.276 16.724 19.5 17 19.5H17.5C19.975 19.5 22 17.475 22 15V13.5H21.5C20.67 13.5 20 12.83 20 12C20 11.17 20.67 10.5 21.5 10.5ZM16.5 13.5C16.5 14.05 16.05 14.5 15.5 14.5C14.95 14.5 14.5 14.05 14.5 13.5V10.5C14.5 9.95 14.95 9.5 15.5 9.5C16.05 9.5 16.5 9.95 16.5 10.5V13.5Z" fill="black"/>
</svg>
