<svg width="25" height="24" viewBox="0 0 25 24" fill="none" xmlns="http://www.w3.org/2000/svg">
<path d="M17.5 4H7.5C4.743 4 2.5 6.243 2.5 9V15C2.5 17.757 4.743 20 7.5 20H17.5C20.257 20 22.5 17.757 22.5 15V9C22.5 6.243 20.257 4 17.5 4ZM20.5 15C20.5 16.654 19.154 18 17.5 18H7.5C5.846 18 4.5 16.654 4.5 15V11H20.5V15ZM4.5 9C4.5 7.346 5.846 6 7.5 6H17.5C19.154 6 20.5 7.346 20.5 9H4.5ZM6.5 15C6.5 14.447 6.948 14 7.5 14H10.5C11.052 14 11.5 14.447 11.5 15C11.5 15.553 11.052 16 10.5 16H7.5C6.948 16 6.5 15.553 6.5 15Z" fill="black"/>
</svg>
