<svg width="25" height="24" viewBox="0 0 25 24" fill="none" xmlns="http://www.w3.org/2000/svg">
<path d="M17.5 2H7.5C4.743 2 2.5 4.243 2.5 7V13C2.5 15.757 4.743 18 7.5 18H11.5V20H8.5C7.948 20 7.5 20.447 7.5 21C7.5 21.553 7.948 22 8.5 22H16.5C17.052 22 17.5 21.553 17.5 21C17.5 20.447 17.052 20 16.5 20H13.5V18H17.5C20.257 18 22.5 15.757 22.5 13V7C22.5 4.243 20.257 2 17.5 2ZM20.5 13C20.5 14.654 19.154 16 17.5 16H7.5C5.846 16 4.5 14.654 4.5 13V7C4.5 5.346 5.846 4 7.5 4H17.5C19.154 4 20.5 5.346 20.5 7V13Z" fill="black"/>
</svg>
