<svg width="25" height="24" viewBox="0 0 25 24" fill="none" xmlns="http://www.w3.org/2000/svg">
<path d="M21.472 9.52168L20.893 8.94243C20.703 8.75238 20.598 8.49942 20.598 8.22934V7.41504C20.598 5.47852 19.023 3.90409 17.088 3.90409H16.273C16.004 3.90409 15.751 3.80016 15.56 3.60811L14.981 3.02995C13.613 1.66059 11.385 1.66059 10.017 3.02995L9.43799 3.60811C9.24799 3.79916 8.99501 3.90409 8.72601 3.90409H7.91199C5.97599 3.90409 4.40198 5.47852 4.40198 7.41504V8.22934C4.40198 8.49942 4.29699 8.75137 4.10699 8.94243L3.52899 9.52168C2.86499 10.1839 2.5 11.0661 2.5 12.0033C2.5 12.9406 2.86502 13.8227 3.52802 14.4849L4.10699 15.0642C4.29699 15.2542 4.40198 15.5072 4.40198 15.7773V16.5916C4.40198 18.5281 5.97699 20.1025 7.91199 20.1025H8.72601C8.99501 20.1025 9.24803 20.2064 9.43903 20.3985L10.018 20.9767C10.702 21.6618 11.601 22.0029 12.5 22.0029C13.399 22.0029 14.298 21.6608 14.982 20.9767L15.561 20.3985C15.751 20.2074 16.004 20.1025 16.273 20.1025H17.088C19.023 20.1025 20.598 18.5281 20.598 16.5916V15.7773C20.598 15.5072 20.703 15.2552 20.893 15.0642L21.472 14.4849C22.135 13.8217 22.5 12.9406 22.5 12.0033C22.5 11.0661 22.135 10.1839 21.472 9.52168ZM20.058 13.0706L19.478 13.6497C18.91 14.2179 18.598 14.974 18.598 15.7773V16.5916C18.598 17.4238 17.921 18.102 17.088 18.102H16.273C15.469 18.102 14.714 18.415 14.146 18.9842L13.567 19.5623C12.978 20.1505 12.02 20.1505 11.431 19.5623L10.853 18.9842C10.285 18.416 9.52901 18.102 8.72601 18.102H7.91199C7.07899 18.102 6.40198 17.4238 6.40198 16.5916V15.7773C6.40198 14.974 6.08997 14.2179 5.52197 13.6497L4.94202 13.0706C4.65702 12.7855 4.5 12.4064 4.5 12.0033C4.5 11.6002 4.65699 11.2211 4.94299 10.936L5.52197 10.3569C6.08997 9.78871 6.40198 9.03256 6.40198 8.22934V7.41504C6.40198 6.58282 7.07999 5.90463 7.91199 5.90463H8.72601C9.53001 5.90463 10.285 5.59158 10.853 5.02243L11.432 4.44427C12.021 3.85612 12.979 3.85612 13.568 4.44427L14.146 5.02243C14.714 5.59058 15.47 5.90463 16.273 5.90463H17.088C17.921 5.90463 18.598 6.58282 18.598 7.41504V8.22934C18.598 9.03256 18.91 9.78871 19.478 10.3569L20.058 10.936C20.343 11.2211 20.5 11.6002 20.5 12.0033C20.5 12.4064 20.343 12.7855 20.058 13.0706ZM16.207 8.29528C16.598 8.68638 16.598 9.31862 16.207 9.70972L10.207 15.7113C10.012 15.9064 9.756 16.0044 9.5 16.0044C9.244 16.0044 8.98803 15.9064 8.79303 15.7113C8.40203 15.3202 8.40203 14.688 8.79303 14.2969L14.793 8.29528C15.184 7.90418 15.816 7.90418 16.207 8.29528ZM16.5 14.504C16.5 15.3322 15.828 16.0044 15 16.0044C14.172 16.0044 13.5 15.3322 13.5 14.504C13.5 13.6758 14.172 13.0036 15 13.0036C15.828 13.0036 16.5 13.6758 16.5 14.504ZM8.5 9.50263C8.5 8.67441 9.172 8.00223 10 8.00223C10.828 8.00223 11.5 8.67441 11.5 9.50263C11.5 10.3309 10.828 11.003 10 11.003C9.172 11.003 8.5 10.3309 8.5 9.50263Z" fill="black"/>
</svg>
