<svg width="25" height="24" viewBox="0 0 25 24" fill="none" xmlns="http://www.w3.org/2000/svg">
<path d="M21.12 9.86871L20.54 9.28863C20.26 9.00863 20.1 8.62857 20.1 8.22857V7.40851C20.1 5.74851 18.75 4.3985 17.09 4.3985H16.27C15.87 4.3985 15.49 4.24855 15.21 3.95855L14.63 3.37848C13.46 2.20848 11.55 2.20848 10.37 3.37848L9.78998 3.95855C9.50998 4.24855 9.12998 4.3985 8.72998 4.3985H7.90997C6.24997 4.3985 4.90002 5.74851 4.90002 7.40851V8.22857C4.90002 8.62857 4.75002 9.00863 4.46002 9.28863L3.88 9.86871C3.31 10.4387 3 11.1986 3 11.9986C3 12.7986 3.31 13.5585 3.88 14.1285L4.46002 14.7086C4.75002 14.9886 4.90002 15.3686 4.90002 15.7686V16.5887C4.90002 18.2487 6.24997 19.5987 7.90997 19.5987H8.72998C9.12998 19.5987 9.50998 19.7486 9.78998 20.0386L10.37 20.6187C10.96 21.2087 11.73 21.4986 12.5 21.4986C13.27 21.4986 14.04 21.2087 14.63 20.6187L15.21 20.0386C15.49 19.7486 15.87 19.5987 16.27 19.5987H17.09C18.75 19.5987 20.1 18.2487 20.1 16.5887V15.7686C20.1 15.3686 20.26 14.9886 20.54 14.7086L21.12 14.1285C21.69 13.5585 22 12.7986 22 11.9986C22 11.1986 21.69 10.4387 21.12 9.86871ZM10 8.24859C10.69 8.24859 11.25 8.80859 11.25 9.49859C11.25 10.1886 10.69 10.7486 10 10.7486C9.31 10.7486 8.75 10.1886 8.75 9.49859C8.75 8.80859 9.31 8.24859 10 8.24859ZM15 15.7486C14.31 15.7486 13.75 15.1886 13.75 14.4986C13.75 13.8086 14.31 13.2486 15 13.2486C15.69 13.2486 16.25 13.8086 16.25 14.4986C16.25 15.1886 15.69 15.7486 15 15.7486ZM16.21 9.70855L10.21 15.7086C10.01 15.8986 9.76 15.9986 9.5 15.9986C9.25 15.9986 8.98998 15.8986 8.78998 15.7086C8.39998 15.3186 8.39998 14.6786 8.78998 14.2886L14.79 8.28863C15.19 7.89863 15.82 7.89863 16.21 8.28863C16.6 8.67863 16.6 9.31855 16.21 9.70855Z" fill="black"/>
</svg>
