<svg width="25" height="24" viewBox="0 0 25 24" fill="none" xmlns="http://www.w3.org/2000/svg">
<path d="M8.79303 8.70703C8.40203 8.31603 8.40203 7.68397 8.79303 7.29297C9.18403 6.90197 9.81597 6.90197 10.207 7.29297L11.5 8.58606V4C11.5 3.447 11.948 3 12.5 3C13.052 3 13.5 3.447 13.5 4V8.58606L14.793 7.29297C15.184 6.90197 15.816 6.90197 16.207 7.29297C16.598 7.68397 16.598 8.31603 16.207 8.70703L13.207 11.707C13.012 11.902 12.756 12 12.5 12C12.244 12 11.988 11.902 11.793 11.707L8.79303 8.70703ZM17.5 10C16.948 10 16.5 10.447 16.5 11C16.5 11.553 16.948 12 17.5 12C19.154 12 20.5 13.346 20.5 15V16C20.5 17.654 19.154 19 17.5 19H7.5C5.846 19 4.5 17.654 4.5 16V15C4.5 13.346 5.846 12 7.5 12C8.052 12 8.5 11.553 8.5 11C8.5 10.447 8.052 10 7.5 10C4.743 10 2.5 12.243 2.5 15V16C2.5 18.757 4.743 21 7.5 21H17.5C20.257 21 22.5 18.757 22.5 16V15C22.5 12.243 20.257 10 17.5 10ZM18.5 15C18.5 14.448 18.052 14 17.5 14C16.948 14 16.5 14.448 16.5 15C16.5 15.552 16.948 16 17.5 16C18.052 16 18.5 15.552 18.5 15Z" fill="black"/>
</svg>
