<svg width="25" height="24" viewBox="0 0 25 24" fill="none" xmlns="http://www.w3.org/2000/svg">
<path d="M17.5 10.7271H16.58L14.28 13.0324C13.81 13.5135 13.18 13.7741 12.51 13.7741C11.85 13.7741 11.22 13.5135 10.75 13.0324L8.45001 10.7271H7.5C5.01 10.7271 3 12.7517 3 15.2374V16.2397C3 18.7354 5.01 20.75 7.5 20.75H17.5C19.98 20.75 22 18.7354 22 16.2397V15.2374C22 12.7517 19.98 10.7271 17.5 10.7271ZM17.5 16.4903C16.8 16.4903 16.24 15.929 16.24 15.2374C16.24 14.5458 16.8 13.9845 17.5 13.9845C18.19 13.9845 18.74 14.5458 18.74 15.2374C18.74 15.929 18.19 16.4903 17.5 16.4903ZM8.81 8.96302C8.42 8.57213 8.42 7.94077 8.81 7.54988C9 7.34942 9.26001 7.25917 9.51001 7.25917C9.77001 7.25917 10.03 7.34942 10.22 7.54988L11.51 8.84287V4.25229C11.51 3.69101 11.96 3.25 12.51 3.25C13.07 3.25 13.51 3.69101 13.51 4.25229V8.84287L14.81 7.54988C15 7.34942 15.26 7.25917 15.51 7.25917C15.77 7.25917 16.03 7.34942 16.22 7.54988C16.61 7.94077 16.61 8.57213 16.22 8.96302L13.22 11.9699C13.03 12.1704 12.77 12.2706 12.51 12.2706C12.26 12.2706 12 12.1704 11.81 11.9699L8.81 8.96302Z" fill="black"/>
</svg>
