<svg width="25" height="24" viewBox="0 0 25 24" fill="none" xmlns="http://www.w3.org/2000/svg">
<path d="M17.5 4H7.5C4.743 4 2.5 6.243 2.5 9V15C2.5 17.757 4.743 20 7.5 20H17.5C20.257 20 22.5 17.757 22.5 15V9C22.5 6.243 20.257 4 17.5 4ZM7.5 6H17.5C18.678 6 19.689 6.68798 20.18 7.67798L14.164 11.688C13.153 12.362 11.847 12.362 10.836 11.688L4.82001 7.67798C5.31101 6.68798 6.322 6 7.5 6ZM17.5 18H7.5C5.846 18 4.5 16.654 4.5 15V9.86804L9.72601 13.3521C10.569 13.9141 11.534 14.1951 12.5 14.1951C13.465 14.1951 14.431 13.9141 15.273 13.3521L20.5 9.86804V15C20.5 16.654 19.154 18 17.5 18Z" fill="black"/>
</svg>
