<svg width="25" height="24" viewBox="0 0 25 24" fill="none" xmlns="http://www.w3.org/2000/svg">
<path d="M10.86 11.71L3.69 6.62012C4.48 5.35012 5.9 4.5 7.5 4.5H17.5C19.1 4.5 20.51 5.34011 21.31 6.61011L14.16 11.6899C13.15 12.3599 11.85 12.36 10.86 11.71ZM21.98 8.6001L15.3 13.3401C14.44 13.9101 13.46 14.1899 12.49 14.1899C11.53 14.1899 10.57 13.9101 9.72998 13.3501L3.02002 8.6001C3.01002 8.7301 3 8.87 3 9V15C3 17.48 5.02 19.5 7.5 19.5H17.5C19.98 19.5 22 17.48 22 15V9C22 8.87 21.99 8.7301 21.98 8.6001Z" fill="black"/>
</svg>
