<svg width="24" height="24" viewBox="0 0 24 24" fill="none" xmlns="http://www.w3.org/2000/svg">
<path opacity="0.28" d="M15.5676 2.70594C14.7226 2.43135 13.8123 2.43135 12.9672 2.70594C12.4254 2.88196 11.9682 3.19176 11.5118 3.57923C11.0714 3.95312 10.5708 4.45369 9.96075 5.0638L7.41399 7.61056C7.02346 8.00108 7.02346 8.63425 7.41399 9.02477L14.9745 16.5852C15.3651 16.9758 15.9982 16.9758 16.3887 16.5852L18.9354 14.0386C19.5455 13.4284 20.0461 12.9279 20.42 12.4874C20.8075 12.031 21.1173 11.5738 21.2933 11.0321C21.5679 10.187 21.5679 9.27669 21.2933 8.43161C21.1173 7.88986 20.8075 7.43267 20.42 6.97625C20.0461 6.53584 19.5456 6.03529 18.9355 5.42522L18.5741 5.0638C17.964 4.45369 17.4634 3.95312 17.023 3.57923C16.5666 3.19176 16.1094 2.88196 15.5676 2.70594Z" fill="#111111"/>
<path d="M5.09328 9.93202C5.20381 9.82149 5.383 9.82149 5.49353 9.93201L13.5616 18H20.9999C21.5522 18 21.9999 18.4477 21.9999 19C21.9999 19.5523 21.5522 20 20.9999 20H6.90981C6.64944 20 6.39933 19.8985 6.21266 19.7169C5.96786 19.4789 5.69798 19.209 5.39929 18.9103L5.0638 18.5748C4.45369 17.9647 3.95312 17.4642 3.57923 17.0238C3.19176 16.5673 2.88196 16.1101 2.70594 15.5684C2.43135 14.7233 2.43135 13.813 2.70594 12.9679C2.88196 12.4262 3.19176 11.969 3.57923 11.5126C3.95312 11.0721 4.4537 10.5716 5.0638 9.96149L5.09328 9.93202Z" fill="#111111"/>
</svg>
