<svg width="25" height="24" viewBox="0 0 25 24" fill="none" xmlns="http://www.w3.org/2000/svg">
<path d="M12.5 2C6.986 2 2.5 6.486 2.5 12C2.5 17.514 6.986 22 12.5 22C18.014 22 22.5 17.514 22.5 12C22.5 6.486 18.014 2 12.5 2ZM12.5 20C8.089 20 4.5 16.411 4.5 12C4.5 7.589 8.089 4 12.5 4C16.911 4 20.5 7.589 20.5 12C20.5 16.411 16.911 20 12.5 20ZM13.5 16C13.5 16.552 13.052 17 12.5 17C11.948 17 11.5 16.552 11.5 16C11.5 15.448 11.948 15 12.5 15C13.052 15 13.5 15.448 13.5 16ZM13.5 8V12C13.5 12.553 13.052 13 12.5 13C11.948 13 11.5 12.553 11.5 12V8C11.5 7.447 11.948 7 12.5 7C13.052 7 13.5 7.447 13.5 8Z" fill="black"/>
</svg>
