<svg width="25" height="24" viewBox="0 0 25 24" fill="none" xmlns="http://www.w3.org/2000/svg">
<path d="M21.5058 10.2412C20.963 9.34425 20.0803 8.12934 18.8607 7.03934L21.1919 4.70731C21.5828 4.31631 21.5828 3.68425 21.1919 3.29325C20.801 2.90225 20.1692 2.90225 19.7784 3.29325L3.78364 19.2932C3.39277 19.6842 3.39277 20.3163 3.78364 20.7073C3.97857 20.9023 4.23449 21.0003 4.49041 21.0003C4.74632 21.0003 5.00224 20.9023 5.19717 20.7073L7.73134 18.1724C9.20086 19.0514 10.7933 19.5013 12.4888 19.5013C17.3172 19.5013 20.2063 15.9013 21.5058 13.7613C22.1556 12.6713 22.1556 11.3312 21.5058 10.2412ZM12.4888 16.5013C11.6071 16.5013 10.7974 16.2344 10.1046 15.7984L11.5771 14.3243C11.859 14.4353 12.1649 14.5013 12.4878 14.5013C13.8673 14.5013 14.9869 13.3813 14.9869 12.0013C14.9869 11.9513 14.987 11.9214 14.977 11.8714C14.837 11.9514 14.6671 12.0013 14.4871 12.0013C14.3172 12.0013 14.1652 11.9483 14.0263 11.8743L16.2875 9.61234C16.7254 10.3063 16.9863 11.1223 16.9863 12.0013C16.9873 14.4813 14.968 16.5013 12.4888 16.5013ZM4.81131 15.6214C4.32148 15.0414 3.87164 14.4113 3.48177 13.7613C2.83198 12.6713 2.83197 11.3312 3.47176 10.2412C4.77133 8.10125 7.67036 4.50126 12.4888 4.50126C13.4185 4.50126 14.3182 4.63117 15.2379 4.91117C15.4078 4.96117 15.5378 5.10128 15.5878 5.27128C15.6277 5.44128 15.5778 5.62125 15.4478 5.74125L13.5584 7.63138C13.2185 7.55138 12.8587 7.50126 12.4888 7.50126C10.0096 7.50126 7.99026 9.52126 7.99026 12.0013C7.99026 12.3713 8.03025 12.7313 8.12022 13.0813L5.55106 15.6512C5.45109 15.7512 5.33115 15.8013 5.19119 15.8013C5.19119 15.8013 5.18118 15.8013 5.17118 15.8013C5.03123 15.7913 4.90128 15.7314 4.81131 15.6214Z" fill="black"/>
</svg>
