<svg width="25" height="24" viewBox="0 0 25 24" fill="none" xmlns="http://www.w3.org/2000/svg">
<path d="M21.9385 9.98706C20.5968 7.75106 17.5857 4 12.4971 4C7.40947 4 4.3983 7.75106 3.05567 9.98706C2.31087 11.2281 2.31087 12.771 3.05567 14.012C4.3983 16.248 7.40947 19.999 12.4971 19.999C17.5857 19.999 20.5968 16.248 21.9385 14.012C22.6833 12.771 22.6833 11.2291 21.9385 9.98706ZM20.2239 12.983C19.0993 14.857 16.6009 18 12.4971 18C8.3942 18 5.89488 14.856 4.77019 12.983C4.40629 12.377 4.40629 11.623 4.77019 11.016C5.89488 9.14299 8.3942 5.99902 12.4971 5.99902C16.6009 5.99902 19.0993 9.14199 20.2239 11.016C20.5878 11.623 20.5878 12.377 20.2239 12.983ZM12.4971 7.5C10.0168 7.5 7.99831 9.519 7.99831 12C7.99831 14.481 10.0168 16.5 12.4971 16.5C14.9774 16.5 16.9958 14.481 16.9958 12C16.9958 9.519 14.9774 7.5 12.4971 7.5ZM12.4971 14.5C11.1194 14.5 9.99776 13.379 9.99776 12C9.99776 10.621 11.1194 9.5 12.4971 9.5C13.8747 9.5 14.9964 10.621 14.9964 12C14.9964 13.379 13.8747 14.5 12.4971 14.5Z" fill="black"/>
</svg>
