<svg width="25" height="24" viewBox="0 0 25 24" fill="none" xmlns="http://www.w3.org/2000/svg">
<path d="M21.5063 10.24C20.2168 8.09999 17.3379 4.5 12.4898 4.5C7.65174 4.5 4.7629 8.09999 3.4834 10.24C2.83366 11.33 2.83366 12.67 3.4834 13.75C4.7629 15.9 7.65174 19.5 12.4898 19.5C17.3379 19.5 20.2168 15.9 21.5063 13.75C21.8262 13.21 21.9961 12.61 21.9961 12C21.9961 11.39 21.8262 10.79 21.5063 10.24ZM12.4898 16.5C10.0108 16.5 7.9916 14.48 7.9916 12C7.9916 9.52 10.0108 7.5 12.4898 7.5C14.9689 7.5 16.9881 9.52 16.9881 12C16.9881 14.48 14.9689 16.5 12.4898 16.5ZM14.9789 11.8601C14.9889 11.9101 14.9888 11.95 14.9888 12C14.9888 13.38 13.8693 14.5 12.4898 14.5C11.1104 14.5 9.99082 13.38 9.99082 12C9.99082 10.62 11.1104 9.5 12.4898 9.5C13.0996 9.5 13.6594 9.72008 14.0892 10.0801C13.7393 10.2401 13.4894 10.59 13.4894 11C13.4894 11.55 13.9393 12 14.489 12C14.669 12 14.8389 11.9501 14.9789 11.8601Z" fill="black"/>
</svg>
