<svg width="25" height="24" viewBox="0 0 25 24" fill="none" xmlns="http://www.w3.org/2000/svg">
<path d="M21.9448 9.98624C21.3878 9.05824 20.4808 7.81322 19.2268 6.68522L21.2048 4.70731C21.5958 4.31731 21.5958 3.68425 21.2048 3.29325C20.8138 2.90225 20.1818 2.90225 19.7908 3.29325L9.32782 13.7563L9.3258 13.7582L3.7908 19.2932C3.3998 19.6842 3.3998 20.3163 3.7908 20.7073C3.9858 20.9023 4.2418 21.0003 4.4978 21.0003C4.7538 21.0003 5.0098 20.9023 5.2048 20.7073L7.37183 18.5402C8.95083 19.5092 10.6718 20.0003 12.4998 20.0003C17.5688 20.0003 20.5918 16.2522 21.9458 14.0142C22.6878 12.7722 22.6878 11.2302 21.9448 9.98624ZM14.9978 12.0013C14.9978 13.3803 13.8758 14.5013 12.4978 14.5013C12.1798 14.5013 11.8728 14.4382 11.5868 14.3262L14.8218 11.0912C14.9348 11.3762 14.9978 11.6833 14.9978 12.0013ZM20.2308 12.9833C19.0978 14.8573 16.5868 18.0013 12.4998 18.0013C11.2098 18.0013 9.98482 17.6843 8.84082 17.0723L10.1108 15.8023C10.8178 16.2513 11.6348 16.5013 12.4978 16.5013C14.9788 16.5013 16.9978 14.4823 16.9978 12.0013C16.9978 11.1383 16.7478 10.3213 16.2988 9.6143L17.8108 8.10221C18.9248 9.08221 19.7368 10.1912 20.2298 11.0142C20.5878 11.6132 20.5878 12.3893 20.2308 12.9833ZM4.4378 15.9462C3.9298 15.3432 3.46482 14.6952 3.05582 14.0172C2.31182 12.7722 2.3118 11.2293 3.0538 9.98832C4.4078 7.74932 7.42982 4.00126 12.4998 4.00126C13.4778 4.00126 14.4248 4.14226 15.3958 4.43326C15.9248 4.59126 16.2258 5.14928 16.0668 5.67728C15.9078 6.20628 15.3518 6.50728 14.8218 6.34928C14.0398 6.11528 13.2798 6.00126 12.4988 6.00126C8.41081 6.00126 5.89982 9.1452 4.76782 11.0192C4.41182 11.6142 4.41181 12.3893 4.76981 12.9893C5.12281 13.5733 5.52481 14.1353 5.96481 14.6563C6.32081 15.0793 6.26782 15.7102 5.84582 16.0652C5.65782 16.2242 5.4288 16.3013 5.2008 16.3013C4.9178 16.3013 4.6358 16.1802 4.4378 15.9462ZM11.7948 7.56327C12.3378 7.48627 12.8518 7.85323 12.9358 8.39823C13.0198 8.94423 12.6458 9.4562 12.1008 9.5402C11.0478 9.7032 10.1988 10.5523 10.0358 11.6043C9.95983 12.0983 9.53383 12.4523 9.04883 12.4523C8.99783 12.4523 8.94681 12.4482 8.8948 12.4402C8.3488 12.3562 7.97481 11.8452 8.05881 11.2992C8.35781 9.36323 9.85883 7.86227 11.7948 7.56327Z" fill="black"/>
</svg>
