<svg width="25" height="24" viewBox="0 0 25 24" fill="none" xmlns="http://www.w3.org/2000/svg">
<path d="M19.914 7L15.5 2.58606C15.122 2.20806 14.62 2 14.086 2H9.5C6.743 2 4.5 4.243 4.5 7V17C4.5 19.757 6.743 22 9.5 22H15.5C18.257 22 20.5 19.757 20.5 17V8.41394C20.5 7.88794 20.287 7.372 19.914 7ZM15.5 5.41394L17.086 7H17C16.173 7 15.5 6.327 15.5 5.5V5.41394ZM15.5 20H9.5C7.846 20 6.5 18.654 6.5 17V7C6.5 5.346 7.846 4 9.5 4H13.5V5.5C13.5 7.43 15.07 9 17 9H18.5V17C18.5 18.654 17.154 20 15.5 20Z" fill="black"/>
</svg>
