<svg width="25" height="24" viewBox="0 0 25 24" fill="none" xmlns="http://www.w3.org/2000/svg">
<path d="M17.5 2H7.5C4.743 2 2.5 4.243 2.5 7V17C2.5 19.757 4.743 22 7.5 22H17.5C20.257 22 22.5 19.757 22.5 17V7C22.5 4.243 20.257 2 17.5 2ZM20.5 11H18.5V9H20.5V11ZM6.5 11H4.5V9H6.5V11ZM4.5 13H6.5V15H4.5V13ZM18.5 13H20.5V15H18.5V13ZM20.5 7H18.5V4.18408C19.661 4.59808 20.5 5.698 20.5 7ZM6.5 4.18408V7H4.5C4.5 5.698 5.339 4.59808 6.5 4.18408ZM4.5 17H6.5V19.8159C5.339 19.4019 4.5 18.302 4.5 17ZM18.5 19.8159V17H20.5C20.5 18.302 19.661 19.4019 18.5 19.8159Z" fill="black"/>
</svg>
