<svg width="25" height="24" viewBox="0 0 25 24" fill="none" xmlns="http://www.w3.org/2000/svg">
<path d="M19 2H6C4.622 2 3.5 3.121 3.5 4.5V6.58606C3.5 7.11206 3.713 7.628 4.086 8L9.207 13.121C9.393 13.308 9.5 13.565 9.5 13.828V21C9.5 21.379 9.71401 21.725 10.053 21.895C10.195 21.965 10.348 22 10.5 22C10.712 22 10.923 21.933 11.1 21.8L15.1 18.8C15.352 18.612 15.5 18.315 15.5 18V13.828C15.5 13.565 15.607 13.307 15.793 13.121L20.914 8C21.287 7.628 21.5 7.11206 21.5 6.58606V4.5C21.5 3.121 20.378 2 19 2ZM6 4H19C19.276 4 19.5 4.225 19.5 4.5V6H5.5V4.5C5.5 4.225 5.724 4 6 4ZM14.379 11.707C13.812 12.273 13.5 13.027 13.5 13.828V17.5L11.5 19V13.828C11.5 13.027 11.188 12.273 10.621 11.707L6.914 8H18.086L14.379 11.707Z" fill="black"/>
</svg>
