<svg width="25" height="24" viewBox="0 0 25 24" fill="none" xmlns="http://www.w3.org/2000/svg">
<path d="M17.8415 9.48417C17.7015 9.20359 17.7015 8.86886 17.8415 8.58727L20.3945 3.47155C20.5495 3.1609 20.5325 2.7921 20.3505 2.49648C20.1685 2.20186 19.8465 2.02148 19.4995 2.02148H9.49951C6.74251 2.02148 4.49951 4.2692 4.49951 7.032V21.0194C4.49951 21.5735 4.94751 22.0215 5.49951 22.0215C6.05151 22.0215 6.49951 21.5735 6.49951 21.0194V16.0509H19.4995C19.8465 16.0509 20.1675 15.8706 20.3505 15.575C20.5335 15.2793 20.5495 14.9105 20.3945 14.5999L17.8415 9.48417ZM6.49951 14.0467V7.032C6.49951 5.37452 7.84551 4.02569 9.49951 4.02569H17.8815L16.0525 7.69135C15.6325 8.53312 15.6325 9.53931 16.0525 10.3811L17.8815 14.0467H6.49951Z" fill="black"/>
</svg>
