<svg width="25" height="24" viewBox="0 0 25 24" fill="none" xmlns="http://www.w3.org/2000/svg">
<path d="M19.9436 14.522C20.0216 14.677 20.0126 14.861 19.9216 15.008C19.8306 15.1549 19.6696 15.245 19.4966 15.245H6.99561V20.7503C6.99561 21.3031 6.54761 21.75 5.99561 21.75C5.44361 21.75 4.99561 21.3031 4.99561 20.7503V13.7525L4.99661 13.7474V6.74859C4.99661 4.26837 7.01561 2.25 9.49661 2.25H19.4966C19.6696 2.25 19.8306 2.34003 19.9216 2.48699C20.0126 2.63394 20.0216 2.81772 19.9436 2.97267L17.3906 8.07606C17.1806 8.49593 17.1806 8.99781 17.3906 9.41768L19.9436 14.522Z" fill="black"/>
</svg>
