<svg width="25" height="24" viewBox="0 0 25 24" fill="none" xmlns="http://www.w3.org/2000/svg">
<path d="M17.5 6H13.303C13.136 6 12.98 5.91698 12.887 5.77698L11.777 4.11304C11.312 3.41604 10.535 3 9.69699 3H7.5C4.743 3 2.5 5.243 2.5 8V15C2.5 17.757 4.743 20 7.5 20H17.5C20.257 20 22.5 17.757 22.5 15V11C22.5 8.243 20.257 6 17.5 6ZM20.5 15C20.5 16.654 19.154 18 17.5 18H7.5C5.846 18 4.5 16.654 4.5 15V8C4.5 6.346 5.846 5 7.5 5H9.69699C9.86399 5 10.02 5.08302 10.113 5.22302L11.223 6.88696C11.688 7.58396 12.465 8 13.303 8H17.5C19.154 8 20.5 9.346 20.5 11V15Z" fill="black"/>
</svg>
