<svg width="24" height="24" viewBox="0 0 24 24" fill="none" xmlns="http://www.w3.org/2000/svg">
<path opacity="0.28" fill-rule="evenodd" clip-rule="evenodd" d="M18.9998 9.74927C18.9998 12.7493 17.0498 14.9993 11.9998 14.9993C6.94982 14.9993 4.99982 12.7493 4.99982 9.74927C4.97512 8.70844 5.20875 7.67772 5.67982 6.74927C5.33982 5.27927 5.46982 3.46927 6.19982 3.10927C6.92982 2.74927 8.46982 3.40927 9.73982 4.25927C10.4858 4.12615 11.2421 4.05922 11.9998 4.05927C12.757 4.05262 13.5133 4.11285 14.2598 4.23927C15.5298 3.38927 17.1398 2.75927 17.7998 3.08927C18.4598 3.41927 18.6598 5.25927 18.3198 6.72927C18.7941 7.66371 19.0279 8.70171 18.9998 9.74927Z" fill="#111111"/>
<path d="M10 14.9993C9.34732 15.6987 8.98919 16.6227 9 17.5793V20.9993M14 14.9993C14.6527 15.6987 15.0108 16.6227 15 17.5793V20.9993M9 19.0493C8.10549 19.4055 7.13532 19.5294 6.18 19.4093C4.66 18.8893 5.06 17.5093 4.28 16.9393C3.90518 16.6713 3.46037 16.5184 3 16.4993M19 9.74927C19 12.7493 17.05 14.9993 12 14.9993C6.95 14.9993 5 12.7493 5 9.74927C4.9753 8.70844 5.20893 7.67772 5.68 6.74927C5.34 5.27927 5.47 3.46927 6.2 3.10927C6.93 2.74927 8.47 3.40927 9.74 4.25927C10.486 4.12615 11.2422 4.05922 12 4.05927C12.7572 4.05262 13.5134 4.11285 14.26 4.23927C15.53 3.38927 17.14 2.75927 17.8 3.08927C18.46 3.41927 18.66 5.25927 18.32 6.72927C18.7943 7.66371 19.028 8.70171 19 9.74927Z" stroke="#111111" stroke-width="2" stroke-linecap="round" stroke-linejoin="round"/>
</svg>
