<svg width="25" height="24" viewBox="0 0 25 24" fill="none" xmlns="http://www.w3.org/2000/svg">
<path d="M21.924 8.66872C20.69 5.14772 17.628 2.62975 13.931 2.09975C12.997 1.96675 12.005 1.96675 11.068 2.09975C7.37299 2.62975 4.31102 5.14779 3.08002 8.66079C2.69502 9.72479 2.5 10.8488 2.5 12.0008C2.5 13.1528 2.69499 14.2758 3.07599 15.3318C4.30999 18.8528 7.37197 21.3708 11.069 21.9008C11.536 21.9668 12.017 22.0008 12.5 22.0008C12.983 22.0008 13.464 21.9678 13.932 21.9008C17.627 21.3708 20.689 18.8527 21.92 15.3397C22.305 14.2757 22.5 13.1518 22.5 11.9998C22.5 10.8478 22.305 9.72472 21.924 8.66872ZM20.5 11.9998C20.5 12.6828 20.414 13.3518 20.243 14.0008H17.365C17.445 13.3368 17.5 12.6698 17.5 11.9998C17.5 11.3298 17.445 10.6628 17.365 10.0008H20.244C20.414 10.6468 20.5 11.3158 20.5 11.9998ZM9.65399 14.0008C9.56299 13.3388 9.5 12.6708 9.5 11.9998C9.5 11.3318 9.56199 10.6648 9.65399 10.0008H15.347C15.438 10.6628 15.501 11.3298 15.501 11.9998C15.501 12.6688 15.439 13.3358 15.347 14.0008H9.65399ZM4.75598 14.0008C4.58598 13.3538 4.5 12.6838 4.5 11.9998C4.5 11.3178 4.58598 10.6488 4.75598 10.0008H7.63501C7.55501 10.6638 7.5 11.3308 7.5 11.9998C7.5 12.6708 7.55501 13.3388 7.63501 14.0008H4.75598ZM19.409 8.00075H16.998C16.73 6.86975 16.347 5.77976 15.851 4.73476C17.345 5.42076 18.583 6.55975 19.409 8.00075ZM13.202 4.04872C13.979 5.28172 14.565 6.60175 14.945 8.00075H10.055C10.434 6.60575 11.02 5.28372 11.798 4.04872C12.032 4.02872 12.263 3.99977 12.5 3.99977C12.738 3.99977 12.969 4.02872 13.202 4.04872ZM9.14899 4.73378C8.65199 5.78078 8.26898 6.87175 8.00098 8.00075H5.58899C6.41499 6.56075 7.65399 5.42078 9.14899 4.73378ZM5.59198 16.0008H8.00201C8.27001 17.1308 8.65299 18.2208 9.14899 19.2648C7.65599 18.5798 6.41898 17.4408 5.59198 16.0008ZM11.797 19.9508C11.021 18.7178 10.435 17.3978 10.055 16.0008H14.944C14.565 17.3958 13.979 18.7168 13.202 19.9508C12.734 19.9898 12.264 19.9898 11.797 19.9508ZM15.852 19.2658C16.348 18.2198 16.731 17.1298 16.999 16.0008H19.41C18.584 17.4398 17.346 18.5788 15.852 19.2658Z" fill="black"/>
</svg>
