<svg width="25" height="24" viewBox="0 0 25 24" fill="none" xmlns="http://www.w3.org/2000/svg">
<path d="M21.924 8.6686C20.69 5.1476 17.628 2.62975 13.931 2.09975C12.997 1.96675 12.005 1.96675 11.068 2.09975C7.37299 2.62975 4.31102 5.14754 3.08002 8.66054C2.69502 9.72454 2.5 10.8486 2.5 12.0006C2.5 13.1526 2.69499 14.2757 3.07599 15.3317C4.30999 18.8527 7.37197 21.3705 11.069 21.9005C11.536 21.9665 12.017 22.0006 12.5 22.0006C12.983 22.0006 13.464 21.9675 13.932 21.9005C17.627 21.3705 20.689 18.8527 21.92 15.3397C22.305 14.2757 22.5 13.1517 22.5 11.9997C22.5 10.8477 22.305 9.7246 21.924 8.6686ZM20.5 11.9997C20.5 12.6827 20.414 13.3516 20.243 14.0006H17.365C17.445 13.3366 17.5 12.6697 17.5 11.9997C17.5 11.3297 17.445 10.6626 17.365 10.0006H20.244C20.414 10.6466 20.5 11.3157 20.5 11.9997ZM9.65399 14.0006C9.56299 13.3386 9.5 12.6697 9.5 11.9997C9.5 11.3317 9.56199 10.6646 9.65399 10.0006H15.347C15.438 10.6626 15.501 11.3297 15.501 11.9997C15.501 12.6687 15.439 13.3356 15.347 14.0006H9.65399ZM4.75598 14.0006C4.58598 13.3546 4.5 12.6837 4.5 11.9997C4.5 11.3177 4.58598 10.6486 4.75598 10.0006H7.63501C7.55501 10.6636 7.5 11.3307 7.5 11.9997C7.5 12.6707 7.55501 13.3386 7.63501 14.0006H4.75598ZM19.409 8.00063H16.998C16.73 6.86963 16.347 5.77976 15.851 4.73476C17.345 5.42076 18.583 6.55963 19.409 8.00063ZM13.202 4.04872C13.979 5.28172 14.565 6.60163 14.945 8.00063H10.055C10.434 6.60563 11.02 5.28372 11.798 4.04872C12.032 4.02872 12.263 3.99965 12.5 3.99965C12.738 3.99965 12.969 4.02872 13.202 4.04872ZM9.14899 4.73354C8.65199 5.78054 8.26898 6.87063 8.00098 8.00063H5.58899C6.41499 6.56063 7.65399 5.42054 9.14899 4.73354ZM5.59198 16.0006H8.00201C8.27001 17.1306 8.65299 18.2205 9.14899 19.2645C7.65599 18.5795 6.41898 17.4406 5.59198 16.0006ZM11.797 19.9506C11.021 18.7176 10.435 17.3976 10.055 16.0006H14.944C14.565 17.3956 13.979 18.7166 13.202 19.9506C12.734 19.9896 12.264 19.9896 11.797 19.9506ZM15.852 19.2658C16.348 18.2198 16.731 17.1296 16.999 16.0006H19.41C18.584 17.4396 17.346 18.5798 15.852 19.2658Z" fill="black"/>
</svg>
