<svg width="25" height="24" viewBox="0 0 25 24" fill="none" xmlns="http://www.w3.org/2000/svg">
<path d="M17 13C15.622 13 14.5 14.121 14.5 15.5V19.5C14.5 20.879 15.622 22 17 22C18.378 22 19.5 20.879 19.5 19.5V15.5C19.5 14.121 18.378 13 17 13ZM17.5 19.5C17.5 19.775 17.276 20 17 20C16.724 20 16.5 19.775 16.5 19.5V15.5C16.5 15.225 16.724 15 17 15C17.276 15 17.5 15.225 17.5 15.5V19.5ZM8 13C6.622 13 5.5 14.121 5.5 15.5V19.5C5.5 20.879 6.622 22 8 22C9.378 22 10.5 20.879 10.5 19.5V15.5C10.5 14.121 9.378 13 8 13ZM8.5 19.5C8.5 19.775 8.276 20 8 20C7.724 20 7.5 19.775 7.5 19.5V15.5C7.5 15.225 7.724 15 8 15C8.276 15 8.5 15.225 8.5 15.5V19.5ZM22.5 12V17C22.5 17.553 22.052 18 21.5 18C20.948 18 20.5 17.553 20.5 17V12C20.5 7.589 16.911 4 12.5 4C8.089 4 4.5 7.589 4.5 12V17C4.5 17.553 4.052 18 3.5 18C2.948 18 2.5 17.553 2.5 17V12C2.5 6.486 6.986 2 12.5 2C18.014 2 22.5 6.486 22.5 12Z" fill="black"/>
</svg>
