<svg width="25" height="24" viewBox="0 0 25 24" fill="none" xmlns="http://www.w3.org/2000/svg">
<path d="M19 15.75V19.75C19 20.853 18.103 21.75 17 21.75C15.897 21.75 15 20.853 15 19.75V15.75C15 14.647 15.897 13.75 17 13.75C18.103 13.75 19 14.647 19 15.75ZM8 13.75C6.897 13.75 6 14.647 6 15.75V19.75C6 20.853 6.897 21.75 8 21.75C9.103 21.75 10 20.853 10 19.75V15.75C10 14.647 9.103 13.75 8 13.75ZM12.5 2.25C6.986 2.25 2.5 6.736 2.5 12.25V17.25C2.5 17.803 2.948 18.25 3.5 18.25C4.052 18.25 4.5 17.803 4.5 17.25V12.25C4.5 7.839 8.089 4.25 12.5 4.25C16.911 4.25 20.5 7.839 20.5 12.25V17.25C20.5 17.803 20.948 18.25 21.5 18.25C22.052 18.25 22.5 17.803 22.5 17.25V12.25C22.5 6.736 18.014 2.25 12.5 2.25Z" fill="black"/>
</svg>
