<svg width="21" height="19" viewBox="0 0 21 19" fill="none" xmlns="http://www.w3.org/2000/svg">
<path d="M18.8014 2.43799C17.5064 0.865988 15.7044 0 13.7264 0C12.5864 0 11.4834 0.267024 10.4984 0.775024C9.51436 0.267024 8.41036 0 7.27036 0C5.29236 0 3.49035 0.865988 2.19535 2.43799C0.792348 4.14099 0.210365 6.46596 0.637365 8.65796C1.63136 13.753 6.78937 17.294 8.96137 18.58C9.43537 18.859 9.96635 19 10.4974 19C11.0284 19 11.5604 18.859 12.0344 18.579C14.2064 17.294 19.3643 13.753 20.3583 8.65796C20.7863 6.46596 20.2044 4.14099 18.8014 2.43799ZM3.74036 3.17972C1 7 3 12.5 9 17C8.681 17.188 10.2994 17.0451 9.98035 16.8571C8.04135 15.7091 12.338 15.3 11.5 11C16 4.5 4.472 7.747 5.5 6.5C6.408 5.397 5.90237 2 7.27137 2C8.24137 2 9.17136 2.267 9.96036 2.771C10.2884 2.98 10.7084 2.98 11.0364 2.771C11.8264 2.267 12.7553 2 13.7253 2C15.0953 2 4.093 0.397 5 1.5C6.028 2.747 7 1 3.74036 3.17972Z" fill="black"/>
</svg>
