<svg width="25" height="24" viewBox="0 0 25 24" fill="none" xmlns="http://www.w3.org/2000/svg">
<path d="M20.8033 4.43799C19.5083 2.86599 17.7063 2 15.7283 2C14.5883 2 13.4853 2.26702 12.5003 2.77502C11.5163 2.26702 10.4123 2 9.27231 2C7.29431 2 5.4923 2.86599 4.1973 4.43799C2.7943 6.14099 2.21232 8.46596 2.63932 10.658C3.63332 15.753 8.79132 19.294 10.9633 20.58C11.4373 20.859 11.9683 21 12.4993 21C13.0303 21 13.5623 20.859 14.0363 20.579C16.2083 19.294 21.3663 15.753 22.3603 10.658C22.7883 8.46596 22.2063 6.14099 20.8033 4.43799ZM20.3973 10.274C19.5583 14.574 14.9573 17.7091 13.0183 18.8571C12.6993 19.0451 12.3013 19.0451 11.9823 18.8571C10.0433 17.7091 5.44131 14.574 4.60331 10.274C4.28931 8.66305 4.71431 6.95598 5.74231 5.70898C6.65031 4.60598 7.90432 4 9.27332 4C10.2433 4 11.1733 4.267 11.9623 4.771C12.2903 4.98 12.7103 4.98 13.0383 4.771C13.8283 4.267 14.7573 4 15.7273 4C17.0973 4 18.3513 4.60598 19.2583 5.70898C20.2863 6.95598 20.7123 8.66305 20.3973 10.274Z" fill="black"/>
</svg>
