<svg width="25" height="24" viewBox="0 0 25 24" fill="none" xmlns="http://www.w3.org/2000/svg">
<path d="M20.635 7.11988L15.635 3.09935C13.819 1.63876 11.182 1.63876 9.36501 3.09935L4.36501 7.11988C3.18001 8.07326 2.5 9.49292 2.5 11.0135V17.0079C2.5 19.763 4.743 22.0039 7.5 22.0039H10.5V17.0069C10.5 15.9055 11.397 15.0111 12.5 15.0111C13.603 15.0111 14.5 15.9065 14.5 17.0069V22.0039H17.5C20.257 22.0039 22.5 19.763 22.5 17.0079V11.0135C22.5 9.49292 21.82 8.07326 20.635 7.11988ZM20.5 17.0079C20.5 18.6595 19.154 20.0031 17.5 20.0031H16.5V17.0069C16.5 14.803 14.706 13.0103 12.5 13.0103C10.294 13.0103 8.5 14.803 8.5 17.0069V20.0031H7.5C5.846 20.0031 4.5 18.6595 4.5 17.0079V11.0135C4.5 10.1022 4.908 9.25082 5.618 8.67959L10.618 4.65893C11.709 3.78258 13.292 3.78258 14.382 4.65893L19.382 8.67959C20.093 9.25082 20.501 10.1022 20.501 11.0135V17.0079H20.5Z" fill="black"/>
</svg>
