<svg width="24" height="24" viewBox="0 0 24 24" fill="none" xmlns="http://www.w3.org/2000/svg">
<path d="M17.0898 8.25C17.1133 8.04297 17.125 7.83594 17.125 7.625C17.125 4.51953 14.6055 2 11.5 2C8.39453 2 5.875 4.51953 5.875 7.625C5.875 7.83594 5.88672 8.04297 5.91016 8.25H5.875C4.83984 8.25 4 9.08984 4 10.125C4 11.1602 4.83984 12 5.875 12H7.96484H15.0352H17.125C18.1602 12 19 11.1602 19 10.125C19 9.08984 18.1602 8.25 17.125 8.25H17.0898ZM6.5 13.25L10.5938 21.4414C10.7656 21.7852 11.1133 22 11.5 22C11.8867 22 12.2344 21.7852 12.4062 21.4414L16.5 13.25H6.5Z" fill="black"/>
</svg>
