<svg width="25" height="24" viewBox="0 0 25 24" fill="none" xmlns="http://www.w3.org/2000/svg">
<path d="M17.5 3H7.5C4.743 3 2.5 5.243 2.5 8V16C2.5 18.757 4.743 21 7.5 21H17.5C20.257 21 22.5 18.757 22.5 16V8C22.5 5.243 20.257 3 17.5 3ZM7.5 5H17.5C19.154 5 20.5 6.346 20.5 8V12.5859L16.917 9.00293C16.136 8.22193 14.864 8.22193 14.083 9.00293L9.5 13.5859L8.91701 13.0029C8.13601 12.2219 6.86399 12.2219 6.08299 13.0029L4.5 14.5859V8C4.5 6.346 5.846 5 7.5 5ZM7 9C7 8.172 7.672 7.5 8.5 7.5C9.328 7.5 10 8.172 10 9C10 9.828 9.328 10.5 8.5 10.5C7.672 10.5 7 9.828 7 9Z" fill="black"/>
</svg>
