<svg width="25" height="24" viewBox="0 0 25 24" fill="none" xmlns="http://www.w3.org/2000/svg">
<path d="M17.5005 3H7.50049C4.74349 3 2.50049 5.243 2.50049 8V16C2.50049 16.405 2.56148 16.7919 2.65248 17.1689C2.66648 17.2179 2.67549 17.265 2.69649 17.312C3.27749 19.43 5.19948 21 7.49948 21H17.4995C20.2565 21 22.4995 18.757 22.4995 16V8C22.5005 5.243 20.2575 3 17.5005 3ZM7.50049 5H17.5005C19.1545 5 20.5005 6.346 20.5005 8V12.5859L16.9175 9.00195C16.1365 8.22295 14.8655 8.22193 14.0845 9.00293L9.5015 13.5859L8.91849 13.002C8.13749 12.223 6.8665 12.2219 6.08549 13.0029L4.50249 14.5859V8C4.50049 6.346 5.84649 5 7.50049 5ZM17.5005 19H7.50049C6.26349 19 5.19949 18.247 4.74149 17.175L7.50349 14.417L8.44449 15.3579C9.02749 15.9389 9.9755 15.9399 10.5575 15.3569L15.5035 10.417L20.5005 15.4141V16C20.5005 17.654 19.1545 19 17.5005 19ZM7.00049 9C7.00049 8.172 7.67249 7.5 8.50049 7.5C9.32849 7.5 10.0005 8.172 10.0005 9C10.0005 9.828 9.32849 10.5 8.50049 10.5C7.67249 10.5 7.00049 9.828 7.00049 9Z" fill="black"/>
</svg>
