<svg width="25" height="24" viewBox="0 0 25 24" fill="none" xmlns="http://www.w3.org/2000/svg">
<path d="M7.5 10.001C7.5 9.44798 7.948 9.00098 8.5 9.00098H16.5C17.052 9.00098 17.5 9.44798 17.5 10.001C17.5 10.554 17.052 11.001 16.5 11.001H8.5C7.948 11.001 7.5 10.554 7.5 10.001ZM9.5 8.00098H15.5C16.052 8.00098 16.5 7.55398 16.5 7.00098C16.5 6.44798 16.052 6.00098 15.5 6.00098H9.5C8.948 6.00098 8.5 6.44798 8.5 7.00098C8.5 7.55398 8.948 8.00098 9.5 8.00098ZM22.5 13.488V16.001C22.5 18.758 20.257 21.001 17.5 21.001H7.5C4.743 21.001 2.5 18.758 2.5 16.001V13.488C2.5 13.056 2.56902 12.6299 2.70502 12.2219L4.64001 6.41895C5.32201 4.37395 7.228 3 9.383 3H15.617C17.772 3 19.679 4.37395 20.36 6.41895L22.295 12.2219C22.431 12.6299 22.5 13.057 22.5 13.488ZM4.88702 12.001H9.5C10.052 12.001 10.5 12.448 10.5 13.001C10.5 14.104 11.397 15.001 12.5 15.001C13.603 15.001 14.5 14.104 14.5 13.001C14.5 12.448 14.948 12.001 15.5 12.001H20.113L18.463 7.05298C18.054 5.82498 16.91 5.00098 15.617 5.00098H9.383C8.09 5.00098 6.94599 5.82498 6.53699 7.05298L4.88702 12.001ZM20.5 16.001V14.001H16.374C15.929 15.725 14.361 17.001 12.5 17.001C10.639 17.001 9.07198 15.725 8.62598 14.001H4.5V16.001C4.5 17.655 5.846 19.001 7.5 19.001H17.5C19.154 19.001 20.5 17.655 20.5 16.001Z" fill="black"/>
</svg>
