<svg width="25" height="24" viewBox="0 0 25 24" fill="none" xmlns="http://www.w3.org/2000/svg">
<path d="M7.75 10.251C7.75 9.83698 8.086 9.50098 8.5 9.50098H16.5C16.914 9.50098 17.25 9.83698 17.25 10.251C17.25 10.665 16.914 11.001 16.5 11.001H8.5C8.086 11.001 7.75 10.665 7.75 10.251ZM9.5 8.00098H15.5C15.914 8.00098 16.25 7.66498 16.25 7.25098C16.25 6.83698 15.914 6.50098 15.5 6.50098H9.5C9.086 6.50098 8.75 6.83698 8.75 7.25098C8.75 7.66498 9.086 8.00098 9.5 8.00098ZM22.5 13.738V16.251C22.5 18.732 20.481 20.751 18 20.751H7C4.519 20.751 2.5 18.732 2.5 16.251V13.738C2.5 13.306 2.56902 12.8799 2.70502 12.4719L4.64001 6.66895C5.32201 4.62395 7.228 3.25 9.383 3.25H15.617C17.772 3.25 19.679 4.62395 20.36 6.66895L22.295 12.4719C22.431 12.8799 22.5 13.307 22.5 13.738ZM4.72101 12.751H9.5C9.776 12.751 10 12.975 10 13.251C10 14.63 11.122 15.751 12.5 15.751C13.878 15.751 15 14.63 15 13.251C15 12.975 15.224 12.751 15.5 12.751H20.279L18.463 7.30298C18.054 6.07498 16.91 5.25098 15.617 5.25098H9.383C8.09 5.25098 6.94599 6.07498 6.53699 7.30298L4.72101 12.751Z" fill="black"/>
</svg>
