<svg width="24" height="24" viewBox="0 0 24 24" fill="none" xmlns="http://www.w3.org/2000/svg">
<g opacity="0.28">
<path d="M16.4172 2.00004C16.0365 1.99974 15.7086 1.99948 15.4158 2.05773C14.2257 2.29445 13.2954 3.22474 13.0587 4.41482C12.9879 4.77079 13.0009 5.13896 13.001 5.50009C13.0009 5.86121 12.9879 6.22939 13.0587 6.58536C13.2954 7.77543 14.2257 8.70572 15.4158 8.94244C15.7086 9.0007 16.0365 9.00043 16.4172 9.00013H18.5849C18.9656 9.00043 19.2935 9.0007 19.5863 8.94244C20.7764 8.70572 21.7067 7.77543 21.9434 6.58536C22.0142 6.22939 22.0012 5.86121 22.001 5.50009C22.0012 5.13896 22.0142 4.77078 21.9434 4.41482C21.7067 3.22474 20.7764 2.29445 19.5863 2.05773C19.2935 1.99948 18.9656 1.99974 18.5849 2.00004H16.4172Z" fill="#111111"/>
<path d="M17.1625 11.0001C16.6354 11.0001 16.1806 11.0001 15.806 11.0307C15.4107 11.063 15.0175 11.1343 14.6391 11.3271C14.0746 11.6147 13.6156 12.0736 13.328 12.6381C13.1352 13.0165 13.0639 13.4097 13.0316 13.8051C13.001 14.1796 13.001 14.6344 13.001 15.1615V17.8386C13.001 18.3658 13.001 18.8205 13.0316 19.1951C13.0639 19.5905 13.1352 19.9837 13.328 20.3621C13.6156 20.9265 14.0746 21.3855 14.6391 21.6731C15.0175 21.8659 15.4107 21.9372 15.806 21.9695C16.1806 22.0001 16.6353 22.0001 17.1625 22.0001H17.8396C18.3668 22.0001 18.8215 22.0001 19.1961 21.9695C19.5914 21.9372 19.9846 21.8659 20.363 21.6731C20.9275 21.3855 21.3864 20.9265 21.6741 20.3621C21.8669 19.9837 21.9382 19.5905 21.9705 19.1951C22.0011 18.8205 22.0011 18.3658 22.001 17.8387V15.1615C22.0011 14.6344 22.0011 14.1796 21.9705 13.8051C21.9382 13.4097 21.8669 13.0165 21.6741 12.6381C21.3864 12.0736 20.9275 11.6147 20.363 11.3271C19.9846 11.1343 19.5914 11.063 19.1961 11.0307C18.8215 11.0001 18.3668 11.0001 17.8396 11.0001H17.1625Z" fill="#111111"/>
</g>
<path d="M4.80497 2.03062C4.40963 2.06292 4.01641 2.13423 3.63803 2.32703C3.07354 2.61465 2.6146 3.07359 2.32698 3.63808C2.13419 4.01646 2.06287 4.40968 2.03057 4.80502C1.99997 5.17958 1.99998 5.63433 2 6.16146V17.8386C1.99998 18.3657 1.99997 18.8205 2.03057 19.1951C2.06287 19.5904 2.13419 19.9836 2.32698 20.362C2.6146 20.9265 3.07355 21.3854 3.63803 21.6731C4.01641 21.8659 4.40963 21.9372 4.80497 21.9695C5.36804 22.0155 5.93547 22 6.5 22C7.06454 22 7.63196 22.0155 8.19503 21.9695C8.59038 21.9372 8.98359 21.8659 9.36197 21.6731C9.92646 21.3854 10.3854 20.9265 10.673 20.362C10.8658 19.9836 10.9371 19.5904 10.9694 19.1951C11 18.8205 11 18.3657 11 17.8386V6.16153C11 5.63438 11 5.17959 10.9694 4.80502C10.9371 4.40968 10.8658 4.01646 10.673 3.63808C10.3854 3.07359 9.92646 2.61465 9.36197 2.32703C8.98359 2.13423 8.59038 2.06292 8.19503 2.03062C7.63197 1.98461 7.06454 2.00005 6.5 2.00005C5.93547 2.00005 5.36804 1.98461 4.80497 2.03062Z" fill="#111111"/>
</svg>
