<svg width="24" height="24" viewBox="0 0 24 24" fill="none" xmlns="http://www.w3.org/2000/svg">
<path d="M2.00004 7.58251C1.99974 7.9632 1.99948 8.29104 2.05773 8.58389C2.29445 9.77397 3.22474 10.7043 4.41482 10.941C4.70767 10.9992 5.03551 10.999 5.4162 10.9987L5.50009 10.9986L5.58397 10.9987C5.96467 10.999 6.2925 10.9992 6.58536 10.941C7.77543 10.7043 8.70572 9.77397 8.94244 8.58389C9.0007 8.29104 9.00043 7.96321 9.00013 7.58251V5.41474C9.00043 5.03404 9.0007 4.70621 8.94244 4.41335C8.70572 3.22328 7.77543 2.29299 6.58536 2.05627C6.29252 1.99802 5.9647 1.99828 5.58402 1.99858L5.50009 1.99862L5.41619 1.99858C5.03551 1.99828 4.70766 1.99802 4.41482 2.05627C3.22474 2.29299 2.29445 3.22328 2.05773 4.41335C1.99948 4.70621 1.99974 5.03404 2.00004 5.41474V7.58251Z" fill="#111111"/>
<path d="M2.00009 17.8372C2.00007 18.3643 2.00005 18.8191 2.03066 19.1937C2.06296 19.589 2.13427 19.9822 2.32707 20.3606C2.61469 20.9251 3.07363 21.384 3.63812 21.6716C4.0165 21.8644 4.40971 21.9358 4.80506 21.9681C5.17962 21.9987 5.63437 21.9986 6.1615 21.9986H17.8386C18.3658 21.9986 18.8206 21.9987 19.1951 21.9681C19.5905 21.9358 19.9837 21.8644 20.3621 21.6716C20.9265 21.384 21.3855 20.9251 21.6731 20.3606C21.8659 19.9822 21.9372 19.589 21.9695 19.1937C22.0001 18.8191 22.0001 18.3643 22.0001 17.8372V17.1601C22.0001 16.6329 22.0001 16.1782 21.9695 15.8036C21.9372 15.4083 21.8659 15.015 21.6731 14.6367C21.3855 14.0722 20.9265 13.6132 20.3621 13.3256C19.9837 13.1328 19.5905 13.0615 19.1951 13.0292C18.8205 12.9986 18.3658 12.9986 17.8386 12.9986H6.16157C5.63442 12.9986 5.17963 12.9986 4.80506 13.0292C4.40971 13.0615 4.0165 13.1328 3.63812 13.3256C3.07363 13.6132 2.61469 14.0722 2.32707 14.6367C2.13427 15.015 2.06296 15.4083 2.03066 15.8036C2.00005 16.1782 2.00007 16.6329 2.00009 17.1601L2.00009 17.8372Z" fill="#111111"/>
<path d="M11.0001 6.83717C11.0001 7.36431 11.0001 7.81909 11.0307 8.19365C11.063 8.589 11.1343 8.98222 11.3271 9.3606C11.6147 9.92508 12.0736 10.384 12.6381 10.6716C13.0165 10.8644 13.4097 10.9358 13.8051 10.9681C14.1796 10.9987 14.6344 10.9986 15.1615 10.9986H17.8386C18.3658 10.9986 18.8205 10.9987 19.1951 10.9681C19.5905 10.9358 19.9837 10.8644 20.3621 10.6716C20.9265 10.384 21.3855 9.92508 21.6731 9.3606C21.8659 8.98222 21.9372 8.589 21.9695 8.19365C22.0001 7.81909 22.0001 7.36433 22.0001 6.83719V6.16006C22.0001 5.63292 22.0001 5.17816 21.9695 4.8036C21.9372 4.40825 21.8659 4.01503 21.6731 3.63665C21.3855 3.07217 20.9265 2.61322 20.3621 2.3256C19.9837 2.13281 19.5905 2.06149 19.1951 2.02919C18.8205 1.99859 18.3658 1.9986 17.8387 1.99862H15.1615C14.6344 1.9986 14.1796 1.99859 13.8051 2.02919C13.4097 2.06149 13.0165 2.13281 12.6381 2.3256C12.0736 2.61322 11.6147 3.07216 11.3271 3.63665C11.1343 4.01503 11.063 4.40825 11.0307 4.8036C11.0001 5.17816 11.0001 5.63292 11.0001 6.16006V6.83717Z" fill="#111111"/>
</svg>
