<svg width="25" height="24" viewBox="0 0 25 24" fill="none" xmlns="http://www.w3.org/2000/svg">
<path d="M21.0551 10.468L19.2151 12.308C18.8239 12.699 18.1915 12.699 17.8003 12.308C17.4091 11.917 17.4091 11.2849 17.8003 10.8939L19.6403 9.05396C20.794 7.89995 20.794 6.02292 19.6403 4.86792C18.5217 3.74892 16.5716 3.74892 15.454 4.86792L12.0931 8.22693C11.975 8.34493 11.8849 8.45297 11.8259 8.54297C10.9274 9.76697 11.0545 11.374 12.0941 12.413C12.4843 12.804 12.4843 13.437 12.0941 13.827C11.8989 14.022 11.6428 14.1199 11.3867 14.1199C11.1305 14.1199 10.8744 14.022 10.6783 13.827C8.93528 12.084 8.72618 9.38398 10.18 7.40698C10.2831 7.24598 10.4561 7.03499 10.6772 6.81299L14.0392 3.453C14.9757 2.516 16.2224 2 17.5472 2C18.8719 2 20.1186 2.517 21.0562 3.453C22.9893 5.388 22.9892 8.53402 21.0551 10.468ZM12.9186 10.174C12.5273 10.5649 12.5273 11.197 12.9186 11.588C13.736 12.405 14.0032 13.584 13.6069 14.686C13.4759 15.079 13.2377 15.4559 12.9186 15.7749L9.55764 19.134C8.44 20.253 6.48987 20.253 5.37124 19.134C4.21758 17.98 4.21758 16.103 5.37124 14.948L7.21127 13.108C7.6025 12.717 7.6025 12.085 7.21127 11.694C6.82005 11.303 6.18769 11.303 5.79647 11.694L3.95643 13.5339C2.02233 15.4679 2.02233 18.6141 3.95643 20.5481C4.89397 21.4851 6.13969 22.001 7.46545 22.001C8.7912 22.001 10.0369 21.4841 10.9734 20.5481L14.3343 17.189C14.8726 16.65 15.2779 16.0031 15.498 15.3401C16.1414 13.5521 15.6851 11.525 14.3334 10.174C13.9431 9.78295 13.3088 9.78295 12.9186 10.174Z" fill="black"/>
</svg>
