<svg width="25" height="24" viewBox="0 0 25 24" fill="none" xmlns="http://www.w3.org/2000/svg">
<path d="M13.5 21C13.5 21.553 13.052 22 12.5 22H8.5C5.743 22 3.5 19.757 3.5 17V7C3.5 4.243 5.743 2 8.5 2H12.5C13.052 2 13.5 2.447 13.5 3C13.5 3.553 13.052 4 12.5 4H8.5C6.846 4 5.5 5.346 5.5 7V17C5.5 18.654 6.846 20 8.5 20H12.5C13.053 20 13.5 20.447 13.5 21ZM21.207 11.293L17.207 7.29297C16.816 6.90197 16.184 6.90197 15.793 7.29297C15.402 7.68397 15.402 8.31603 15.793 8.70703L18.086 11H10.5C9.948 11 9.5 11.447 9.5 12C9.5 12.553 9.948 13 10.5 13H18.086L15.793 15.293C15.402 15.684 15.402 16.316 15.793 16.707C15.988 16.902 16.244 17 16.5 17C16.756 17 17.012 16.902 17.207 16.707L21.207 12.707C21.598 12.316 21.598 11.683 21.207 11.293Z" fill="black"/>
</svg>
