<svg width="25" height="24" viewBox="0 0 25 24" fill="none" xmlns="http://www.w3.org/2000/svg">
<path d="M13.501 21C13.501 21.553 13.053 22 12.501 22H8.50098C5.74398 22 3.50098 19.757 3.50098 17V7C3.50098 4.243 5.74398 2 8.50098 2H12.501C13.053 2 13.501 2.447 13.501 3C13.501 3.553 13.053 4 12.501 4H8.50098C6.84698 4 5.50098 5.346 5.50098 7V17C5.50098 18.654 6.84698 20 8.50098 20H12.501C13.053 20 13.501 20.447 13.501 21ZM21.423 12.382C21.524 12.138 21.524 11.862 21.423 11.618C21.372 11.495 21.299 11.385 21.206 11.292L17.207 7.29297C16.816 6.90197 16.184 6.90197 15.793 7.29297C15.402 7.68397 15.402 8.31603 15.793 8.70703L18.086 11H10.5C9.94797 11 9.49997 11.447 9.49997 12C9.49997 12.553 9.94797 13 10.5 13H18.086L15.793 15.293C15.402 15.684 15.402 16.316 15.793 16.707C15.988 16.902 16.244 17 16.5 17C16.756 17 17.012 16.902 17.207 16.707L21.206 12.708C21.299 12.615 21.373 12.505 21.423 12.382Z" fill="black"/>
</svg>
