<svg width="25" height="24" viewBox="0 0 25 24" fill="none" xmlns="http://www.w3.org/2000/svg">
<path d="M21.5 7V17C21.5 19.757 19.257 22 16.5 22H12.5C11.948 22 11.5 21.553 11.5 21C11.5 20.447 11.948 20 12.5 20H16.5C18.154 20 19.5 18.654 19.5 17V7C19.5 5.346 18.154 4 16.5 4H12.5C11.948 4 11.5 3.553 11.5 3C11.5 2.447 11.948 2 12.5 2H16.5C19.257 2 21.5 4.243 21.5 7ZM15.207 11.293L11.207 7.29297C10.816 6.90197 10.184 6.90197 9.793 7.29297C9.402 7.68397 9.402 8.31603 9.793 8.70703L12.086 11H4.5C3.948 11 3.5 11.447 3.5 12C3.5 12.553 3.948 13 4.5 13H12.086L9.793 15.293C9.402 15.684 9.402 16.316 9.793 16.707C9.988 16.902 10.244 17 10.5 17C10.756 17 11.012 16.902 11.207 16.707L15.207 12.707C15.598 12.316 15.598 11.683 15.207 11.293Z" fill="black"/>
</svg>
