<svg width="25" height="24" viewBox="0 0 25 24" fill="none" xmlns="http://www.w3.org/2000/svg">
<path d="M12.5005 6C10.2945 6 8.50049 7.794 8.50049 10C8.50049 12.206 10.2945 14 12.5005 14C14.7065 14 16.5005 12.206 16.5005 10C16.5005 7.794 14.7065 6 12.5005 6ZM12.5005 12C11.3975 12 10.5005 11.103 10.5005 10C10.5005 8.897 11.3975 8 12.5005 8C13.6035 8 14.5005 8.897 14.5005 10C14.5005 11.103 13.6035 12 12.5005 12ZM12.4965 2C7.93749 2 4.50049 5.439 4.50049 10C4.50049 16.326 9.31248 20.26 11.3815 21.657C11.7195 21.886 12.1085 22.001 12.4965 22.001C12.8835 22.001 13.2705 21.8869 13.6085 21.6589C15.6805 20.2599 20.4995 16.324 20.4995 10C20.5005 5.439 17.0595 2 12.4965 2ZM12.5015 20C10.6975 18.781 6.50049 15.367 6.50049 10C6.50049 6.523 9.02149 4 12.4965 4C15.9195 4 18.5005 6.579 18.5005 10C18.5005 15.364 14.2975 18.781 12.5015 20Z" fill="black"/>
</svg>
