<svg width="24" height="24" viewBox="0 0 24 24" fill="none" xmlns="http://www.w3.org/2000/svg">
<path d="M9 4.23582V17.2358M15 6.7637V19.7637M10.4311 4.71531L13.5836 6.29157C14.0939 6.54673 14.3491 6.67431 14.6163 6.72654C14.8697 6.77609 15.1303 6.77609 15.3837 6.72654C15.6509 6.67431 15.9061 6.54673 16.4164 6.29157C17.9073 5.54614 18.6527 5.17342 19.2593 5.25271C19.8278 5.32704 20.3371 5.6418 20.6578 6.11707C21 6.62413 21 7.45755 21 9.12438V15.0221C21 15.74 21 16.0989 20.8907 16.4158C20.794 16.6961 20.6363 16.9514 20.4288 17.1631C20.1943 17.4026 19.8732 17.5632 19.2311 17.8842L16.4311 19.2842C15.9064 19.5466 15.644 19.6778 15.3688 19.7294C15.1251 19.7751 14.8749 19.7751 14.6312 19.7294C14.356 19.6778 14.0936 19.5466 13.5689 19.2842L10.4164 17.708C9.90609 17.4528 9.65092 17.3252 9.38374 17.273C9.13031 17.2235 8.86969 17.2235 8.61626 17.273C8.34908 17.3252 8.09391 17.4528 7.58359 17.708C6.09273 18.4534 5.34729 18.8261 4.74074 18.7468C4.17221 18.6725 3.66292 18.3577 3.34218 17.8825C3 17.3754 3 16.542 3 14.8752V8.97748C3 8.25957 3 7.90061 3.10931 7.5837C3.20597 7.30345 3.36373 7.04819 3.57116 6.8364C3.80573 6.59691 4.12679 6.43638 4.76892 6.11531L7.56892 4.71531C8.09365 4.45295 8.35601 4.32177 8.6312 4.27014C8.87494 4.22441 9.12506 4.22441 9.3688 4.27014C9.64399 4.32177 9.90635 4.45295 10.4311 4.71531Z" stroke="#111111" stroke-width="2" stroke-linecap="round" stroke-linejoin="round"/>
</svg>
