<svg width="25" height="24" viewBox="0 0 25 24" fill="none" xmlns="http://www.w3.org/2000/svg">
<path d="M7 7.5C7 4.468 9.467 2 12.5 2C15.533 2 18 4.468 18 7.5C18 10.19 16.056 12.4321 13.5 12.9041V17C13.5 17.553 13.052 18 12.5 18C11.948 18 11.5 17.553 11.5 17V12.9041C8.944 12.4321 7 10.19 7 7.5ZM15.698 14.3101C15.16 14.1991 14.629 14.55 14.52 15.092C14.41 15.633 14.76 16.161 15.302 16.271C17.484 16.712 18.5 17.564 18.5 18C18.5 18.705 16.222 20 12.5 20C8.778 20 6.5 18.705 6.5 18C6.5 17.563 7.517 16.712 9.698 16.271C10.24 16.162 10.59 15.633 10.48 15.092C10.371 14.551 9.843 14.1981 9.302 14.3101C6.295 14.9181 4.5 16.298 4.5 18C4.5 20.626 8.524 22 12.5 22C16.476 22 20.5 20.626 20.5 18C20.5 16.298 18.705 14.9181 15.698 14.3101Z" fill="black"/>
</svg>
