<svg width="25" height="24" viewBox="0 0 25 24" fill="none" xmlns="http://www.w3.org/2000/svg">
<path d="M11.5 12.9041V17C11.5 17.553 11.948 18 12.5 18C13.052 18 13.5 17.553 13.5 17V12.9041C16.056 12.4321 18 10.19 18 7.5C18 4.468 15.533 2 12.5 2C9.467 2 7 4.468 7 7.5C7 10.19 8.944 12.4321 11.5 12.9041ZM12.5 4C14.43 4 16 5.57 16 7.5C16 9.43 14.43 11 12.5 11C10.57 11 9 9.43 9 7.5C9 5.57 10.57 4 12.5 4ZM20.5 18C20.5 20.626 16.476 22 12.5 22C8.524 22 4.5 20.626 4.5 18C4.5 16.298 6.295 14.9181 9.302 14.3101C9.844 14.1981 10.371 14.551 10.48 15.092C10.59 15.633 10.24 16.161 9.698 16.271C7.516 16.712 6.5 17.564 6.5 18C6.5 18.705 8.778 20 12.5 20C16.222 20 18.5 18.705 18.5 18C18.5 17.563 17.483 16.712 15.302 16.271C14.76 16.162 14.41 15.633 14.52 15.092C14.629 14.55 15.16 14.1981 15.698 14.3101C18.705 14.9181 20.5 16.298 20.5 18Z" fill="black"/>
</svg>
