<svg width="25" height="24" viewBox="0 0 25 24" fill="none" xmlns="http://www.w3.org/2000/svg">
<path d="M8.38 2.77482C8.5 2.71486 8.62 2.66498 8.75 2.625V19.1064L6.62 20.1957C5.85 20.5955 4.96 20.5557 4.22 20.1059C3.46 19.6461 3 18.8264 3 17.9168V7.74221C3 6.38292 3.73999 5.1536 4.92999 4.54392L8.38 2.77482ZM10.25 2.625V19.1064L14.38 21.2252C14.5 21.2851 14.62 21.335 14.75 21.375V4.89359L10.62 2.77482C10.5 2.71486 10.38 2.66498 10.25 2.625ZM20.78 3.89411C20.04 3.44435 19.15 3.41452 18.38 3.80432L16.25 4.89359V21.375C16.38 21.335 16.5 21.2851 16.62 21.2252L20.07 19.4561C21.26 18.8464 22 17.6171 22 16.2578V6.08316C22 5.17363 21.54 4.35387 20.78 3.89411Z" fill="black"/>
</svg>
