<svg width="25" height="24" viewBox="0 0 25 24" fill="none" xmlns="http://www.w3.org/2000/svg">
<path d="M14.5 10C14.5 11.1 13.6 12 12.5 12C11.4 12 10.5 11.1 10.5 10C10.5 8.9 11.4 8 12.5 8C13.6 8 14.5 8.9 14.5 10ZM20 10C20 16.08 15.33 19.89 13.33 21.24C13.08 21.42 12.79 21.5 12.5 21.5C12.21 21.5 11.92 21.42 11.66 21.24C9.66 19.89 5 16.09 5 10C5 5.72 8.22 2.5 12.5 2.5C16.77 2.5 20 5.72 20 10ZM16.5 10C16.5 7.79 14.71 6 12.5 6C10.29 6 8.5 7.79 8.5 10C8.5 12.21 10.29 14 12.5 14C14.71 14 16.5 12.21 16.5 10Z" fill="black"/>
</svg>
