<svg width="25" height="24" viewBox="0 0 25 24" fill="none" xmlns="http://www.w3.org/2000/svg">
<path d="M21.0435 3.46008C20.1555 2.91908 19.0735 2.878 18.1495 3.354L15.9385 4.48901C15.6605 4.63201 15.3405 4.63201 15.0625 4.48901L10.8515 2.32703C10.4345 2.11303 9.97753 2.00703 9.51953 2.00403C9.51253 2.00403 9.50752 2 9.50052 2C9.49352 2 9.48854 2.00403 9.48154 2.00403C9.02354 2.00703 8.56653 2.11303 8.14853 2.32703L4.70154 4.09802C3.34354 4.79502 2.49951 6.19204 2.49951 7.74304V17.9199C2.49951 19.0029 3.04452 19.982 3.95752 20.54C4.84552 21.081 5.92653 21.122 6.85153 20.646L9.06253 19.511C9.34053 19.368 9.66054 19.368 9.93854 19.511L14.1495 21.6731C14.5685 21.8881 15.0285 21.996 15.4885 21.998C15.4925 21.998 15.4965 22 15.5005 22C15.5045 22 15.5085 21.998 15.5125 21.998C15.9725 21.996 16.4325 21.8881 16.8515 21.6731L20.2985 19.9021C21.6565 19.2051 22.5005 17.8081 22.5005 16.2571V6.08008C22.5015 4.99708 21.9565 4.01808 21.0435 3.46008ZM5.93951 18.865C5.50651 19.087 5.13953 18.9151 5.00153 18.8311C4.68953 18.6401 4.50153 18.299 4.50153 17.918V7.74097C4.50153 6.94297 4.92852 6.22798 5.61652 5.87598L8.50153 4.39404V17.6001C8.38453 17.6421 8.26251 17.672 8.15051 17.73L5.93951 18.865ZM10.8525 17.73C10.7405 17.672 10.6185 17.6431 10.5015 17.6001V4.39307L14.1505 6.26697C14.2625 6.32497 14.3845 6.35397 14.5015 6.39697V19.604L10.8525 17.73ZM20.5015 16.2571C20.5015 17.0551 20.0745 17.7701 19.3865 18.1221L16.5015 19.604V6.39697C16.6185 6.35497 16.7405 6.32497 16.8525 6.26697L19.0635 5.13208C19.4955 4.90908 19.8635 5.08202 20.0015 5.16602C20.3135 5.35702 20.5015 5.69798 20.5015 6.07898V16.2571Z" fill="black"/>
</svg>
