<svg width="25" height="24" viewBox="0 0 25 24" fill="none" xmlns="http://www.w3.org/2000/svg">
<path d="M2.5 5C2.5 4.447 2.948 4 3.5 4H16.5C17.052 4 17.5 4.447 17.5 5C17.5 5.553 17.052 6 16.5 6H3.5C2.948 6 2.5 5.553 2.5 5ZM21.5 11H3.5C2.948 11 2.5 11.447 2.5 12C2.5 12.553 2.948 13 3.5 13H21.5C22.052 13 22.5 12.553 22.5 12C22.5 11.447 22.052 11 21.5 11ZM12.5 18H3.5C2.948 18 2.5 18.447 2.5 19C2.5 19.553 2.948 20 3.5 20H12.5C13.052 20 13.5 19.553 13.5 19C13.5 18.447 13.052 18 12.5 18Z" fill="black"/>
</svg>
