<svg width="25" height="24" viewBox="0 0 25 24" fill="none" xmlns="http://www.w3.org/2000/svg">
<path d="M8 10.75V6.75C8 4.269 10.019 2.25 12.5 2.25C14.981 2.25 17 4.269 17 6.75V10.75C17 13.231 14.981 15.25 12.5 15.25C10.019 15.25 8 13.231 8 10.75ZM20.5 10.75C20.5 10.197 20.052 9.75 19.5 9.75C18.948 9.75 18.5 10.197 18.5 10.75C18.5 14.059 15.809 16.75 12.5 16.75C9.191 16.75 6.5 14.059 6.5 10.75C6.5 10.197 6.052 9.75 5.5 9.75C4.948 9.75 4.5 10.197 4.5 10.75C4.5 14.822 7.56 18.1859 11.5 18.6809V19.75H8.5C7.948 19.75 7.5 20.197 7.5 20.75C7.5 21.303 7.948 21.75 8.5 21.75H16.5C17.052 21.75 17.5 21.303 17.5 20.75C17.5 20.197 17.052 19.75 16.5 19.75H13.5V18.6809C17.44 18.1859 20.5 14.822 20.5 10.75Z" fill="black"/>
</svg>
