<svg width="25" height="24" viewBox="0 0 25 24" fill="none" xmlns="http://www.w3.org/2000/svg">
<path d="M12.5 16C15.257 16 17.5 13.757 17.5 11V7C17.5 4.243 15.257 2 12.5 2C9.743 2 7.5 4.243 7.5 7V11C7.5 13.757 9.743 16 12.5 16ZM9.5 7C9.5 5.346 10.846 4 12.5 4C14.154 4 15.5 5.346 15.5 7V11C15.5 12.654 14.154 14 12.5 14C10.846 14 9.5 12.654 9.5 11V7ZM13.5 18.9309V20H16.5C17.052 20 17.5 20.447 17.5 21C17.5 21.553 17.052 22 16.5 22H8.5C7.948 22 7.5 21.553 7.5 21C7.5 20.447 7.948 20 8.5 20H11.5V18.9309C7.56 18.4359 4.5 15.072 4.5 11C4.5 10.447 4.948 10 5.5 10C6.052 10 6.5 10.447 6.5 11C6.5 14.309 9.191 17 12.5 17C15.809 17 18.5 14.309 18.5 11C18.5 10.447 18.948 10 19.5 10C20.052 10 20.5 10.447 20.5 11C20.5 15.072 17.44 18.4359 13.5 18.9309Z" fill="black"/>
</svg>
