<svg width="25" height="24" viewBox="0 0 25 24" fill="none" xmlns="http://www.w3.org/2000/svg">
<path d="M15.5 2H9.5C5.64 2 2.5 5.141 2.5 9V15C2.5 18.859 5.64 22 9.5 22H15.5C19.36 22 22.5 18.859 22.5 15V9C22.5 5.141 19.36 2 15.5 2ZM20.5 15C20.5 17.757 18.257 20 15.5 20H9.5C6.743 20 4.5 17.757 4.5 15V9C4.5 6.243 6.743 4 9.5 4H15.5C18.257 4 20.5 6.243 20.5 9V15ZM17.5 12C17.5 12.553 17.052 13 16.5 13H8.5C7.948 13 7.5 12.553 7.5 12C7.5 11.447 7.948 11 8.5 11H16.5C17.052 11 17.5 11.447 17.5 12Z" fill="black"/>
</svg>
