<svg width="25" height="24" viewBox="0 0 25 24" fill="none" xmlns="http://www.w3.org/2000/svg">
<path d="M14.5 2H10.5C7.743 2 5.5 4.243 5.5 7V17C5.5 19.757 7.743 22 10.5 22H14.5C17.257 22 19.5 19.757 19.5 17V7C19.5 4.243 17.257 2 14.5 2ZM17.5 17C17.5 18.654 16.154 20 14.5 20H10.5C8.846 20 7.5 18.654 7.5 17V7C7.5 5.346 8.846 4 10.5 4H14.5C16.154 4 17.5 5.346 17.5 7V17ZM14 18C14 18.553 13.552 19 13 19H12C11.448 19 11 18.553 11 18C11 17.447 11.448 17 12 17H13C13.552 17 14 17.447 14 18Z" fill="black"/>
</svg>
