<svg width="25" height="24" viewBox="0 0 25 24" fill="none" xmlns="http://www.w3.org/2000/svg">
<path d="M18.25 12C18.25 12.69 17.69 13.25 17 13.25C16.31 13.25 15.75 12.69 15.75 12C15.75 11.31 16.31 10.75 17 10.75C17.69 10.75 18.25 11.31 18.25 12ZM12.5 10.75C11.81 10.75 11.25 11.31 11.25 12C11.25 12.69 11.81 13.25 12.5 13.25C13.19 13.25 13.75 12.69 13.75 12C13.75 11.31 13.19 10.75 12.5 10.75ZM8 10.75C7.31 10.75 6.75 11.31 6.75 12C6.75 12.69 7.31 13.25 8 13.25C8.69 13.25 9.25 12.69 9.25 12C9.25 11.31 8.69 10.75 8 10.75ZM22.5 12C22.5 17.514 18.014 22 12.5 22C6.986 22 2.5 17.514 2.5 12C2.5 6.486 6.986 2 12.5 2C18.014 2 22.5 6.486 22.5 12ZM20.5 12C20.5 7.589 16.911 4 12.5 4C8.089 4 4.5 7.589 4.5 12C4.5 16.411 8.089 20 12.5 20C16.911 20 20.5 16.411 20.5 12Z" fill="black"/>
</svg>
