<svg width="25" height="24" viewBox="0 0 25 24" fill="none" xmlns="http://www.w3.org/2000/svg">
<path d="M12.5 2.5C7.26 2.5 3 6.76 3 12C3 17.24 7.26 21.5 12.5 21.5C17.74 21.5 22 17.24 22 12C22 6.76 17.74 2.5 12.5 2.5ZM12.5 17.75C11.81 17.75 11.25 17.19 11.25 16.5C11.25 15.81 11.81 15.25 12.5 15.25C13.19 15.25 13.75 15.81 13.75 16.5C13.75 17.19 13.19 17.75 12.5 17.75ZM12.5 13.25C11.81 13.25 11.25 12.69 11.25 12C11.25 11.31 11.81 10.75 12.5 10.75C13.19 10.75 13.75 11.31 13.75 12C13.75 12.69 13.19 13.25 12.5 13.25ZM12.5 8.75C11.81 8.75 11.25 8.19 11.25 7.5C11.25 6.81 11.81 6.25 12.5 6.25C13.19 6.25 13.75 6.81 13.75 7.5C13.75 8.19 13.19 8.75 12.5 8.75Z" fill="black"/>
</svg>
