<svg width="24" height="24" viewBox="0 0 24 24" fill="none" xmlns="http://www.w3.org/2000/svg">
<path opacity="0.28" d="M12 2C7.73154 2 4.17564 5.2719 3.82116 9.52563L3.46616 13.7856C3.43502 14.1593 3.31628 14.5205 3.14592 15.0315C2.62495 16.5944 3.678 18.2394 5.31495 18.4213C6.57729 18.5615 7.843 18.6619 9.11016 18.7225C11.0356 18.8145 12.9644 18.8144 14.8899 18.7223C16.1568 18.6618 17.4222 18.5613 18.6843 18.421C20.32 18.2392 21.3724 16.5965 20.8538 15.0345C20.6839 14.5228 20.5652 14.1618 20.5341 13.788L20.1789 9.52563C19.8244 5.2719 16.2685 2 12 2Z" fill="#111111"/>
<path fill-rule="evenodd" clip-rule="evenodd" d="M8.19336 18.6716C8.49933 18.6908 8.80541 18.7078 9.11157 18.7224C11.037 18.8144 12.9658 18.8144 14.8913 18.7223C15.1974 18.7077 15.5035 18.6907 15.8095 18.6714C15.5585 20.5505 13.9492 22 12.0014 22C10.0537 22 8.44443 20.5506 8.19336 18.6716ZM12.0014 20C11.1973 20 10.5136 19.4847 10.2622 18.7664C11.4215 18.7997 12.5814 18.7997 13.7406 18.7664C13.4893 19.4847 12.8055 20 12.0014 20Z" fill="#111111"/>
</svg>
