<svg width="25" height="24" viewBox="0 0 25 24" fill="none" xmlns="http://www.w3.org/2000/svg">
<path d="M6.77002 4.50305L16.23 8.89508L13.7 10.0183C12.98 10.3492 12.01 10.3392 11.3 10.0283L3.75 6.60897C4.23 5.90703 4.92998 5.32526 5.78998 4.94421L6.77002 4.50305ZM19.21 4.94421L14.82 2.98885C13.37 2.33705 11.63 2.33705 10.18 2.98885L8.59003 3.69074L18.04 8.07298L21.25 6.60897C20.77 5.90703 20.07 5.32526 19.21 4.94421ZM3.13 7.9726C3.04 8.30352 3 8.64448 3 8.99545V15.0522C3 16.787 4.06998 18.3414 5.78998 19.1035L10.19 21.0588C10.68 21.2895 11.21 21.4298 11.75 21.5V11.7129C11.38 11.6528 11.02 11.5424 10.69 11.402L3.13 7.9726ZM21.87 7.9726L14.31 11.402C13.98 11.5424 13.62 11.6528 13.25 11.7129V21.5C13.79 21.4298 14.32 21.2895 14.82 21.0588L19.21 19.1035C20.93 18.3414 22 16.787 22 15.0522V8.99545C22 8.64448 21.96 8.30352 21.87 7.9726Z" fill="black"/>
</svg>
