<svg width="25" height="24" viewBox="0 0 25 24" fill="none" xmlns="http://www.w3.org/2000/svg">
<path d="M19.4175 4.48188L15.0185 2.52733C13.4415 1.82813 11.5575 1.82813 9.98053 2.52733L5.58252 4.48188C3.70952 5.31312 2.49951 7.07757 2.49951 8.97512V15.0259C2.49951 16.9235 3.70948 18.6879 5.58148 19.5192L9.98151 21.4747C10.7615 21.8208 11.6175 21.9949 12.4735 21.9979C12.4825 21.9979 12.4905 22.0029 12.4995 22.0029C12.5085 22.0029 12.5165 21.9979 12.5255 21.9979C13.3815 21.9939 14.2375 21.8208 15.0185 21.4747L19.4175 19.5192C21.2905 18.6879 22.5005 16.9235 22.5005 15.0259V8.97512C22.4995 7.07757 21.2895 5.31312 19.4175 4.48188ZM14.2065 4.35586L18.6055 6.31041C18.7435 6.37142 18.8745 6.4414 18.9995 6.51542L16.9975 7.40569L10.4635 4.5019L10.7925 4.35586C11.8615 3.88173 13.1385 3.88173 14.2065 4.35586ZM7.99951 5.59719L14.5345 8.50098L13.6005 8.91614C12.9435 9.20923 12.0555 9.20923 11.3985 8.91614L5.99951 6.5164C6.12451 6.44138 6.25549 6.3724 6.39349 6.31138L7.99951 5.59719ZM6.39349 17.6906C5.22549 17.1715 4.49951 16.1513 4.49951 15.0259V8.97512C4.49951 8.67503 4.55453 8.38403 4.65253 8.10695L10.5865 10.7447C10.8745 10.8727 11.1825 10.9698 11.5005 11.0358V19.8723C11.2595 19.8143 11.0205 19.7472 10.7945 19.6462L6.39349 17.6906ZM20.4995 15.0259C20.4995 16.1513 19.7735 17.1725 18.6045 17.6906L14.2065 19.6462C13.9795 19.7462 13.7405 19.8143 13.4995 19.8723V11.0358C13.8175 10.9688 14.1255 10.8727 14.4135 10.7447L20.3475 8.10695C20.4455 8.38403 20.5005 8.67603 20.5005 8.97512L20.4995 15.0259Z" fill="black"/>
</svg>
