<svg width="25" height="24" viewBox="0 0 25 24" fill="none" xmlns="http://www.w3.org/2000/svg">
<path d="M12.4109 6.33008L18.1709 12.0901L10.2709 20C9.90091 20.37 9.43087 20.61 8.92087 20.7L4.18088 21.49C4.12088 21.5 4.0709 21.5 4.0109 21.5C3.7509 21.5 3.49088 21.39 3.30088 21.2C3.07088 20.97 2.9609 20.6401 3.0109 20.3201L3.80088 15.5801C3.89088 15.0701 4.13089 14.6 4.50089 14.23L12.4109 6.33008ZM20.8009 3.69995C20.0309 2.91995 19.0109 2.5 17.9209 2.5C16.8309 2.5 15.8109 2.91995 15.0409 3.69995L13.8309 4.90991L19.5909 10.6699L20.8009 9.45996C21.5809 8.68996 22.0009 7.67008 22.0009 6.58008C22.0009 5.49008 21.5809 4.46995 20.8009 3.69995Z" fill="black"/>
</svg>
