<svg width="25" height="24" viewBox="0 0 25 24" fill="none" xmlns="http://www.w3.org/2000/svg">
<path d="M21.1579 3.34204C20.2929 2.47704 19.1429 2 17.9199 2C16.6969 2 15.5469 2.47704 14.6819 3.34204L4.1489 13.875C3.7039 14.32 3.41389 14.8831 3.31089 15.5031L2.52091 20.241C2.44091 20.721 2.59893 21.214 2.94193 21.557C3.22693 21.842 3.6139 21.999 4.0109 21.999C4.0939 21.999 4.17589 21.992 4.25889 21.978L8.99693 21.188C9.61693 21.085 10.1799 20.795 10.6249 20.35L21.1579 9.81702C22.0229 8.95202 22.4999 7.80098 22.4999 6.57898C22.4999 5.35598 22.0229 4.20704 21.1579 3.34204ZM9.21092 18.938C9.06292 19.086 8.87492 19.183 8.66892 19.217L4.60691 19.894L5.28391 15.832C5.31791 15.626 5.41491 15.438 5.56291 15.29L13.4689 7.38403L17.1169 11.032L9.21092 18.938ZM19.7439 8.40405L18.5309 9.61694L14.8829 5.96899L16.0959 4.75598C16.5829 4.26898 17.2319 4 17.9199 4C18.6089 4 19.2569 4.26898 19.7439 4.75598C20.2309 5.24298 20.4999 5.89096 20.4999 6.57996C20.4999 7.26896 20.2309 7.91705 19.7439 8.40405Z" fill="black"/>
</svg>
