<svg width="25" height="24" viewBox="0 0 25 24" fill="none" xmlns="http://www.w3.org/2000/svg">
<path d="M20.9901 20.0114C20.1681 20.9614 18.9931 21.4995 17.7491 21.4995C17.7101 21.4995 17.6711 21.4995 17.6321 21.4985C9.64408 21.2815 3.21707 14.8544 3.00207 6.8674C2.96707 5.5704 3.51308 4.34138 4.49908 3.49338C5.43608 2.68638 6.65608 2.34947 7.84808 2.56247C8.03108 2.59547 8.18808 2.63737 8.32208 2.68137C8.85008 2.85637 9.23408 3.31355 9.32208 3.87155L9.99212 8.12643C10.0761 8.65943 9.86811 9.19957 9.45111 9.53757C9.36711 9.60557 9.28009 9.67044 9.18909 9.73044C8.95709 9.88844 8.86908 10.1575 8.97308 10.3965C9.97508 12.7015 11.7951 14.5214 14.0991 15.5234C14.3391 15.6284 14.6081 15.5385 14.7701 15.3015C14.8171 15.2335 14.8661 15.1665 14.9161 15.1025C15.2521 14.6745 15.8031 14.4684 16.3471 14.5554L20.6791 15.2766C21.2511 15.3726 21.7161 15.7775 21.8651 16.3095C21.8921 16.4065 21.9181 16.5166 21.9401 16.6416C22.1491 17.8426 21.8031 19.0694 20.9901 20.0114Z" fill="black"/>
</svg>
