<svg width="25" height="24" viewBox="0 0 25 24" fill="none" xmlns="http://www.w3.org/2000/svg">
<path d="M22.4327 16.5578C22.4077 16.4138 22.3777 16.2867 22.3467 16.1767C22.1457 15.4587 21.5238 14.9126 20.7618 14.7846L16.4308 14.0636C15.7048 13.9466 14.9728 14.2246 14.5258 14.7926C14.4678 14.8656 14.4117 14.9416 14.2997 15.0656C12.1117 14.1146 10.3827 12.3847 9.46875 10.1457C9.57175 10.0767 9.67077 10.0027 9.76477 9.92569C10.3218 9.47669 10.5978 8.75674 10.4858 8.04874L9.81476 3.79361C9.69776 3.04861 9.18576 2.43972 8.47876 2.20572C8.32576 2.15472 8.14577 2.10676 7.93677 2.06876C6.59677 1.83076 5.22573 2.20772 4.17273 3.11172C3.07173 4.05772 2.46374 5.43055 2.50274 6.87955C2.72474 15.1325 9.36477 21.7737 17.6188 21.9967C17.6618 21.9977 17.7058 21.9977 17.7488 21.9977C19.1378 21.9977 20.4508 21.3966 21.3668 20.3366C22.2788 19.2826 22.6667 17.9048 22.4327 16.5578ZM19.8538 19.0297C19.3028 19.6677 18.5247 20.0157 17.6718 19.9987C10.4808 19.8047 4.69473 14.0186 4.50073 6.82657C4.47873 5.98257 4.83377 5.18277 5.47577 4.63077C5.95777 4.21677 6.53475 3.99869 7.13275 3.99869C7.28075 3.99869 7.42977 4.01273 7.57977 4.03873C7.68277 4.05873 7.77174 4.08062 7.83874 4.10562L8.50476 8.37466C8.45476 8.41466 8.40274 8.45263 8.34674 8.49063C7.51174 9.05863 7.20274 10.0888 7.59674 10.9958C8.74974 13.6498 10.8468 15.7465 13.4998 16.9005C14.4058 17.2945 15.4378 16.9868 16.0068 16.1518L16.0997 16.0368L20.4197 16.7177C20.4347 16.7717 20.4488 16.8318 20.4608 16.9018C20.5928 17.6548 20.3718 18.4317 19.8538 19.0297Z" fill="black"/>
</svg>
