<svg width="25" height="24" viewBox="0 0 25 24" fill="none" xmlns="http://www.w3.org/2000/svg">
<path d="M12.5 2C6.986 2 2.5 6.486 2.5 12C2.5 17.514 6.986 22 12.5 22C18.014 22 22.5 17.514 22.5 12C22.5 6.486 18.014 2 12.5 2ZM12.5 20C8.089 20 4.5 16.411 4.5 12C4.5 7.589 8.089 4 12.5 4C16.911 4 20.5 7.589 20.5 12C20.5 16.411 16.911 20 12.5 20ZM16.438 9.28296C16.719 10.883 16.045 12.3149 14.541 13.3149C13.616 13.9299 13.469 14.259 13.449 14.319C13.308 14.737 12.919 15 12.501 15C12.395 15 12.287 14.983 12.181 14.947C11.658 14.771 11.377 14.2041 11.553 13.6801C11.857 12.7791 12.772 12.089 13.433 11.649C14.677 10.822 14.519 9.92305 14.468 9.62805C14.33 8.84205 13.658 8.16998 12.871 8.03198C12.264 7.92398 11.676 8.07904 11.215 8.46704C10.761 8.84804 10.5 9.40602 10.5 9.99902C10.5 10.552 10.052 10.999 9.5 10.999C8.948 10.999 8.5 10.552 8.5 9.99902C8.5 8.81402 9.02099 7.69706 9.92899 6.93506C10.836 6.17206 12.036 5.85701 13.217 6.06201C14.83 6.34601 16.154 7.66996 16.438 9.28296ZM13.5 17C13.5 17.552 13.052 18 12.5 18C11.948 18 11.5 17.552 11.5 17C11.5 16.448 11.948 16 12.5 16C13.052 16 13.5 16.448 13.5 17Z" fill="black"/>
</svg>
