<svg width="25" height="24" viewBox="0 0 25 24" fill="none" xmlns="http://www.w3.org/2000/svg">
<path d="M12.5 2C6.99 2 2.5 6.49 2.5 12C2.5 17.51 6.99 22 12.5 22C18.01 22 22.5 17.51 22.5 12C22.5 6.49 18.01 2 12.5 2ZM12.5 18C11.95 18 11.5 17.55 11.5 17C11.5 16.45 11.95 16 12.5 16C13.05 16 13.5 16.45 13.5 17C13.5 17.55 13.05 18 12.5 18ZM14.54 13.3201C13.62 13.9301 13.47 14.2601 13.45 14.3201C13.31 14.7401 12.92 15 12.5 15C12.39 15 12.29 14.98 12.18 14.95C11.66 14.77 11.38 14.1999 11.55 13.6799C11.86 12.7799 12.77 12.0899 13.43 11.6499C14.68 10.8199 14.52 9.91988 14.47 9.62988C14.33 8.83988 13.66 8.17003 12.87 8.03003C12.26 7.92003 11.68 8.07997 11.21 8.46997C10.76 8.84997 10.5 9.41 10.5 10C10.5 10.55 10.05 11 9.5 11C8.95 11 8.5 10.55 8.5 10C8.5 8.82 9.01999 7.69994 9.92999 6.93994C10.84 6.16994 12.04 5.86006 13.22 6.06006C14.83 6.35006 16.15 7.67003 16.44 9.28003C16.72 10.88 16.04 12.3201 14.54 13.3201Z" fill="black"/>
</svg>
