<svg width="25" height="24" viewBox="0 0 25 24" fill="none" xmlns="http://www.w3.org/2000/svg">
<path d="M22.207 20.293L17.668 15.754C18.811 14.306 19.5 12.483 19.5 10.5C19.5 5.813 15.687 2 11 2C6.313 2 2.5 5.813 2.5 10.5C2.5 15.187 6.313 19 11 19C12.984 19 14.806 18.312 16.254 17.168L20.793 21.707C20.988 21.902 21.244 22 21.5 22C21.756 22 22.012 21.902 22.207 21.707C22.598 21.316 22.598 20.684 22.207 20.293ZM4.5 10.5C4.5 6.916 7.416 4 11 4C14.584 4 17.5 6.916 17.5 10.5C17.5 14.084 14.584 17 11 17C7.416 17 4.5 14.084 4.5 10.5Z" fill="black"/>
</svg>
