<svg width="25" height="24" viewBox="0 0 25 24" fill="none" xmlns="http://www.w3.org/2000/svg">
<path d="M21.921 5.66912L18.6411 18.7892C18.1711 20.6592 16.571 21.4992 15.171 21.4992C15.161 21.4992 15.1511 21.4992 15.1511 21.4992C13.7411 21.4892 12.1311 20.6292 11.6911 18.7392L10.8311 15.0893L16.2111 9.70916C16.6011 9.31916 16.6011 8.67924 16.2111 8.28924C15.8211 7.89924 15.181 7.89924 14.791 8.28924L9.41104 13.6691L5.76107 12.8093C3.87107 12.3693 3.01106 10.7593 3.00106 9.35931C2.99106 7.94931 3.83109 6.32931 5.71109 5.85931L18.8311 2.57928C19.7011 2.35928 20.6111 2.6092 21.2511 3.2492C21.8911 3.8892 22.141 4.79912 21.921 5.66912Z" fill="black"/>
</svg>
