<svg width="25" height="24" viewBox="0 0 25 24" fill="none" xmlns="http://www.w3.org/2000/svg">
<path d="M21.6036 2.89725C20.8386 2.13225 19.7566 1.83127 18.7036 2.09427L5.59062 5.37222C3.72862 5.83722 2.48661 7.43931 2.49961 9.35831C2.51361 11.2773 3.77761 12.8623 5.64561 13.3013L10.1406 14.3592L11.1986 18.8533C11.6376 20.7223 13.2226 21.9863 15.1416 21.9993C15.1516 21.9993 15.1626 21.9993 15.1726 21.9993C17.0776 21.9993 18.6656 20.7612 19.1296 18.9092L22.4076 5.7952C22.6696 4.7472 22.3696 3.66325 21.6036 2.89725ZM20.4666 5.31326L17.1886 18.4263C16.8956 19.5963 15.9446 20.0353 15.1556 20.0013C14.3646 19.9953 13.4216 19.5712 13.1456 18.3972L12.0736 13.8422L16.2076 9.70926C16.5986 9.31826 16.5986 8.6862 16.2076 8.2952C15.8166 7.9042 15.1846 7.9042 14.7936 8.2952L10.6596 12.4283L6.10459 11.3562C4.93059 11.0802 4.50559 10.1372 4.50059 9.34622C4.49559 8.55522 4.90664 7.60626 6.07664 7.31326L19.1896 4.03531C19.2846 4.01231 19.3736 4.00223 19.4566 4.00223C19.8326 4.00223 20.0866 4.20926 20.1906 4.31326C20.3156 4.43926 20.5976 4.79026 20.4666 5.31326Z" fill="black"/>
</svg>
