<svg width="25" height="24" viewBox="0 0 25 24" fill="none" xmlns="http://www.w3.org/2000/svg">
<path d="M20.83 9.78H20.8C20.5616 9.77859 20.3289 9.7066 20.1314 9.57313C19.9339 9.43965 19.7803 9.25066 19.69 9.03C19.69 9.02735 19.6889 9.0248 19.6871 9.02293C19.6852 9.02105 19.6827 9.02 19.68 9.02C19.591 8.80005 19.5683 8.55891 19.6144 8.32619C19.6606 8.09347 19.7738 7.8793 19.94 7.71L19.97 7.68C20.2822 7.36663 20.4574 6.94232 20.4574 6.5C20.4574 6.05768 20.2822 5.63337 19.97 5.32L19.18 4.54C18.8666 4.22783 18.4423 4.05256 18 4.05256C17.5577 4.05256 17.1334 4.22783 16.82 4.54L16.81 4.56C16.6368 4.72681 16.4187 4.83935 16.1824 4.88377C15.9461 4.92819 15.7019 4.90255 15.48 4.81C15.2563 4.72301 15.0641 4.57051 14.9285 4.37246C14.7928 4.1744 14.7202 3.94003 14.72 3.7V3.67C14.7208 3.45131 14.6785 3.23461 14.5954 3.0323C14.5124 2.82998 14.3903 2.64601 14.2362 2.49091C14.082 2.33581 13.8988 2.21262 13.6969 2.12838C13.4951 2.04415 13.2787 2.00052 13.06 2H11.94C11.7213 2.00052 11.5049 2.04415 11.3031 2.12838C11.1012 2.21262 10.918 2.33581 10.7638 2.49091C10.6097 2.64601 10.4876 2.82998 10.4046 3.0323C10.3215 3.23461 10.2792 3.45131 10.28 3.67V3.7C10.2795 3.93862 10.2079 4.17168 10.0743 4.3694C9.94072 4.56712 9.75121 4.72052 9.53 4.81C9.37906 4.87748 9.21533 4.91159 9.05 4.91C8.89227 4.91039 8.73601 4.87967 8.59016 4.81962C8.44431 4.75956 8.31173 4.67134 8.2 4.56L8.18 4.54C7.86663 4.22783 7.44232 4.05256 7 4.05256C6.55768 4.05256 6.13337 4.22783 5.82 4.54L5.03 5.32C4.71783 5.63337 4.54256 6.05768 4.54256 6.5C4.54256 6.94232 4.71783 7.36663 5.03 7.68L5.06 7.71C5.2276 7.88055 5.34125 8.09669 5.38675 8.33143C5.43226 8.56618 5.4076 8.80913 5.31586 9.02995C5.22412 9.25076 5.06936 9.43966 4.87091 9.57306C4.67246 9.70645 4.43911 9.77843 4.2 9.78H4.17C3.72733 9.78079 3.30302 9.95699 2.99001 10.27C2.67699 10.583 2.50079 11.0073 2.5 11.45V12.56C2.50079 13.0027 2.67699 13.427 2.99001 13.74C3.30302 14.053 3.72733 14.2292 4.17 14.23H4.2C4.43918 14.228 4.67332 14.2987 4.87151 14.4326C5.06969 14.5665 5.22259 14.7574 5.31 14.98C5.40064 15.2023 5.42527 15.4459 5.38092 15.6818C5.33658 15.9177 5.22516 16.1358 5.06 16.31L5.04 16.32C4.7277 16.6353 4.55251 17.0612 4.55251 17.505C4.55251 17.9488 4.7277 18.3747 5.04 18.69L5.82 19.47C6.13337 19.7822 6.55768 19.9574 7 19.9574C7.44232 19.9574 7.86663 19.7822 8.18 19.47L8.2 19.45C8.36699 19.2801 8.58127 19.1645 8.81492 19.1181C9.04858 19.0717 9.29079 19.0968 9.51 19.19C9.73543 19.2786 9.92921 19.4326 10.0664 19.6321C10.2036 19.8317 10.278 20.0678 10.28 20.31V20.34C10.2795 20.5581 10.3221 20.7742 10.4053 20.9759C10.4885 21.1775 10.6108 21.3607 10.765 21.515C10.9193 21.6692 11.1025 21.7915 11.3041 21.8747C11.5058 21.958 11.7219 22.0005 11.94 22H13.06C13.2781 22.0005 13.4942 21.958 13.6959 21.8747C13.8975 21.7915 14.0807 21.6692 14.235 21.515C14.3892 21.3607 14.5115 21.1775 14.5947 20.9759C14.6779 20.7742 14.7205 20.5581 14.72 20.34V20.31C14.722 20.0678 14.7964 19.8317 14.9336 19.6321C15.0708 19.4326 15.2646 19.2786 15.49 19.19C15.7092 19.0968 15.9514 19.0717 16.1851 19.1181C16.4187 19.1645 16.633 19.2801 16.8 19.45L16.82 19.47C17.1334 19.7822 17.5577 19.9574 18 19.9574C18.4423 19.9574 18.8666 19.7822 19.18 19.47L19.96 18.69C20.2723 18.3747 20.4475 17.9488 20.4475 17.505C20.4475 17.0612 20.2723 16.6353 19.96 16.32L19.94 16.31C19.7748 16.1358 19.6634 15.9177 19.6191 15.6818C19.5747 15.4459 19.5994 15.2023 19.69 14.98C19.7774 14.7574 19.9303 14.5665 20.1285 14.4326C20.3267 14.2987 20.5608 14.228 20.8 14.23H20.83C21.2727 14.2292 21.697 14.053 22.01 13.74C22.323 13.427 22.4992 13.0027 22.5 12.56V11.45C22.4992 11.0073 22.323 10.583 22.01 10.27C21.697 9.95699 21.2727 9.78079 20.83 9.78ZM12.5 15.5C11.8078 15.5 11.1311 15.2947 10.5555 14.9101C9.97993 14.5256 9.53133 13.9789 9.26642 13.3394C9.00151 12.6999 8.9322 11.9961 9.06725 11.3172C9.2023 10.6383 9.53564 10.0146 10.0251 9.52513C10.5146 9.03564 11.1383 8.7023 11.8172 8.56725C12.4961 8.4322 13.1999 8.50151 13.8394 8.76642C14.4789 9.03133 15.0256 9.47993 15.4101 10.0555C15.7947 10.6311 16 11.3078 16 12C16 12.9283 15.6313 13.8185 14.9749 14.4749C14.3185 15.1313 13.4283 15.5 12.5 15.5Z" fill="black"/>
</svg>
