<svg width="25" height="24" viewBox="0 0 25 24" fill="none" xmlns="http://www.w3.org/2000/svg">
<path d="M12.5 16C11.7089 16 10.9355 15.7654 10.2777 15.3259C9.61992 14.8864 9.10723 14.2616 8.80448 13.5307C8.50173 12.7998 8.42252 11.9956 8.57686 11.2196C8.7312 10.4437 9.11216 9.73098 9.67157 9.17157C10.231 8.61216 10.9437 8.2312 11.7196 8.07686C12.4956 7.92252 13.2998 8.00173 14.0307 8.30448C14.7616 8.60723 15.3864 9.11992 15.8259 9.77772C16.2654 10.4355 16.5 11.2089 16.5 12C16.5 13.0609 16.0786 14.0783 15.3284 14.8284C14.5783 15.5786 13.5609 16 12.5 16ZM12.5 10C12.1044 10 11.7178 10.1173 11.3889 10.3371C11.06 10.5568 10.8036 10.8692 10.6522 11.2346C10.5009 11.6001 10.4613 12.0022 10.5384 12.3902C10.6156 12.7781 10.8061 13.1345 11.0858 13.4142C11.3655 13.6939 11.7219 13.8844 12.1098 13.9616C12.4978 14.0387 12.8999 13.9991 13.2654 13.8478C13.6308 13.6964 13.9432 13.44 14.1629 13.1111C14.3827 12.7822 14.5 12.3956 14.5 12C14.5 11.4696 14.2893 10.9609 13.9142 10.5858C13.5391 10.2107 13.0304 10 12.5 10ZM13 22H12C11.337 22 10.7011 21.7366 10.2322 21.2678C9.76339 20.7989 9.5 20.163 9.5 19.5C9.50199 19.4769 9.49644 19.4538 9.48418 19.4342C9.47192 19.4145 9.45361 19.3994 9.432 19.391C9.383 19.367 9.326 19.419 9.326 19.419C8.85675 19.8889 8.22042 20.1536 7.55636 20.1553C6.8923 20.157 6.25463 19.8955 5.783 19.428L5.077 18.721C4.84458 18.4884 4.66033 18.2122 4.53481 17.9082C4.40929 17.6043 4.34497 17.2786 4.34553 16.9498C4.34609 16.6209 4.41151 16.2954 4.53806 15.9919C4.66461 15.6884 4.84979 15.4128 5.083 15.181C5.09976 15.1658 5.11087 15.1453 5.1145 15.123C5.11813 15.1007 5.11408 15.0777 5.103 15.058C5.09164 15.0409 5.07638 15.0267 5.05847 15.0166C5.04057 15.0065 5.02053 15.0008 5 15C4.33696 15 3.70107 14.7366 3.23223 14.2678C2.76339 13.7989 2.5 13.163 2.5 12.5V11.5C2.5 10.837 2.76339 10.2011 3.23223 9.73223C3.70107 9.26339 4.33696 9 5 9C5.02231 9.00121 5.04448 8.99577 5.06371 8.98438C5.08293 8.97299 5.09834 8.95615 5.108 8.936C5.11538 8.91915 5.11722 8.90039 5.11327 8.88242C5.10932 8.86445 5.09977 8.8482 5.086 8.836C4.852 8.60386 4.66605 8.32787 4.53879 8.02382C4.41153 7.71976 4.34546 7.3936 4.34434 7.06399C4.34323 6.73438 4.4071 6.40778 4.5323 6.10287C4.6575 5.79796 4.84157 5.52072 5.074 5.287L5.782 4.578C6.25172 4.11103 6.88715 3.84892 7.5495 3.84892C8.21185 3.84892 8.84728 4.11103 9.317 4.578C9.33074 4.59748 9.35099 4.6114 9.37409 4.61727C9.39719 4.62314 9.42163 4.62056 9.443 4.61C9.5 4.58 9.5 4.5 9.5 4.5C9.5 3.83696 9.76339 3.20107 10.2322 2.73223C10.7011 2.26339 11.337 2 12 2H13C13.663 2 14.2989 2.26339 14.7678 2.73223C15.2366 3.20107 15.5 3.83696 15.5 4.5C15.5 4.5 15.495 4.6 15.55 4.62C15.5702 4.62632 15.5916 4.62734 15.6123 4.62296C15.6329 4.61858 15.6521 4.60895 15.668 4.595C15.8998 4.35747 16.1768 4.16875 16.4827 4.03994C16.7885 3.91113 17.1171 3.84485 17.449 3.845C17.7775 3.84384 18.1029 3.90795 18.4064 4.03361C18.7099 4.15927 18.9855 4.34398 19.217 4.577L19.917 5.277C20.3857 5.74582 20.649 6.38159 20.649 7.0445C20.649 7.70741 20.3857 8.34318 19.917 8.812C19.903 8.833 19.845 8.876 19.868 8.936C19.8706 8.94705 19.8753 8.95749 19.882 8.9667C19.8886 8.97591 19.897 8.98371 19.9067 8.98966C19.9163 8.99561 19.9271 8.99959 19.9383 9.00136C19.9495 9.00314 19.961 9.00267 19.972 9C20.3023 8.9975 20.6299 9.06025 20.9359 9.18465C21.2419 9.30906 21.5204 9.49267 21.7552 9.72495C21.9901 9.95722 22.1768 10.2336 22.3046 10.5382C22.4324 10.8428 22.4988 11.1697 22.5 11.5V12.5C22.5 13.163 22.2366 13.7989 21.7678 14.2678C21.2989 14.7366 20.663 15 20 15C19.94 15 19.886 15 19.867 15.049C19.848 15.098 19.858 15.129 19.907 15.17C20.1425 15.4014 20.3299 15.6771 20.4583 15.9813C20.5867 16.2854 20.6535 16.612 20.655 16.9422C20.6565 17.2723 20.5926 17.5995 20.4669 17.9048C20.3413 18.2101 20.1564 18.4875 19.923 18.721L19.223 19.427C18.7533 19.894 18.1178 20.1561 17.4555 20.1561C16.7932 20.1561 16.1577 19.894 15.688 19.427C15.688 19.427 15.632 19.359 15.576 19.379C15.5561 19.385 15.5385 19.3971 15.5258 19.4136C15.513 19.4301 15.5058 19.4502 15.505 19.471C15.5076 19.8018 15.4448 20.1299 15.3202 20.4364C15.1955 20.7428 15.0115 21.0216 14.7786 21.2567C14.5458 21.4917 14.2688 21.6784 13.9636 21.806C13.6583 21.9335 13.3308 21.9995 13 22ZM10.171 17.532L10.215 17.55C10.5938 17.7095 10.9174 17.9766 11.1458 18.3182C11.3742 18.6599 11.4974 19.061 11.5 19.472C11.4973 19.5397 11.5082 19.6073 11.5321 19.6707C11.5559 19.7341 11.5922 19.7922 11.6387 19.8414C11.6853 19.8906 11.7413 19.9299 11.8033 19.9572C11.8654 19.9844 11.9322 19.999 12 20H13C13.1326 20 13.2598 19.9473 13.3536 19.8536C13.4473 19.7598 13.5 19.6326 13.5 19.5C13.5002 19.0803 13.6247 18.67 13.8578 18.321C14.091 17.972 14.4223 17.6999 14.81 17.539C15.1899 17.3825 15.6077 17.3418 16.0107 17.4221C16.4137 17.5023 16.784 17.6999 17.075 17.99C17.1208 18.0404 17.1762 18.081 17.2381 18.1094C17.2999 18.1379 17.3668 18.1536 17.4348 18.1557C17.5029 18.1577 17.5706 18.1461 17.634 18.1214C17.6975 18.0967 17.7553 18.0595 17.804 18.012L18.504 17.312C18.5506 17.2656 18.5875 17.2104 18.6127 17.1496C18.6379 17.0889 18.6509 17.0238 18.6509 16.958C18.6509 16.8922 18.6379 16.8271 18.6127 16.7664C18.5875 16.7056 18.5506 16.6504 18.504 16.604C18.2144 16.3127 18.0154 15.9438 17.9311 15.5418C17.8468 15.1399 17.8808 14.7221 18.029 14.339C18.035 14.323 18.04 14.308 18.047 14.292L18.053 14.278C18.2106 13.8987 18.4774 13.5747 18.8194 13.3472C19.1614 13.1197 19.5632 12.9988 19.974 13C20.0416 13.0025 20.109 12.9915 20.1722 12.9676C20.2355 12.9437 20.2933 12.9074 20.3424 12.8608C20.3914 12.8142 20.4306 12.7583 20.4576 12.6963C20.4847 12.6344 20.4991 12.5676 20.5 12.5V11.5C20.5 11.3674 20.4473 11.2402 20.3536 11.1464C20.2598 11.0527 20.1326 11 20 11C19.5828 11.0047 19.1739 10.8842 18.8259 10.654C18.4779 10.4239 18.207 10.0947 18.048 9.709L18.029 9.663C17.8772 9.28566 17.8402 8.87191 17.9225 8.47361C18.0049 8.07532 18.203 7.71019 18.492 7.424C18.5419 7.37801 18.5822 7.32248 18.6103 7.26069C18.6384 7.19889 18.6539 7.13209 18.6557 7.06422C18.6576 6.99636 18.6458 6.9288 18.6211 6.86556C18.5965 6.80231 18.5593 6.74466 18.512 6.696L17.812 5.996C17.7655 5.9496 17.7103 5.91282 17.6495 5.88777C17.5888 5.86272 17.5237 5.84988 17.458 5.85C17.3922 5.85001 17.3271 5.86301 17.2664 5.88823C17.2056 5.91346 17.1504 5.95042 17.104 5.997C16.8083 6.29127 16.4327 6.49214 16.0237 6.57463C15.6148 6.65713 15.1906 6.61761 14.804 6.461C14.4177 6.30639 14.0868 6.03922 13.8542 5.69416C13.6217 5.3491 13.4983 4.9421 13.5 4.526C13.5025 4.45842 13.4915 4.39102 13.4676 4.32776C13.4437 4.2645 13.4074 4.20666 13.3608 4.15765C13.3142 4.10864 13.2583 4.06944 13.1963 4.04236C13.1344 4.01529 13.0676 4.00089 13 4H12C11.8674 4 11.7402 4.05268 11.6464 4.14645C11.5527 4.24021 11.5 4.36739 11.5 4.5C11.503 4.91545 11.3827 5.32245 11.1544 5.66952C10.926 6.0166 10.5999 6.28814 10.2172 6.44979C9.83443 6.61144 9.41237 6.65594 9.00435 6.57765C8.59634 6.49937 8.22071 6.30182 7.925 6.01C7.87934 5.96013 7.82415 5.91992 7.76268 5.89174C7.70122 5.86356 7.63473 5.84798 7.56714 5.84593C7.49956 5.84388 7.43225 5.85539 7.36919 5.8798C7.30613 5.9042 7.2486 5.94099 7.2 5.988L6.488 6.7C6.39426 6.79376 6.34161 6.92092 6.34161 7.0535C6.34161 7.18608 6.39426 7.31324 6.488 7.407C6.78487 7.69762 6.98834 8.07016 7.07242 8.477C7.15649 8.88384 7.11735 9.30651 6.96 9.691C6.93347 9.75737 6.89995 9.82073 6.86 9.88C6.68316 10.2138 6.41978 10.494 6.09746 10.691C5.77514 10.8881 5.40575 10.9948 5.028 11C4.96029 10.9973 4.89273 11.0082 4.8293 11.0321C4.76587 11.0559 4.70785 11.0922 4.65865 11.1387C4.60945 11.1853 4.57006 11.2413 4.54282 11.3033C4.51557 11.3654 4.50101 11.4322 4.5 11.5V12.5C4.5 12.6326 4.55268 12.7598 4.64645 12.8536C4.74021 12.9473 4.86739 13 5 13C5.41367 12.9953 5.81938 13.1138 6.16542 13.3405C6.51146 13.5672 6.78216 13.8919 6.943 14.273L6.949 14.287C6.958 14.308 6.966 14.328 6.973 14.35C7.11912 14.7281 7.15269 15.1404 7.06964 15.5372C6.9866 15.934 6.79049 16.2982 6.505 16.586C6.45512 16.6331 6.41525 16.6898 6.38776 16.7527C6.36027 16.8156 6.34573 16.8834 6.345 16.952C6.34442 17.0179 6.35704 17.0833 6.38211 17.1443C6.40718 17.2052 6.44421 17.2606 6.491 17.307L7.197 18.013C7.29076 18.1067 7.41792 18.1594 7.5505 18.1594C7.68308 18.1594 7.81024 18.1067 7.904 18.013C8.19242 17.7183 8.56147 17.5155 8.96481 17.4299C9.36815 17.3443 9.78778 17.3798 10.171 17.532Z" fill="black"/>
</svg>
