<svg width="25" height="24" viewBox="0 0 25 24" fill="none" xmlns="http://www.w3.org/2000/svg">
<path d="M20.815 6.052C17.749 5.03 14.0181 3.10197 13.2271 2.29797C13.0411 2.10997 12.787 2.002 12.522 2C12.248 2.006 12.001 2.10196 11.813 2.28796C10.858 3.22896 7.95403 5.11497 4.22803 6.16797C3.79703 6.28897 3.5 6.683 3.5 7.13C3.5 15.489 4.80601 19.841 12.226 21.962C12.316 21.987 12.409 22 12.501 22C12.593 22 12.686 21.987 12.776 21.962C20.194 19.842 21.5 15.448 21.5 7C21.499 6.569 21.224 6.188 20.815 6.052ZM12.5 19.958C6.756 18.235 5.57201 15.204 5.50201 7.87305C8.63701 6.88005 11.163 5.384 12.537 4.302C14.105 5.406 17.116 6.84298 19.495 7.70898C19.43 15.16 18.254 18.231 12.5 19.958Z" fill="black"/>
</svg>
