<svg width="24" height="24" viewBox="0 0 24 24" fill="none" xmlns="http://www.w3.org/2000/svg">
<path opacity="0.28" d="M5.49513 4.31331L10.8827 2.36779C11.5412 2.13001 12.2621 2.13001 12.9206 2.36779L18.3858 4.34135C19.4957 4.74214 20.2675 5.75636 20.358 6.93292L20.585 9.88342C20.918 14.212 18.6739 18.3316 14.8565 20.3993L13.3679 21.2056C12.4561 21.6995 11.3539 21.6875 10.4531 21.1739L8.93239 20.3068C5.36831 18.2747 3.23134 14.4279 3.38902 10.3283L3.51627 7.01967C3.56323 5.79876 4.34594 4.7283 5.49513 4.31331Z" stroke="#111111" stroke-width="2" stroke-linecap="round" stroke-linejoin="round"/>
<path d="M9.13281 12.0192L11.1395 14.0238C12.1236 12.303 13.4984 10.8499 15.1328 9.73389" stroke="#111111" stroke-width="2" stroke-linecap="round" stroke-linejoin="round"/>
</svg>
