<svg width="25" height="24" viewBox="0 0 25 24" fill="none" xmlns="http://www.w3.org/2000/svg">
<path d="M21 7.00269C21 15.3637 19.793 19.4397 12.638 21.4827C12.593 21.4957 12.547 21.5027 12.501 21.5027C12.455 21.5027 12.409 21.4957 12.364 21.4827C5.20801 19.4377 4 15.4036 4 7.1316C4 6.9076 4.14901 6.71164 4.36401 6.65064C8.20701 5.56564 11.134 3.66176 12.164 2.64576C12.259 2.55276 12.393 2.48071 12.519 2.50171C12.651 2.50271 12.778 2.55664 12.871 2.65064C13.802 3.59464 17.732 5.55062 20.658 6.52662C20.862 6.59662 21 6.78769 21 7.00269Z" fill="black"/>
</svg>
