<svg width="25" height="24" viewBox="0 0 25 24" fill="none" xmlns="http://www.w3.org/2000/svg">
<path fill-rule="evenodd" clip-rule="evenodd" d="M20.25 13.1702C20.15 13.0602 20.01 13.0003 19.87 13.0003H5.13C4.99 13.0003 4.85 13.0602 4.75 13.1702C4.66 13.2802 4.62 13.4204 4.63 13.5704L5.34 18.9502C5.57 20.6902 7.06 22.0003 8.81 22.0003H16.21C17.97 22.0003 19.47 20.6902 19.69 18.9402L20.37 13.5603C20.38 13.4203 20.34 13.2802 20.25 13.1702ZM11.5 18.0003C11.5 18.5503 11.05 19.0003 10.5 19.0003C9.95 19.0003 9.5 18.5503 9.5 18.0003V16.0003C9.5 15.4503 9.95 15.0003 10.5 15.0003C11.05 15.0003 11.5 15.4503 11.5 16.0003V18.0003ZM15.5 18.0003C15.5 18.5503 15.05 19.0003 14.5 19.0003C13.95 19.0003 13.5 18.5503 13.5 18.0003V16.0003C13.5 15.4503 13.95 15.0003 14.5 15.0003C15.05 15.0003 15.5 15.4503 15.5 16.0003V18.0003ZM22.5 9.25029C22.5 10.4933 21.493 11.5003 20.25 11.5003H4.75C3.507 11.5003 2.5 10.4933 2.5 9.25029C2.5 8.00729 3.507 7.00029 4.75 7.00029H6.93399L9.64301 2.4854C9.92701 2.0104 10.54 1.85738 11.015 2.14238C11.489 2.42638 11.642 3.04021 11.358 3.51421L9.267 6.99931H15.735L13.644 3.51421C13.36 3.04021 13.513 2.42638 13.987 2.14238C14.461 1.85838 15.075 2.0114 15.359 2.4854L18.068 7.00029H20.252C21.493 7.00029 22.5 8.00729 22.5 9.25029Z" fill="black"/>
</svg>
