<svg width="25" height="24" viewBox="0 0 25 24" fill="none" xmlns="http://www.w3.org/2000/svg">
<path d="M11.5 15.0007V18.0007C11.5 18.5537 11.052 19.0007 10.5 19.0007C9.948 19.0007 9.5 18.5537 9.5 18.0007V15.0007C9.5 14.4477 9.948 14.0007 10.5 14.0007C11.052 14.0007 11.5 14.4477 11.5 15.0007ZM14.5 14.0007C13.948 14.0007 13.5 14.4477 13.5 15.0007V18.0007C13.5 18.5537 13.948 19.0007 14.5 19.0007C15.052 19.0007 15.5 18.5537 15.5 18.0007V15.0007C15.5 14.4477 15.052 14.0007 14.5 14.0007ZM20.929 12.6217L20.178 18.5067C19.924 20.4977 18.218 21.9997 16.21 21.9997H8.81201C6.81101 21.9997 5.10601 20.5038 4.84601 18.5198L4.073 12.6227C3.141 12.1127 2.5 11.1357 2.5 10.0007C2.5 8.34671 3.846 7.00072 5.5 7.00072H6.93399L9.64301 2.4857C9.92701 2.0117 10.54 1.85868 11.015 2.14268C11.489 2.42668 11.642 3.04075 11.358 3.51475L9.267 6.99974H15.735L13.644 3.51475C13.36 3.04075 13.513 2.42668 13.987 2.14268C14.461 1.85868 15.075 2.0117 15.359 2.4857L18.068 7.00072H19.5C21.154 7.00072 22.5 8.34671 22.5 10.0007C22.5 11.1347 21.86 12.1117 20.929 12.6217ZM4.5 10.0007C4.5 10.5527 4.949 11.0007 5.5 11.0007H19.5C20.051 11.0007 20.5 10.5527 20.5 10.0007C20.5 9.44872 20.051 9.00072 19.5 9.00072H5.5C4.949 9.00072 4.5 9.44872 4.5 10.0007ZM18.864 13.0007H6.14001L6.82999 18.2607C6.95899 19.2527 7.81201 20.0007 8.81201 20.0007H16.21C17.214 20.0007 18.067 19.2497 18.193 18.2547L18.864 13.0007Z" fill="black"/>
</svg>
