<svg width="24" height="24" viewBox="0 0 24 24" fill="none" xmlns="http://www.w3.org/2000/svg">
<path opacity="0.28" d="M11 5.99991H13.6929C13.8829 5.99991 14.0565 5.89225 14.1409 5.72204L14.8191 4.35434C14.9221 4.14663 15.1533 4.03755 15.3761 4.10146C16.0315 4.2894 17.4069 4.74283 18.5042 5.49991C22.3682 8.39714 22.0078 14.8896 21.9786 16.2608C21.9768 16.3445 21.9554 16.427 21.9142 16.4999C19.9311 19.9999 16.491 19.9999 16.491 19.9999L15.3248 17.5737C12.8808 18.3088 11.1232 18.3086 8.67893 17.5733L7.50897 19.9999C7.50897 19.9999 4.06894 19.9999 2.08583 16.4999C2.04456 16.427 2.02319 16.3445 2.0214 16.2608C1.99218 14.8896 1.6318 8.39714 5.49577 5.49991C6.59358 4.74248 7.96978 4.28899 8.62476 4.10121C8.84722 4.03743 9.07799 4.14602 9.18127 4.35311L9.86449 5.72306C9.94909 5.8927 10.1224 5.99991 10.3119 5.99991H13" stroke="#111111" stroke-width="2" stroke-linecap="round" stroke-linejoin="round"/>
<path d="M7.00195 17C7.60162 17.2248 8.15634 17.4159 8.6796 17.5734C11.1239 18.3087 12.8815 18.3089 15.3255 17.5738C15.8491 17.4163 16.4043 17.225 17.0045 17M10.0027 12C10.0027 12.5523 9.55488 13 9.00245 13C8.45003 13 8.0022 12.5523 8.0022 12C8.0022 11.4477 8.45003 11 9.00245 11C9.55488 11 10.0027 11.4477 10.0027 12ZM16.0043 12C16.0043 12.5523 15.5564 13 15.004 13C14.4516 13 14.0037 12.5523 14.0037 12C14.0037 11.4477 14.4516 11 15.004 11C15.5564 11 16.0043 11.4477 16.0043 12Z" stroke="#111111" stroke-width="2" stroke-linecap="round" stroke-linejoin="round"/>
</svg>
