<svg width="24" height="24" viewBox="0 0 24 24" fill="none" xmlns="http://www.w3.org/2000/svg">
<path opacity="0.28" d="M11.772 2.00003L12.0001 2.00006L12.2281 2.00003C14.5228 1.9996 15.9383 1.99933 17.1111 2.40971C19.208 3.14345 20.8566 4.79213 21.5904 6.88898C22.0008 8.06174 22.0005 9.47727 22.0001 11.772L22.0001 12.0001L22.0001 12.2281C22.0005 14.5228 22.0008 15.9383 21.5905 17.1111C20.8566 19.2079 19.208 20.8566 17.1112 21.5904C15.9384 22.0007 14.5228 22.0005 12.2281 22.0001L12.0001 22.0001L11.772 22.0001C9.47727 22.0005 8.0618 22.0008 6.88904 21.5904C4.79219 20.8566 3.14345 19.208 2.40971 17.1111C1.99934 15.9383 1.9996 14.5228 2.00003 12.2281L2.00006 12.0001L2.00003 11.772C1.9996 9.47727 1.99933 8.06179 2.40971 6.88902C3.14344 4.79212 4.79211 3.14345 6.88901 2.40971C8.06179 1.99933 9.47727 1.9996 11.772 2.00003Z" fill="#111111"/>
<path d="M17.046 5.99951C16.4938 5.99951 16.046 6.44723 16.046 6.99951C16.046 7.5518 16.4938 7.99951 17.046 7.99951H17.056C17.6083 7.99951 18.056 7.5518 18.056 6.99951C18.056 6.44723 17.6083 5.99951 17.056 5.99951H17.046Z" fill="#111111"/>
<path d="M7.67969 12.0003C7.67969 9.6144 9.61382 7.68027 11.9997 7.68027C14.3856 7.68027 16.3197 9.6144 16.3197 12.0003C16.3197 14.3861 14.3856 16.3203 11.9997 16.3203C9.61382 16.3203 7.67969 14.3861 7.67969 12.0003Z" fill="#111111"/>
</svg>
