<svg width="24" height="24" viewBox="0 0 24 24" fill="none" xmlns="http://www.w3.org/2000/svg">
<path opacity="0.28" d="M10.6215 4.99985L10.0763 3.90675C9.76962 3.29175 9.05974 2.93619 8.34933 3.13987C7.66747 3.33536 6.16341 3.82441 4.92804 4.67674C4.91722 4.68421 4.90655 4.69189 4.89603 4.69977C2.66485 6.37273 1.7212 9.02276 1.31471 11.2749C0.940387 13.3489 0.993499 15.2535 1.01643 16.0759C1.01864 16.1549 1.02056 16.2238 1.0218 16.2821C1.02688 16.5206 1.08795 16.7668 1.21595 16.9928C2.3401 18.9768 3.89428 19.9871 5.17394 20.4924C5.80914 20.7433 6.37502 20.8695 6.78776 20.9334C6.99463 20.9654 7.16468 20.982 7.28782 20.9906C7.34945 20.9949 7.39951 20.9972 7.43676 20.9984C7.4554 20.9991 7.47084 20.9994 7.48295 20.9996L7.4986 20.9998L7.50451 20.9998L7.50699 20.9998L7.5081 20.9998C7.5081 20.9998 7.50914 20.9998 7.50914 19.9998V20.9998C7.8931 20.9998 8.24316 20.78 8.40991 20.4341L9.21772 18.7586C11.1824 19.2467 12.8209 19.2469 14.7853 18.7592L15.5899 20.4331C15.7565 20.7795 16.1068 20.9998 16.4912 20.9998V19.9998C16.4912 20.9998 16.4922 20.9998 16.4922 20.9998L16.4934 20.9998L16.4958 20.9998L16.5017 20.9998L16.5174 20.9996C16.5295 20.9994 16.5449 20.9991 16.5636 20.9984C16.6008 20.9972 16.6509 20.9949 16.7125 20.9906C16.8357 20.982 17.0057 20.9654 17.2126 20.9334C17.6253 20.8695 18.1912 20.7433 18.8264 20.4924C20.1061 19.9871 21.6602 18.9768 22.7844 16.9928C22.9124 16.7669 22.9735 16.5206 22.9785 16.2821C22.9798 16.2238 22.9817 16.1549 22.9839 16.0759C23.0068 15.2535 23.06 13.3489 22.6856 11.2749C22.2791 9.02276 21.3355 6.37273 19.1043 4.69977C19.0938 4.69189 19.0831 4.68421 19.0723 4.67674C17.8375 3.82479 16.3342 3.3358 15.652 3.14014C14.9403 2.93604 14.2293 3.29319 13.9234 3.91001L13.383 4.99985H10.6215Z" fill="#111111"/>
<path d="M7.00195 17C7.60162 17.2248 8.15634 17.4159 8.6796 17.5734C11.1239 18.3087 12.8815 18.3089 15.3255 17.5738C15.8491 17.4163 16.4043 17.225 17.0045 17M10.0027 12C10.0027 12.5523 9.55488 13 9.00245 13C8.45003 13 8.0022 12.5523 8.0022 12C8.0022 11.4477 8.45003 11 9.00245 11C9.55488 11 10.0027 11.4477 10.0027 12ZM16.0043 12C16.0043 12.5523 15.5564 13 15.004 13C14.4516 13 14.0037 12.5523 14.0037 12C14.0037 11.4477 14.4516 11 15.004 11C15.5564 11 16.0043 11.4477 16.0043 12Z" stroke="#111111" stroke-width="2" stroke-linecap="round" stroke-linejoin="round"/>
</svg>
