<svg width="25" height="24" viewBox="0 0 25 24" fill="none" xmlns="http://www.w3.org/2000/svg">
<path d="M12.5 2.5C7.26 2.5 3 6.76 3 12C3 17.24 7.26 21.5 12.5 21.5C17.74 21.5 22 17.24 22 12C22 6.76 17.74 2.5 12.5 2.5ZM13.5 17H11.5C10.95 17 10.5 16.55 10.5 16C10.5 15.45 10.95 15 11.5 15H13.5C14.05 15 14.5 15.45 14.5 16C14.5 16.55 14.05 17 13.5 17ZM15 13H10C9.45 13 9 12.55 9 12C9 11.45 9.45 11 10 11H15C15.55 11 16 11.45 16 12C16 12.55 15.55 13 15 13ZM16.5 9H8.5C7.95 9 7.5 8.55 7.5 8C7.5 7.45 7.95 7 8.5 7H16.5C17.05 7 17.5 7.45 17.5 8C17.5 8.55 17.05 9 16.5 9Z" fill="black"/>
</svg>
