<svg width="25" height="24" viewBox="0 0 25 24" fill="none" xmlns="http://www.w3.org/2000/svg">
<path d="M12.5 2.5C7.26 2.5 3 6.76 3 12C3 17.24 7.26 21.5 12.5 21.5C17.74 21.5 22 17.24 22 12C22 6.76 17.74 2.5 12.5 2.5ZM11.5 7H13.5C14.05 7 14.5 7.45 14.5 8C14.5 8.55 14.05 9 13.5 9H11.5C10.95 9 10.5 8.55 10.5 8C10.5 7.45 10.95 7 11.5 7ZM10 11H15C15.55 11 16 11.45 16 12C16 12.55 15.55 13 15 13H10C9.45 13 9 12.55 9 12C9 11.45 9.45 11 10 11ZM16.5 17H8.5C7.95 17 7.5 16.55 7.5 16C7.5 15.45 7.95 15 8.5 15H16.5C17.05 15 17.5 15.45 17.5 16C17.5 16.55 17.05 17 16.5 17Z" fill="black"/>
</svg>
