<svg width="25" height="24" viewBox="0 0 25 24" fill="none" xmlns="http://www.w3.org/2000/svg">
<path d="M22.3871 9.59497C22.1091 8.73397 21.3761 8.11897 20.4741 7.99097L16.4241 7.41101L14.6151 3.80005C14.2131 2.99805 13.4031 2.5 12.5001 2.5C11.5971 2.5 10.7871 2.99805 10.3851 3.80005L8.57606 7.41101L4.52608 7.99097C3.62408 8.11997 2.89108 8.73397 2.61308 9.59497C2.33808 10.449 2.57107 11.366 3.21907 11.99L6.14107 14.798L5.45207 18.7571C5.29907 19.6351 5.65307 20.509 6.37507 21.038C6.79207 21.344 7.28308 21.5 7.77708 21.5C8.15008 21.5 8.52606 21.411 8.87306 21.23L12.4991 19.3521L16.1251 21.23C16.9341 21.65 17.8911 21.574 18.6241 21.038C19.3461 20.509 19.7001 19.6351 19.5471 18.7571L18.8581 14.798L21.7801 11.99C22.4291 11.366 22.6621 10.448 22.3871 9.59497ZM20.3951 10.548L17.0891 13.724C16.8491 13.953 16.7401 14.2881 16.7971 14.6171L17.5771 19.1C17.6061 19.265 17.5201 19.3681 17.4421 19.4241C17.3851 19.4651 17.2331 19.55 17.0461 19.454L12.9601 17.338C12.6721 17.188 12.3281 17.188 12.0401 17.338L7.95408 19.454C7.76709 19.55 7.61509 19.4651 7.55809 19.4241C7.48009 19.3671 7.39408 19.265 7.42308 19.1L8.20308 14.6171C8.26008 14.2891 8.15009 13.954 7.91109 13.724L4.60509 10.548C4.48009 10.428 4.48807 10.297 4.51707 10.209C4.54207 10.132 4.61307 9.99807 4.80907 9.97107L9.37709 9.31702C9.70209 9.27002 9.98307 9.06802 10.1291 8.77502L12.1721 4.69604C12.2571 4.52504 12.4141 4.5 12.4991 4.5C12.5841 4.5 12.7411 4.52504 12.8261 4.69604L14.8691 8.77502C15.0151 9.06802 15.2971 9.27002 15.6211 9.31702L20.1901 9.97107C20.3861 9.99807 20.4571 10.132 20.4821 10.209C20.5121 10.297 20.5201 10.428 20.3951 10.548Z" fill="black"/>
</svg>
