<svg width="25" height="24" viewBox="0 0 25 24" fill="none" xmlns="http://www.w3.org/2000/svg">
<path d="M21.4342 11.6299L18.3202 14.6221L19.0552 18.843C19.1752 19.532 18.8972 20.219 18.3292 20.635C17.7502 21.058 16.9942 21.1161 16.3562 20.7871L12.5002 18.79L8.6442 20.7871C8.3702 20.9291 8.0732 20.999 7.7782 20.999C7.3882 20.999 7.00118 20.876 6.67118 20.635C6.10418 20.219 5.8252 19.532 5.9452 18.843L6.68018 14.6221L3.5662 11.6299C3.0562 11.1399 2.87318 10.419 3.08918 9.74902C3.30718 9.07102 3.88517 8.58808 4.59717 8.48608L8.90619 7.8689L10.8322 4.02393C11.1482 3.39193 11.7882 3 12.5002 3C13.2122 3 13.8522 3.39293 14.1682 4.02393L16.0942 7.8689L20.4032 8.48608C21.1142 8.58808 21.6922 9.07102 21.9102 9.74902C22.1262 10.419 21.9442 11.1399 21.4342 11.6299Z" fill="black"/>
</svg>
