<svg width="25" height="24" viewBox="0 0 25 24" fill="none" xmlns="http://www.w3.org/2000/svg">
<path d="M18.709 8.45996L20.209 6.95996C20.599 6.56996 20.599 5.93004 20.209 5.54004C19.819 5.15004 19.179 5.15004 18.789 5.54004L17.289 7.04004C17.229 7.11004 17.189 7.18 17.149 7.25C16.099 6.5 14.849 5.99007 13.499 5.82007V4.25H14.499C15.049 4.25 15.499 3.8 15.499 3.25C15.499 2.7 15.049 2.25 14.499 2.25H10.499C9.94902 2.25 9.49902 2.7 9.49902 3.25C9.49902 3.8 9.94902 4.25 10.499 4.25H11.499V5.82007C7.55902 6.31007 4.49902 9.68 4.49902 13.75C4.49902 18.16 8.08902 21.75 12.499 21.75C16.909 21.75 20.499 18.16 20.499 13.75C20.499 11.76 19.769 9.95005 18.569 8.55005C18.609 8.52005 18.669 8.49996 18.709 8.45996ZM15.119 17.03C14.939 17.18 14.719 17.25 14.499 17.25C14.209 17.25 13.919 17.1201 13.719 16.8701L11.719 14.3701C11.579 14.2001 11.499 13.98 11.499 13.75V10.25C11.499 9.7 11.949 9.25 12.499 9.25C13.049 9.25 13.499 9.7 13.499 10.25V13.3999L15.279 15.6299C15.629 16.0599 15.559 16.69 15.119 17.03Z" fill="black"/>
</svg>
