<svg width="25" height="24" viewBox="0 0 25 24" fill="none" xmlns="http://www.w3.org/2000/svg">
<path d="M18.943 7.97095L20.207 6.70703C20.598 6.31603 20.598 5.68397 20.207 5.29297C19.816 4.90197 19.184 4.90197 18.793 5.29297L17.468 6.61804C16.324 5.79004 14.971 5.23794 13.5 5.06494V4H14.5C15.052 4 15.5 3.553 15.5 3C15.5 2.447 15.052 2 14.5 2H10.5C9.948 2 9.5 2.447 9.5 3C9.5 3.553 9.948 4 10.5 4H11.5V5.06396C7.283 5.56096 4 9.152 4 13.5C4 18.187 7.813 22 12.5 22C17.187 22 21 18.187 21 13.5C21 11.389 20.222 9.45895 18.943 7.97095ZM12.5 20C8.916 20 6 17.084 6 13.5C6 9.916 8.916 7 12.5 7C16.084 7 19 9.916 19 13.5C19 17.084 16.084 20 12.5 20ZM15.281 15.375C15.626 15.807 15.556 16.436 15.125 16.781C14.941 16.928 14.72 17 14.501 17C14.208 17 13.917 16.872 13.72 16.625L11.72 14.125C11.578 13.947 11.501 13.728 11.501 13.5V10C11.501 9.447 11.949 9 12.501 9C13.053 9 13.501 9.447 13.501 10V13.149L15.281 15.375Z" fill="black"/>
</svg>
