<svg width="25" height="24" viewBox="0 0 25 24" fill="none" xmlns="http://www.w3.org/2000/svg">
<path d="M22.499 9.00195C22.499 8.89395 22.4819 8.78596 22.4479 8.68396L21.36 5.41895C20.678 3.37395 18.7719 2 16.6169 2H8.38293C6.22793 2 4.32095 3.37395 3.63995 5.41895L2.55194 8.68396C2.51794 8.78696 2.50098 8.89395 2.50098 9.00195C2.50298 10.007 2.88798 10.915 3.50098 11.618V18C3.50098 20.206 5.29498 22 7.50098 22H11.528V18C11.528 17.448 11.977 17 12.528 17C13.079 17 13.528 17.448 13.528 18V22H17.499C19.705 22 21.499 20.206 21.499 18V11.618C22.112 10.915 22.497 10.007 22.499 9.00195ZM5.53595 6.052C5.94495 4.824 7.08896 4 8.38196 4H16.616C17.909 4 19.053 4.824 19.462 6.052L20.494 9.14697C20.42 10.198 19.5739 11.001 18.5099 11.001C17.6129 11.001 16.705 10.416 16.444 9.67004C16.303 9.27004 15.9249 9.00098 15.4999 9.00098H15.496C15.07 9.00298 14.691 9.27398 14.554 9.67798C14.301 10.42 13.3979 11.001 12.4999 11.001C11.6019 11.001 10.7 10.42 10.446 9.67798C10.308 9.27498 9.92997 9.00298 9.50397 9.00098H9.49994C9.07494 9.00098 8.69697 9.27004 8.55597 9.67004C8.29497 10.416 7.38699 11.001 6.48999 11.001C5.42499 11.001 4.57894 10.198 4.50494 9.14697L5.53595 6.052ZM17.499 20H15.5259V18C15.5259 16.346 14.1799 15 12.5259 15C10.8719 15 9.52594 16.346 9.52594 18V20H7.49896C6.39596 20 5.49896 19.103 5.49896 18V12.86C5.81796 12.943 6.14495 13 6.48895 13C7.61995 13 8.71596 12.5301 9.49396 11.7791C10.27 12.5301 11.364 13 12.498 13C13.632 13 14.727 12.5301 15.502 11.7791C16.281 12.5301 17.3769 13 18.5079 13C18.8519 13 19.179 12.943 19.498 12.86V18C19.499 19.103 18.602 20 17.499 20Z" fill="black"/>
</svg>
