<svg width="25" height="24" viewBox="0 0 25 24" fill="none" xmlns="http://www.w3.org/2000/svg">
<path d="M14 18C14 18.553 13.552 19 13 19H12C11.448 19 11 18.553 11 18C11 17.447 11.448 17 12 17H13C13.552 17 14 17.447 14 18ZM20.5 7V17C20.5 19.757 18.257 22 15.5 22H9.5C6.743 22 4.5 19.757 4.5 17V7C4.5 4.243 6.743 2 9.5 2H15.5C18.257 2 20.5 4.243 20.5 7ZM18.5 7C18.5 5.346 17.154 4 15.5 4H9.5C7.846 4 6.5 5.346 6.5 7V17C6.5 18.654 7.846 20 9.5 20H15.5C17.154 20 18.5 18.654 18.5 17V7Z" fill="black"/>
</svg>
