<svg width="25" height="24" viewBox="0 0 25 24" fill="none" xmlns="http://www.w3.org/2000/svg">
<path d="M21.037 9.99805L14.503 3.46497C13.559 2.52097 12.303 2 10.968 2H6.50098C4.29498 2 2.50098 3.794 2.50098 6V10.4659C2.50098 11.8009 3.02097 13.057 3.96497 14.002L10.499 20.535C11.443 21.479 12.699 22 14.034 22C15.37 22 16.625 21.479 17.57 20.535L21.036 17.069C22.986 15.12 22.986 11.947 21.037 9.99805ZM19.623 15.655L16.157 19.121C15.024 20.253 13.049 20.255 11.914 19.121L5.37997 12.588C4.81297 12.021 4.50098 11.2669 4.50098 10.4659V6C4.50098 4.897 5.39798 4 6.50098 4H10.967C11.757 4 12.529 4.32003 13.088 4.87903L19.622 11.412C20.792 12.582 20.792 14.485 19.623 15.655ZM9.50098 7.5C9.50098 8.328 8.82898 9 8.00098 9C7.17298 9 6.50098 8.328 6.50098 7.5C6.50098 6.672 7.17298 6 8.00098 6C8.82898 6 9.50098 6.672 9.50098 7.5Z" fill="black"/>
</svg>
