<svg width="25" height="24" viewBox="0 0 25 24" fill="none" xmlns="http://www.w3.org/2000/svg">
<path d="M18.087 9.17297L17.5 8.58606L17.501 6.36401C18.185 5.43601 18.5 4.026 18.5 3C18.5 2.448 18.053 2 17.5 2H7.5C6.947 2 6.5 2.448 6.5 3C6.5 4.026 6.815 5.43701 7.5 6.36401V8.58606L6.91302 9.17297C5.35702 10.729 4.5 12.798 4.5 15C4.5 15.266 4.60503 15.52 4.79303 15.707C4.98103 15.894 5.235 16 5.5 16H11.5V21C11.5 21.553 11.947 22 12.5 22C13.053 22 13.5 21.553 13.5 21V16H19.5C20.053 16 20.5 15.553 20.5 15C20.5 12.798 19.643 10.729 18.087 9.17297ZM6.57898 13.999C6.78498 12.712 7.38803 11.526 8.32703 10.587L9.20697 9.70703C9.39497 9.51903 9.5 9.265 9.5 9L9.49902 5.99902C9.49902 5.73302 9.39399 5.47899 9.20599 5.29199C8.96699 5.05299 8.75001 4.552 8.62201 4H16.378C16.249 4.552 16.033 5.05297 15.793 5.29297C15.605 5.48097 15.5 5.734 15.5 6V9C15.5 9.266 15.605 9.52003 15.793 9.70703L16.673 10.587C17.612 11.526 18.215 12.713 18.421 14L6.57898 13.999Z" fill="black"/>
</svg>
