<svg width="25" height="24" viewBox="0 0 25 24" fill="none" xmlns="http://www.w3.org/2000/svg">
<path d="M19.9961 14.75C19.9961 15.026 19.7721 15.25 19.4961 15.25H13.4961V20.75C13.4961 21.303 13.0491 21.75 12.4961 21.75C11.9431 21.75 11.4961 21.303 11.4961 20.75V15.25H5.49609C5.36309 15.25 5.23609 15.197 5.14209 15.104C5.04809 15.011 4.99609 14.883 4.99609 14.75C4.99609 12.682 5.80112 10.7379 7.26312 9.27588L7.99609 8.54297V5.94189C7.33909 5.15089 6.99609 3.773 6.99609 2.75C6.99609 2.474 7.22009 2.25 7.49609 2.25H17.4961C17.7721 2.25 17.9961 2.474 17.9961 2.75C17.9961 3.773 17.6531 5.14992 16.9971 5.94092L16.9961 8.54297L17.7291 9.27588C19.1911 10.7389 19.9961 12.683 19.9961 14.75Z" fill="black"/>
</svg>
