<svg width="25" height="24" viewBox="0 0 25 24" fill="none" xmlns="http://www.w3.org/2000/svg">
<path d="M15.4961 2.5H9.49609C5.91609 2.5 2.99609 5.42 2.99609 9V15C2.99609 18.58 5.91609 21.5 9.49609 21.5H15.4961C19.0761 21.5 21.9961 18.58 21.9961 15V9C21.9961 5.42 19.0761 2.5 15.4961 2.5ZM16.2061 14.29C16.5961 14.68 16.5961 15.32 16.2061 15.71C16.0061 15.9 15.7561 16 15.4961 16C15.2361 16 14.9861 15.9 14.7861 15.71L12.4961 13.4199L10.2061 15.71C10.0061 15.9 9.75609 16 9.49609 16C9.23609 16 8.98607 15.9 8.78607 15.71C8.39607 15.32 8.39607 14.68 8.78607 14.29L11.0761 12L8.78607 9.70996C8.39607 9.31996 8.39607 8.68004 8.78607 8.29004C9.17607 7.90004 9.81612 7.90004 10.2061 8.29004L12.4961 10.5801L14.7861 8.29004C15.1761 7.90004 15.8161 7.90004 16.2061 8.29004C16.5961 8.68004 16.5961 9.31996 16.2061 9.70996L13.9161 12L16.2061 14.29Z" fill="black"/>
</svg>
