<svg width="25" height="24" viewBox="0 0 25 24" fill="none" xmlns="http://www.w3.org/2000/svg">
<path d="M16.207 9.70703L13.914 12L16.207 14.293C16.598 14.684 16.598 15.316 16.207 15.707C16.012 15.902 15.756 16 15.5 16C15.244 16 14.988 15.902 14.793 15.707L12.5 13.4139L10.207 15.707C10.012 15.902 9.756 16 9.5 16C9.244 16 8.98803 15.902 8.79303 15.707C8.40203 15.316 8.40203 14.684 8.79303 14.293L11.086 12L8.79303 9.70703C8.40203 9.31603 8.40203 8.68397 8.79303 8.29297C9.18403 7.90197 9.81597 7.90197 10.207 8.29297L12.5 10.5861L14.793 8.29297C15.184 7.90197 15.816 7.90197 16.207 8.29297C16.598 8.68397 16.598 9.31603 16.207 9.70703ZM22.5 9V15C22.5 18.859 19.36 22 15.5 22H9.5C5.64 22 2.5 18.859 2.5 15V9C2.5 5.141 5.64 2 9.5 2H15.5C19.36 2 22.5 5.141 22.5 9ZM20.5 9C20.5 6.243 18.257 4 15.5 4H9.5C6.743 4 4.5 6.243 4.5 9V15C4.5 17.757 6.743 20 9.5 20H15.5C18.257 20 20.5 17.757 20.5 15V9Z" fill="black"/>
</svg>
