<svg width="24" height="24" viewBox="0 0 24 24" fill="none" xmlns="http://www.w3.org/2000/svg">
<path opacity="0.28" d="M12 2C6.47715 2 2 6.47715 2 12C2 17.5228 6.47715 22 12 22C17.5228 22 22 17.5228 22 12C22 6.47715 17.5228 2 12 2Z" fill="#111111"/>
<path d="M12.6951 7.98122C12.2432 7.83439 11.7564 7.83439 11.3045 7.98122C11.0016 8.07964 10.7552 8.25035 10.5284 8.44289C10.3135 8.6253 10.0724 8.86648 9.79283 9.14606L9.14606 9.79283C8.86649 10.0724 8.6253 10.3135 8.44289 10.5284C8.25035 10.7552 8.07964 11.0016 7.98122 11.3045C7.83439 11.7564 7.83439 12.2432 7.98122 12.6951C8.07964 12.998 8.25035 13.2443 8.44289 13.4711C8.6253 13.686 8.86648 13.9272 9.14605 14.2067L9.79283 14.8535C10.0724 15.1331 10.3135 15.3742 10.5284 15.5567C10.7552 15.7492 11.0016 15.9199 11.3045 16.0183C11.7564 16.1652 12.2432 16.1652 12.6951 16.0183C12.998 15.9199 13.2443 15.7492 13.4711 15.5567C13.686 15.3742 13.9272 15.1331 14.2067 14.8535L14.8535 14.2067C15.1331 13.9272 15.3742 13.686 15.5567 13.4711C15.7492 13.2443 15.9199 12.998 16.0183 12.6951C16.1652 12.2432 16.1652 11.7564 16.0183 11.3045C15.9199 11.0016 15.7492 10.7552 15.5567 10.5284C15.3742 10.3135 15.1331 10.0724 14.8535 9.79283L14.2067 9.14606C13.9272 8.86648 13.686 8.6253 13.4711 8.44289C13.2443 8.25035 12.998 8.07964 12.6951 7.98122Z" fill="#111111"/>
</svg>
