<svg width="24" height="24" viewBox="0 0 24 24" fill="none" xmlns="http://www.w3.org/2000/svg">
<path opacity="0.28" d="M12 21C16.9706 21 21 16.9706 21 12C21 7.02944 16.9706 3 12 3C7.02944 3 3 7.02944 3 12C3 16.9706 7.02944 21 12 21Z" stroke="#111111" stroke-width="2" stroke-linecap="round" stroke-linejoin="round"/>
<path d="M10.3027 9.69683C10.8967 9.1028 11.1938 8.80579 11.5362 8.69451C11.8375 8.59662 12.162 8.59662 12.4633 8.69451C12.8058 8.80579 13.1028 9.1028 13.6968 9.69683L14.3027 10.3027C14.8967 10.8967 15.1938 11.1938 15.305 11.5362C15.4029 11.8375 15.4029 12.162 15.305 12.4633C15.1938 12.8058 14.8967 13.1028 14.3027 13.6968L13.6968 14.3027C13.1028 14.8967 12.8058 15.1938 12.4633 15.305C12.162 15.4029 11.8375 15.4029 11.5362 15.305C11.1938 15.1938 10.8967 14.8967 10.3027 14.3027L9.69683 13.6968C9.1028 13.1028 8.80579 12.8058 8.69451 12.4633C8.59662 12.162 8.59662 11.8375 8.69451 11.5362C8.80579 11.1938 9.1028 10.8967 9.69683 10.3027L10.3027 9.69683Z" stroke="#111111" stroke-width="2" stroke-linecap="round" stroke-linejoin="round"/>
</svg>
