<svg width="25" height="24" viewBox="0 0 25 24" fill="none" xmlns="http://www.w3.org/2000/svg">
<path d="M21.5 5H17.941C17.51 5 17.129 4.72602 16.992 4.31702L16.676 3.36694C16.403 2.54994 15.64 2 14.779 2H10.22C9.35797 2 8.595 2.55004 8.323 3.36804L8.00702 4.31604C7.87102 4.72504 7.48898 5 7.05798 5H3.5C2.948 5 2.5 5.447 2.5 6C2.5 6.553 2.948 7 3.5 7H4.565L5.31598 18.266C5.45498 20.36 7.20801 22 9.30701 22H15.694C17.793 22 19.546 20.359 19.685 18.266L20.436 7H21.5C22.052 7 22.5 6.553 22.5 6C22.5 5.447 22.052 5 21.5 5ZM10.221 4L14.78 3.99902L15.096 4.94897C15.102 4.96697 15.111 4.982 15.118 5H9.88397C9.88997 4.982 9.90001 4.966 9.90601 4.948L10.221 4ZM17.689 18.1331C17.619 19.1801 16.743 20 15.693 20H9.30603C8.25703 20 7.38 19.1801 7.31 18.1331L6.56897 7H7.05902C7.16602 7 7.27098 6.98598 7.37598 6.97498C7.41898 6.98098 7.45598 7 7.50098 7H17.501C17.545 7 17.583 6.97998 17.626 6.97498C17.731 6.98598 17.835 7 17.943 7H18.433L17.689 18.1331ZM15.5 11V16C15.5 16.553 15.052 17 14.5 17C13.948 17 13.5 16.553 13.5 16V11C13.5 10.447 13.948 10 14.5 10C15.052 10 15.5 10.447 15.5 11ZM11.5 11V16C11.5 16.553 11.052 17 10.5 17C9.948 17 9.5 16.553 9.5 16V11C9.5 10.447 9.948 10 10.5 10C11.052 10 11.5 10.447 11.5 11Z" fill="black"/>
</svg>
