<svg width="25" height="24" viewBox="0 0 25 24" fill="none" xmlns="http://www.w3.org/2000/svg">
<path d="M22.5 6.25C22.5 6.803 22.052 7.25 21.5 7.25H3.5C2.948 7.25 2.5 6.803 2.5 6.25C2.5 5.697 2.948 5.25 3.5 5.25H7.05902C7.49002 5.25 7.871 4.97592 8.008 4.56592L8.32397 3.61792C8.59697 2.79992 9.36001 2.25 10.221 2.25H14.78C15.642 2.25 16.405 2.79994 16.677 3.61694L16.993 4.56689C17.129 4.97489 17.511 5.25 17.942 5.25H21.5C22.052 5.25 22.5 5.697 22.5 6.25ZM19.8 9.28003L19.19 18.48C19.06 20.32 17.52 21.75 15.69 21.75H9.31C7.48 21.75 5.94 20.32 5.81 18.49L5.20001 9.28003C5.19001 9.15003 5.24002 9.00991 5.33002 8.90991C5.43002 8.80991 5.56001 8.75 5.70001 8.75H19.3C19.44 8.75 19.57 8.80991 19.67 8.90991C19.76 9.00991 19.81 9.15003 19.8 9.28003ZM11.5 12.25C11.5 11.7 11.05 11.25 10.5 11.25C9.95 11.25 9.5 11.7 9.5 12.25V17.25C9.5 17.8 9.95 18.25 10.5 18.25C11.05 18.25 11.5 17.8 11.5 17.25V12.25ZM15.5 12.25C15.5 11.7 15.05 11.25 14.5 11.25C13.95 11.25 13.5 11.7 13.5 12.25V17.25C13.5 17.8 13.95 18.25 14.5 18.25C15.05 18.25 15.5 17.8 15.5 17.25V12.25Z" fill="black"/>
</svg>
