<svg width="25" height="24" viewBox="0 0 25 24" fill="none" xmlns="http://www.w3.org/2000/svg">
<path d="M15.5 9H9.5V7C9.5 5.346 10.846 4 12.5 4C13.898 4 15.202 4.96702 15.532 6.24902C15.669 6.78302 16.212 7.10799 16.749 6.96899C17.284 6.83099 17.606 6.28598 17.468 5.75098C16.909 3.57798 14.82 2 12.5 2C9.743 2 7.5 4.243 7.5 7V9.42395C5.737 10.198 4.5 11.955 4.5 14V17C4.5 19.757 6.743 22 9.5 22H15.5C18.257 22 20.5 19.757 20.5 17V14C20.5 11.243 18.257 9 15.5 9ZM18.5 17C18.5 18.654 17.154 20 15.5 20H9.5C7.846 20 6.5 18.654 6.5 17V14C6.5 12.346 7.846 11 9.5 11H15.5C17.154 11 18.5 12.346 18.5 14V17ZM13.5 15V16C13.5 16.553 13.052 17 12.5 17C11.948 17 11.5 16.553 11.5 16V15C11.5 14.447 11.948 14 12.5 14C13.052 14 13.5 14.447 13.5 15Z" fill="black"/>
</svg>
