<svg width="25" height="24" viewBox="0 0 25 24" fill="none" xmlns="http://www.w3.org/2000/svg">
<path d="M15.4961 9.75H9.49609V7.25C9.49609 5.6 10.8461 4.25 12.4961 4.25C13.8961 4.25 15.1961 5.22 15.5261 6.5C15.6661 7.03 16.2061 7.35997 16.7461 7.21997C17.2761 7.07997 17.6061 6.54 17.4661 6C16.9061 3.83 14.8161 2.25 12.4961 2.25C9.73609 2.25 7.49609 4.49 7.49609 7.25V10.24C6.01609 10.98 4.99609 12.49 4.99609 14.25V17.25C4.99609 19.73 7.01609 21.75 9.49609 21.75H15.4961C17.9761 21.75 19.9961 19.73 19.9961 17.25V14.25C19.9961 11.77 17.9761 9.75 15.4961 9.75ZM13.4961 16.25C13.4961 16.8 13.0461 17.25 12.4961 17.25C11.9461 17.25 11.4961 16.8 11.4961 16.25V15.25C11.4961 14.7 11.9461 14.25 12.4961 14.25C13.0461 14.25 13.4961 14.7 13.4961 15.25V16.25Z" fill="black"/>
</svg>
