<svg width="25" height="24" viewBox="0 0 25 24" fill="none" xmlns="http://www.w3.org/2000/svg">
<path d="M8.79303 7.70731C8.40203 7.31631 8.40203 6.68425 8.79303 6.29325L11.793 3.29325C12.184 2.90225 12.816 2.90225 13.207 3.29325L16.207 6.29325C16.598 6.68425 16.598 7.31631 16.207 7.70731C16.012 7.90231 15.756 8.00028 15.5 8.00028C15.244 8.00028 14.988 7.90231 14.793 7.70731L13.5 6.41422V11.0003C13.5 11.5533 13.052 12.0003 12.5 12.0003C11.948 12.0003 11.5 11.5533 11.5 11.0003V6.41422L10.207 7.70731C9.81597 8.09831 9.18403 8.09831 8.79303 7.70731ZM17.5 10.0003C16.948 10.0003 16.5 10.4473 16.5 11.0003C16.5 11.5533 16.948 12.0003 17.5 12.0003C19.154 12.0003 20.5 13.3463 20.5 15.0003V16.0003C20.5 17.6543 19.154 19.0003 17.5 19.0003H7.5C5.846 19.0003 4.5 17.6543 4.5 16.0003V15.0003C4.5 13.3463 5.846 12.0003 7.5 12.0003C8.052 12.0003 8.5 11.5533 8.5 11.0003C8.5 10.4473 8.052 10.0003 7.5 10.0003C4.743 10.0003 2.5 12.2433 2.5 15.0003V16.0003C2.5 18.7573 4.743 21.0003 7.5 21.0003H17.5C20.257 21.0003 22.5 18.7573 22.5 16.0003V15.0003C22.5 12.2433 20.257 10.0003 17.5 10.0003ZM18.5 15.0003C18.5 14.4483 18.052 14.0003 17.5 14.0003C16.948 14.0003 16.5 14.4483 16.5 15.0003C16.5 15.5523 16.948 16.0003 17.5 16.0003C18.052 16.0003 18.5 15.5523 18.5 15.0003Z" fill="black"/>
</svg>
