<svg width="25" height="24" viewBox="0 0 25 24" fill="none" xmlns="http://www.w3.org/2000/svg">
<path d="M17.5 10.7328H15.02V11.2638C15.02 12.6461 13.9 13.768 12.52 13.768C11.15 13.768 10.02 12.6461 10.02 11.2638V10.7328H7.5C5.02 10.7328 3 12.7563 3 15.2405V16.2423C3 18.7265 5.02 20.75 7.5 20.75H17.5C19.99 20.75 22 18.7265 22 16.2423V15.2405C22 12.7563 19.99 10.7328 17.5 10.7328ZM17.5 16.4927C16.81 16.4927 16.26 15.9317 16.26 15.2405C16.26 14.5494 16.81 13.9884 17.5 13.9884C18.2 13.9884 18.76 14.5494 18.76 15.2405C18.76 15.9317 18.2 16.4927 17.5 16.4927ZM16.23 7.96806C16.04 8.15838 15.78 8.25859 15.52 8.25859C15.27 8.25859 15.01 8.15838 14.82 7.96806L13.52 6.66577V11.2638C13.52 11.8147 13.08 12.2655 12.52 12.2655C11.97 12.2655 11.52 11.8147 11.52 11.2638V6.66577L10.23 7.96806C10.04 8.15838 9.78002 8.25859 9.52002 8.25859C9.27002 8.25859 9.01001 8.15838 8.82001 7.96806C8.43001 7.57739 8.43001 6.93636 8.82001 6.54569L11.82 3.54054C12.01 3.35021 12.27 3.25 12.52 3.25C12.78 3.25 13.04 3.35021 13.23 3.54054L16.23 6.54569C16.62 6.93636 16.62 7.57739 16.23 7.96806Z" fill="black"/>
</svg>
