<svg width="24" height="24" viewBox="0 0 24 24" fill="none" xmlns="http://www.w3.org/2000/svg">
<path opacity="0.28" d="M12 2C6.47715 2 2 6.47715 2 12C2 17.5228 6.47715 22 12 22C17.5228 22 22 17.5228 22 12C22 6.47715 17.5228 2 12 2Z" stroke="#111111" stroke-width="2" stroke-linecap="round" stroke-linejoin="round"/>
<path d="M19.3869 17.1441C18.5984 15.8494 17.1353 15 15.5009 15H8.5009C6.86648 15 5.40346 15.8494 4.61493 17.1441C5.03402 17.7447 5.52451 18.2918 6.07408 18.7731C6.33857 17.7814 7.29443 17 8.5009 17H15.5009C16.7074 17 17.6632 17.7815 17.9277 18.7731C18.4773 18.2918 18.9678 17.7447 19.3869 17.1441Z" fill="#111111"/>
<path d="M4.64606 20.1797C4.52933 20.0747 4.41486 19.9672 4.30273 19.8574L4.30678 19.8613C4.4176 19.9698 4.53072 20.076 4.64606 20.1797Z" fill="#111111"/>
<path fill-rule="evenodd" clip-rule="evenodd" d="M12.0009 6C9.79176 6 8.0009 7.79086 8.0009 10C8.0009 12.2091 9.79176 14 12.0009 14C14.21 14 16.0009 12.2091 16.0009 10C16.0009 7.79086 14.21 6 12.0009 6ZM10.0009 10C10.0009 8.89543 10.8963 8 12.0009 8C13.1055 8 14.0009 8.89543 14.0009 10C14.0009 11.1046 13.1055 12 12.0009 12C10.8963 12 10.0009 11.1046 10.0009 10Z" fill="#111111"/>
</svg>
