<svg width="25" height="24" viewBox="0 0 25 24" fill="none" xmlns="http://www.w3.org/2000/svg">
<path d="M20.85 6.70996C20.85 8.36996 19.75 9.77999 18.24 10.24C18.41 9.68999 18.5 9.1 18.5 8.5C18.5 6.31 17.32 4.3901 15.57 3.3501C16.05 3.1301 16.58 3 17.15 3C19.19 3 20.85 4.65996 20.85 6.70996ZM20.1 11.3C19.68 11.18 19.22 11.24 18.85 11.45C18.41 11.69 17.94 11.8301 17.46 11.8601C17.26 12.1601 17.03 12.45 16.76 12.71C18.69 13.34 20.1 15.01 20.42 17H21.11C21.57 17 21.99 16.7601 22.2 16.3701C22.4 16.0001 22.5 15.5799 22.5 15.1599V14.45C22.5 12.96 21.51 11.67 20.1 11.3ZM9.42999 3.3501C8.94999 3.1301 8.41998 3 7.84998 3C5.80998 3 4.15002 4.65996 4.15002 6.70996C4.15002 8.36996 5.25001 9.77999 6.76001 10.24C6.59001 9.68999 6.5 9.1 6.5 8.5C6.5 6.31 7.67999 4.3901 9.42999 3.3501ZM8.23999 12.71C7.96999 12.45 7.73998 12.1601 7.53998 11.8601C7.05998 11.8301 6.59002 11.69 6.15002 11.45C5.78002 11.24 5.32002 11.18 4.90002 11.3C3.49002 11.67 2.5 12.96 2.5 14.45V15.1599C2.5 15.5799 2.59999 16.0001 2.79999 16.3701C3.00999 16.7601 3.43 17 3.88 17H4.58002C4.90002 15.01 6.30999 13.34 8.23999 12.71ZM16.08 14.0701C15.91 14.0301 15.73 14 15.55 14C15.21 14 14.86 14.09 14.56 14.26C13.92 14.61 13.21 14.79 12.5 14.79C11.79 14.79 11.08 14.61 10.44 14.26C10.14 14.09 9.79001 14 9.45001 14C9.27001 14 9.08998 14.0301 8.91998 14.0701C7.19998 14.5301 6 16.0999 6 17.8999V18.77C6 19.28 6.13 19.79 6.37 20.23C6.62 20.71 7.11999 21 7.67999 21H17.32C17.88 21 18.38 20.71 18.63 20.23C18.87 19.79 19 19.28 19 18.77V17.8999C19 16.0999 17.8 14.5301 16.08 14.0701ZM17 8.5C17 6.015 14.985 4 12.5 4C10.015 4 8 6.015 8 8.5C8 10.985 10.015 13 12.5 13C14.985 13 17 10.985 17 8.5Z" fill="black"/>
</svg>
