<svg width="25" height="24" viewBox="0 0 25 24" fill="none" xmlns="http://www.w3.org/2000/svg">
<path d="M17.4995 17.639V18.146C17.4995 19.083 17.1535 19.98 16.5255 20.672C16.3275 20.89 16.0565 21 15.7845 21C15.5445 21 15.3045 20.914 15.1135 20.74C14.7045 20.369 14.6735 19.737 15.0445 19.328C15.3385 19.005 15.5005 18.584 15.5005 18.145V17.6379C15.5005 16.3939 14.6635 15.317 13.4645 15.02C13.2995 14.978 13.1265 15 12.9875 15.079C11.1305 16.099 8.86151 16.094 7.02051 15.084C6.87351 15 6.6995 14.978 6.5365 15.021C5.3375 15.318 4.50049 16.395 4.50049 17.639V18.146C4.50049 18.584 4.66248 19.004 4.95648 19.329C5.32748 19.738 5.29651 20.3709 4.88751 20.7419C4.47651 21.1119 3.84549 21.082 3.47449 20.673C2.84649 19.98 2.50049 19.083 2.50049 18.147V17.64C2.50049 15.475 3.9615 13.6 6.0545 13.08C6.7075 12.92 7.41349 13.0121 7.99249 13.3361C9.22849 14.0161 10.7645 14.0211 12.0175 13.3311C12.5885 13.0131 13.2945 12.919 13.9475 13.08C16.0385 13.599 17.4995 15.474 17.4995 17.639ZM18.9455 13.079C18.4105 12.949 17.8665 13.272 17.7345 13.808C17.6025 14.344 17.9285 14.887 18.4645 15.02C19.6635 15.317 20.5005 16.3939 20.5005 17.6379V18.145C20.5005 18.583 20.3385 19.004 20.0445 19.328C19.6735 19.737 19.7045 20.369 20.1135 20.74C20.3045 20.914 20.5455 21 20.7845 21C21.0565 21 21.3275 20.89 21.5255 20.672C22.1535 19.98 22.4995 19.082 22.4995 18.146V17.639C22.4995 15.474 21.0385 13.599 18.9455 13.079ZM4.99951 8C4.99951 5.243 7.24251 3 9.99951 3C12.7565 3 14.9995 5.243 14.9995 8C14.9995 10.757 12.7565 13 9.99951 13C7.24251 13 4.99951 10.757 4.99951 8ZM6.99951 8C6.99951 9.654 8.34551 11 9.99951 11C11.6535 11 12.9995 9.654 12.9995 8C12.9995 6.346 11.6535 5 9.99951 5C8.34551 5 6.99951 6.346 6.99951 8ZM19.9995 8C19.9995 5.482 18.1185 3.35094 15.6235 3.03894C15.0745 2.97594 14.5755 3.35898 14.5075 3.90698C14.4395 4.45498 14.8275 4.95495 15.3765 5.02295C16.8725 5.20995 18.0005 6.489 18.0005 8C18.0005 8.915 17.5905 9.76904 16.8755 10.342C16.4445 10.688 16.3755 11.3169 16.7205 11.7469C16.9175 11.9939 17.2085 12.1219 17.5015 12.1219C17.7205 12.1219 17.9415 12.05 18.1265 11.902C19.3165 10.948 19.9995 9.525 19.9995 8Z" fill="black"/>
</svg>
