<svg width="25" height="24" viewBox="0 0 25 24" fill="none" xmlns="http://www.w3.org/2000/svg">
<path d="M12.5 13C15.257 13 17.5 10.757 17.5 8C17.5 5.243 15.257 3 12.5 3C9.743 3 7.5 5.243 7.5 8C7.5 10.757 9.743 13 12.5 13ZM12.5 5C14.154 5 15.5 6.346 15.5 8C15.5 9.654 14.154 11 12.5 11C10.846 11 9.5 9.654 9.5 8C9.5 6.346 10.846 5 12.5 5ZM19.5 17.4V18.266C19.5 19.155 19.175 20.007 18.585 20.666C18.388 20.887 18.114 20.999 17.84 20.999C17.602 20.999 17.363 20.915 17.173 20.744C16.762 20.375 16.727 19.743 17.095 19.332C17.357 19.04 17.5 18.661 17.5 18.266V17.4C17.5 16.266 16.75 15.286 15.677 15.016C15.546 14.985 15.411 14.999 15.303 15.061C13.555 16.034 11.434 16.027 9.70898 15.068C9.58998 15 9.45299 14.983 9.32599 15.016C8.24999 15.286 7.5 16.266 7.5 17.4V18.266C7.5 18.662 7.64403 19.04 7.90503 19.332C8.27303 19.743 8.23803 20.375 7.82703 20.744C7.41703 21.112 6.78598 21.078 6.41498 20.666C5.82498 20.007 5.5 19.154 5.5 18.266V17.4C5.5 15.347 6.87197 13.569 8.83698 13.077C9.46098 12.916 10.138 13.009 10.691 13.327C11.8 13.942 13.187 13.9489 14.32 13.3199C14.863 13.0079 15.541 12.922 16.166 13.077C18.128 13.569 19.5 15.348 19.5 17.4ZM17.558 3.83801C17.741 3.31701 18.315 3.045 18.833 3.229C20.429 3.792 21.5 5.308 21.5 7C21.5 8.137 21.014 9.22396 20.167 9.98096C19.977 10.152 19.737 10.236 19.5 10.236C19.226 10.236 18.952 10.124 18.755 9.90295C18.387 9.49195 18.422 8.85897 18.833 8.49097C19.257 8.11197 19.5 7.568 19.5 7C19.5 6.154 18.964 5.39604 18.167 5.11304C17.646 4.93004 17.373 4.35801 17.558 3.83801ZM22.5 14.834V15.556C22.5 16.109 22.053 16.556 21.5 16.556C20.947 16.556 20.5 16.109 20.5 15.556V14.834C20.5 13.966 19.927 13.215 19.106 13.009C18.57 12.874 18.245 12.331 18.379 11.796C18.514 11.259 19.062 10.933 19.592 11.069C21.305 11.499 22.5 13.047 22.5 14.834ZM4.83301 10.426C3.98601 9.66703 3.5 8.57995 3.5 7.44495C3.5 5.75395 4.57199 4.23695 6.16699 3.67395C6.68499 3.48995 7.25902 3.76196 7.44202 4.28296C7.62702 4.80396 7.35401 5.37498 6.83301 5.55798C6.03601 5.83998 5.5 6.59895 5.5 7.44495C5.5 8.01295 5.74299 8.55604 6.16699 8.93604C6.57799 9.30504 6.613 9.93702 6.245 10.348C6.047 10.569 5.77402 10.681 5.49902 10.681C5.26202 10.681 5.02301 10.597 4.83301 10.426ZM5.89502 13.453C5.07402 13.659 4.5 14.41 4.5 15.278V16C4.5 16.553 4.052 17 3.5 17C2.948 17 2.5 16.553 2.5 16V15.278C2.5 13.492 3.69498 11.9429 5.40698 11.5129C5.93998 11.3799 6.486 11.703 6.62 12.239C6.755 12.775 6.43002 13.318 5.89502 13.453Z" fill="black"/>
</svg>
