<svg width="25" height="24" viewBox="0 0 25 24" fill="none" xmlns="http://www.w3.org/2000/svg">
<path d="M7.50049 7.5C7.50049 4.743 9.74349 2.5 12.5005 2.5C15.2575 2.5 17.5005 4.743 17.5005 7.5C17.5005 10.257 15.2575 12.5 12.5005 12.5C9.74349 12.5 7.50049 10.257 7.50049 7.5ZM16.6175 13.571C16.0585 13.429 15.4505 13.5091 14.9475 13.7891C13.4295 14.6331 11.5715 14.6331 10.0535 13.7891C9.55147 13.5101 8.94248 13.431 8.38348 13.571C6.39148 14.074 5.00049 15.882 5.00049 17.967V18.978C5.00049 19.616 5.17047 20.2399 5.49347 20.7839C5.75647 21.2259 6.2495 21.501 6.7785 21.501H18.2215C18.7505 21.501 19.2435 21.227 19.5065 20.783C19.8295 20.24 19.9995 19.616 19.9995 18.978V17.967C20.0005 15.882 18.6095 14.074 16.6175 13.571Z" fill="black"/>
</svg>
