<svg width="25" height="24" viewBox="0 0 25 24" fill="none" xmlns="http://www.w3.org/2000/svg">
<path d="M22 17.6399V18.1499C22 18.8899 21.75 19.5999 21.29 20.1699C21.12 20.3899 20.84 20.5 20.55 20.5H17.87C18.28 19.79 18.5 18.9799 18.5 18.1499V17.6399C18.5 16.1999 17.97 14.8701 17.07 13.8601C17.14 13.8401 17.2 13.8 17.26 13.77C17.72 13.51 18.29 13.4301 18.83 13.5601C20.69 14.0301 22 15.6999 22 17.6399ZM15 3.5C14.68 3.5 14.37 3.5301 14.07 3.6001C15.26 4.6901 16 6.26 16 8C16 9.74 15.26 11.3099 14.07 12.3999C14.37 12.4699 14.68 12.5 15 12.5C17.48 12.5 19.5 10.48 19.5 8C19.5 5.52 17.48 3.5 15 3.5ZM10 3.5C7.52 3.5 5.5 5.52 5.5 8C5.5 10.48 7.52 12.5 10 12.5C12.48 12.5 14.5 10.48 14.5 8C14.5 5.52 12.48 3.5 10 3.5ZM13.83 13.5601C13.65 13.5201 13.48 13.5 13.3 13.5C12.93 13.5 12.57 13.59 12.26 13.77C11.56 14.15 10.78 14.3401 10 14.3401C9.22 14.3401 8.45001 14.15 7.76001 13.78C7.43001 13.6 7.06 13.5 6.69 13.5C6.53 13.5 6.37998 13.52 6.22998 13.55C4.32998 13.99 3 15.6799 3 17.6399V18.1499C3 18.8899 3.25002 19.5999 3.71002 20.1699C3.88002 20.3899 4.16001 20.5 4.45001 20.5H15.55C15.84 20.5 16.12 20.3899 16.29 20.1699C16.75 19.5999 17 18.8899 17 18.1499V17.6399C17 15.6999 15.69 14.0301 13.83 13.5601Z" fill="black"/>
</svg>
