<svg width="25" height="24" viewBox="0 0 25 24" fill="none" xmlns="http://www.w3.org/2000/svg">
<path d="M4.22101 17.2803C3.90401 17.2803 3.59201 17.1304 3.39801 16.8494C2.81101 16.0004 2.5 15.0153 2.5 13.9993V9.9993C2.5 7.2423 4.743 4.9993 7.5 4.9993H11.5C12.516 4.9993 13.501 5.31028 14.349 5.89628C14.803 6.21028 14.916 6.83437 14.602 7.28837C14.288 7.74337 13.665 7.8553 13.21 7.5413C12.698 7.1873 12.107 6.9993 11.5 6.9993H7.5C5.846 6.9993 4.5 8.3453 4.5 9.9993V13.9993C4.5 14.6053 4.68799 15.1972 5.04199 15.7102C5.35599 16.1642 5.243 16.7873 4.789 17.1023C4.616 17.2233 4.41701 17.2803 4.22101 17.2803ZM22.5 9.23832V14.7613C22.5 15.5733 22.056 16.3173 21.34 16.6993C21.014 16.8743 20.656 16.9612 20.3 16.9612C19.874 16.9612 19.45 16.8383 19.082 16.5933L16.417 14.8223C16.022 17.1873 13.975 18.9993 11.5 18.9993H7.5C7.32 18.9993 7.13602 18.9883 6.94702 18.9663L5.20697 20.7063C5.01197 20.9013 4.756 20.9993 4.5 20.9993C4.244 20.9993 3.98803 20.9013 3.79303 20.7063C3.40203 20.3153 3.40203 19.6833 3.79303 19.2923L19.793 3.29227C20.184 2.90127 20.816 2.90127 21.207 3.29227C21.598 3.68327 21.598 4.31534 21.207 4.70634L17.37 8.54325L19.082 7.40531C19.758 6.95531 20.623 6.91435 21.34 7.29935C22.056 7.68335 22.5 8.42632 22.5 9.23832ZM14.5 14.0003V11.4143L8.914 17.0003H11.5C13.154 17.0003 14.5 15.6543 14.5 14.0003ZM20.5 9.23832C20.5 9.15932 20.465 9.09929 20.395 9.06229C20.324 9.02329 20.254 9.0283 20.189 9.0723L16.5 11.5242V12.4764L20.189 14.9283C20.254 14.9723 20.324 14.9773 20.395 14.9383C20.465 14.9013 20.5 14.8412 20.5 14.7622V9.23832Z" fill="black"/>
</svg>
