<svg width="25" height="24" viewBox="0 0 25 24" fill="none" xmlns="http://www.w3.org/2000/svg">
<path d="M3.63929 16.5794C3.09785 15.8184 2.81201 14.9273 2.81201 14.0003V10.0003C2.81201 7.51928 4.84394 5.50028 7.34082 5.50028H12.3728C13.036 5.50028 13.6681 5.6422 14.2508 5.9202C14.3977 5.9892 14.5024 6.12617 14.5286 6.28617C14.5557 6.44617 14.5044 6.6094 14.3886 6.7244L4.40515 16.6443C4.31055 16.7383 4.18173 16.7903 4.04888 16.7903C4.03479 16.7903 4.02071 16.7894 4.00662 16.7884C3.85969 16.7754 3.72484 16.6994 3.63929 16.5794ZM21.4717 7.85038C20.9554 7.57738 20.3365 7.60826 19.8534 7.92826L18.7061 8.68827C18.6015 8.75827 18.538 8.87628 18.538 9.00028V15.0003C18.538 15.1253 18.6005 15.2423 18.7061 15.3123L19.8524 16.0713C20.1161 16.2473 20.421 16.3362 20.728 16.3362C20.9826 16.3362 21.2382 16.2742 21.4727 16.1502C21.991 15.8762 22.312 15.3433 22.312 14.7593V9.2393C22.311 8.65629 21.989 8.12438 21.4717 7.85038ZM21.1355 4.70731C21.529 4.31631 21.529 3.68425 21.1355 3.29325C20.742 2.90225 20.106 2.90225 19.7125 3.29325L3.61012 19.2932C3.21661 19.6842 3.21661 20.3163 3.61012 20.7073C3.80637 20.9023 4.06397 21.0003 4.32161 21.0003C4.57925 21.0003 4.83686 20.9023 5.03311 20.7073L7.2633 18.4912C7.29047 18.4912 7.31364 18.5003 7.34082 18.5003H12.3728C14.8697 18.5003 16.9016 16.4813 16.9016 14.0003V10.0003C16.9016 9.66528 16.8634 9.33923 16.7919 9.02323L21.1355 4.70731Z" fill="black"/>
</svg>
