<svg width="25" height="24" viewBox="0 0 25 24" fill="none" xmlns="http://www.w3.org/2000/svg">
<path d="M16.75 10V14C16.75 16.481 14.731 18.5 12.25 18.5H7.25C4.769 18.5 2.75 16.481 2.75 14V10C2.75 7.519 4.769 5.5 7.25 5.5H12.25C14.731 5.5 16.75 7.519 16.75 10ZM21.349 7.73901C20.797 7.44401 20.13 7.47697 19.613 7.82397L18.473 8.58398C18.334 8.67698 18.25 8.833 18.25 9V15C18.25 15.167 18.333 15.323 18.473 15.416L19.612 16.175C19.896 16.365 20.223 16.4609 20.551 16.4609C20.824 16.4609 21.098 16.395 21.349 16.261C21.905 15.965 22.25 15.39 22.25 14.76V9.23999C22.25 8.60999 21.905 8.03501 21.349 7.73901Z" fill="black"/>
</svg>
