<svg width="25" height="24" viewBox="0 0 25 24" fill="none" xmlns="http://www.w3.org/2000/svg">
<path d="M21.34 7.30005C20.623 6.91505 19.758 6.95601 19.082 7.40601L16.417 9.177C16.022 6.812 13.975 5 11.5 5H7.5C4.743 5 2.5 7.243 2.5 10V14C2.5 16.757 4.743 19 7.5 19H11.5C13.975 19 16.021 17.187 16.417 14.823L19.082 16.594C19.451 16.839 19.874 16.9619 20.3 16.9619C20.656 16.9619 21.013 16.875 21.34 16.7C22.056 16.317 22.5 15.574 22.5 14.762V9.23901C22.5 8.42601 22.056 7.68305 21.34 7.30005ZM14.5 14C14.5 15.654 13.154 17 11.5 17H7.5C5.846 17 4.5 15.654 4.5 14V10C4.5 8.346 5.846 7 7.5 7H11.5C13.154 7 14.5 8.346 14.5 10V14ZM20.5 14.762C20.5 14.841 20.465 14.901 20.395 14.938C20.324 14.977 20.254 14.972 20.189 14.928L16.5 12.4761V11.5239L20.189 9.07202C20.254 9.02802 20.324 9.02301 20.395 9.06201C20.465 9.09901 20.5 9.15904 20.5 9.23804V14.762Z" fill="black"/>
</svg>
