<svg width="25" height="24" viewBox="0 0 25 24" fill="none" xmlns="http://www.w3.org/2000/svg">
<path d="M13.75 6.51178V17.4908C13.75 18.6788 13.08 19.7257 12.001 20.2217C11.594 20.4097 11.165 20.5008 10.74 20.5008C10.043 20.5008 9.35701 20.2527 8.79901 19.7737L6.20502 17.5479C6.11402 17.4699 5.99898 17.4268 5.88098 17.4268L5.14301 17.4258C3.82401 17.4248 2.75 16.3477 2.75 15.0257V8.97491C2.75 7.65391 3.82303 6.57777 5.14203 6.57477L5.88098 6.57379C5.99898 6.57279 6.11398 6.53067 6.20398 6.45367L8.79999 4.22687C9.69799 3.45587 10.928 3.28385 12.001 3.77985C13.08 4.27585 13.75 5.32178 13.75 6.51178ZM17.047 8.39679C16.713 7.95879 16.086 7.86989 15.646 8.20489C15.206 8.53889 15.12 9.16577 15.454 9.60577C15.975 10.2928 16.251 11.1218 16.251 12.0018C16.251 12.8818 15.976 13.7108 15.454 14.3978C15.12 14.8378 15.206 15.4649 15.646 15.7989C15.827 15.9359 16.04 16.0018 16.25 16.0018C16.553 16.0018 16.851 15.8648 17.048 15.6058C17.835 14.5688 18.251 13.3218 18.251 12.0018C18.251 10.6818 17.834 9.43379 17.047 8.39679ZM19.693 5.33185C19.323 4.92085 18.692 4.88887 18.281 5.25787C17.871 5.62687 17.837 6.25874 18.207 6.66974C19.524 8.13474 20.25 10.0278 20.25 12.0008C20.25 13.9738 19.524 15.8668 18.207 17.3318C17.837 17.7428 17.871 18.3747 18.281 18.7437C18.472 18.9157 18.712 19.0008 18.95 19.0008C19.223 19.0008 19.496 18.8897 19.693 18.6697C21.341 16.8367 22.25 14.4678 22.25 12.0008C22.25 9.53379 21.342 7.16485 19.693 5.33185Z" fill="black"/>
</svg>
