<svg width="25" height="24" viewBox="0 0 25 24" fill="none" xmlns="http://www.w3.org/2000/svg">
<path d="M12.46 3.32398C11.205 2.74798 9.772 2.94705 8.724 3.84705L6.13098 6.073L5.39099 6.07398C3.79699 6.07698 2.5 7.378 2.5 8.974V15.0249C2.5 16.6229 3.79803 17.9231 5.39203 17.9251L6.12903 17.926L8.724 20.1521C9.375 20.7121 10.176 21.001 10.99 21.001C11.485 21.001 11.986 20.8941 12.461 20.6751C13.72 20.0971 14.501 18.876 14.501 17.489V6.51001C14.5 5.12401 13.719 3.90298 12.46 3.32398ZM12.5 17.489C12.5 18.094 12.173 18.6059 11.624 18.8579C11.079 19.1099 10.48 19.025 10.025 18.634L7.43103 16.408C7.06903 16.097 6.60698 15.926 6.13098 15.926L5.39398 15.9251C4.90098 15.9251 4.49902 15.5209 4.49902 15.0249V8.974C4.49902 8.479 4.89998 8.07498 5.39398 8.07398L6.13501 8.073C6.61101 8.071 7.07203 7.89894 7.43103 7.59094L10.025 5.36499C10.308 5.12399 10.644 4.99903 10.99 4.99903C11.202 4.99903 11.417 5.04597 11.625 5.14197C12.173 5.39397 12.5 5.90599 12.5 6.51099V17.489ZM18.5 12C18.5 13.32 18.084 14.567 17.297 15.604C17.1 15.863 16.802 16 16.499 16C16.289 16 16.076 15.9341 15.895 15.7971C15.455 15.4631 15.369 14.836 15.703 14.396C16.224 13.709 16.5 12.88 16.5 12C16.5 11.12 16.225 10.291 15.703 9.60401C15.369 9.16401 15.455 8.537 15.895 8.203C16.335 7.868 16.962 7.95702 17.296 8.39502C18.084 9.43302 18.5 10.68 18.5 12ZM22.5 12C22.5 14.467 21.592 16.8359 19.943 18.6689C19.746 18.8889 19.473 19 19.2 19C18.962 19 18.722 18.9149 18.531 18.7429C18.121 18.3739 18.087 17.7421 18.457 17.3311C19.774 15.8661 20.5 13.973 20.5 12C20.5 10.027 19.774 8.13395 18.457 6.66895C18.087 6.25795 18.121 5.62596 18.531 5.25696C18.942 4.88696 19.573 4.92006 19.943 5.33106C21.592 7.16406 22.5 9.533 22.5 12Z" fill="black"/>
</svg>
