<svg width="24" height="24" viewBox="0 0 24 24" fill="none" xmlns="http://www.w3.org/2000/svg">
<path opacity="0.28" d="M3.40041 7.21924C3.04688 8.22958 3.04688 9.48639 3.04688 12C3.04688 14.5136 3.04688 15.7704 3.40041 16.7808C4.03363 18.5904 5.45647 20.0132 7.26612 20.6465C8.27645 21 9.53327 21 12.0469 21C14.5605 21 15.8173 21 16.8277 20.6465C18.6373 20.0132 20.0601 18.5904 20.6934 16.7808C21.0469 15.7704 21.0469 14.5136 21.0469 12C21.0469 9.48639 21.0469 8.22958 20.6934 7.21924C20.0601 5.40959 18.6373 3.98676 16.8277 3.35354C15.8173 3 14.5605 3 12.0469 3C9.53327 3 8.27645 3 7.26612 3.35354C5.45647 3.98676 4.03363 5.40959 3.40041 7.21924Z" fill="#111111"/>
<path d="M17.0469 6.99945H17.0569M3.04688 12C3.04688 9.48639 3.04687 8.22958 3.40041 7.21924C4.03363 5.40959 5.45647 3.98676 7.26612 3.35354C8.27646 3 9.53327 3 12.0469 3C14.5605 3 15.8173 3 16.8277 3.35354C18.6373 3.98676 20.0601 5.40959 20.6934 7.21924C21.0469 8.22958 21.0469 9.48639 21.0469 12C21.0469 14.5136 21.0469 15.7704 20.6934 16.7808C20.0601 18.5904 18.6373 20.0132 16.8277 20.6465C15.8173 21 14.5605 21 12.0469 21C9.53327 21 8.27646 21 7.26612 20.6465C5.45647 20.0132 4.03363 18.5904 3.40041 16.7808C3.04687 15.7704 3.04688 14.5136 3.04688 12ZM15.8244 11.4398C15.9422 12.2344 15.8065 13.0458 15.4365 13.7588C15.0666 14.4718 14.4813 15.0499 13.7638 15.4111C13.0463 15.7722 12.2332 15.8979 11.4402 15.7703C10.6472 15.6427 9.91455 15.2683 9.34658 14.7003C8.77861 14.1323 8.4042 13.3997 8.2766 12.6067C8.14899 11.8137 8.27469 11.0006 8.63581 10.2831C8.99693 9.56564 9.5751 8.98031 10.2881 8.61036C11.0011 8.24042 11.8125 8.1047 12.607 8.22253C13.4175 8.3427 14.1678 8.72036 14.7472 9.29971C15.3265 9.87907 15.7042 10.6294 15.8244 11.4398Z" stroke="#111111" stroke-width="2" stroke-linecap="round" stroke-linejoin="round"/>
</svg>
