<svg width="24" height="24" viewBox="0 0 24 24" fill="none" xmlns="http://www.w3.org/2000/svg">
<path opacity="0.28" d="M3.40041 7.21924C3.04688 8.22958 3.04688 9.48639 3.04688 12C3.04688 14.5136 3.04688 15.7704 3.40041 16.7808C4.03363 18.5904 5.45647 20.0132 7.26612 20.6465C8.27645 21 9.53327 21 12.0469 21C14.5605 21 15.8173 21 16.8277 20.6465C18.6373 20.0132 20.0601 18.5904 20.6934 16.7808C21.0469 15.7704 21.0469 14.5136 21.0469 12C21.0469 9.48639 21.0469 8.22958 20.6934 7.21924C20.0601 5.40959 18.6373 3.98676 16.8277 3.35354C15.8173 3 14.5605 3 12.0469 3C9.53327 3 8.27645 3 7.26612 3.35354C5.45647 3.98676 4.03363 5.40959 3.40041 7.21924Z" stroke="#111111" stroke-width="2" stroke-linecap="round" stroke-linejoin="round"/>
<path d="M17.0453 6.99951H17.0553M15.8228 11.4399C15.9406 12.2345 15.8049 13.0459 15.4349 13.7589C15.065 14.4719 14.4797 15.05 13.7622 15.4112C13.0447 15.7723 12.2316 15.898 11.4386 15.7704C10.6456 15.6428 9.91303 15.2684 9.34506 14.7004C8.77709 14.1324 8.40267 13.3998 8.27507 12.6068C8.14746 11.8138 8.27316 11.0007 8.63428 10.2832C8.9954 9.5657 9.57357 8.98037 10.2865 8.61042C10.9995 8.24048 11.8109 8.10476 12.6054 8.22259C13.4159 8.34276 14.1662 8.72042 14.7456 9.29977C15.3249 9.87913 15.7026 10.6295 15.8228 11.4399Z" stroke="#111111" stroke-width="2" stroke-linecap="round" stroke-linejoin="round"/>
</svg>
