<svg width="24" height="24" viewBox="0 0 24 24" fill="none" xmlns="http://www.w3.org/2000/svg">
<path opacity="0.28" d="M22.9477 8.90516C22.9286 8.60395 22.5947 8.44323 22.3401 8.60527L16.6723 12.2121C15.27 13.105 14.3546 13.6879 13.3485 13.92C12.4612 14.1246 11.5388 14.1246 10.6515 13.92C9.64539 13.6879 8.72998 13.105 7.32767 12.2121L1.6599 8.60527C1.40528 8.44324 1.07145 8.60395 1.05229 8.90514C0.99988 9.72889 0.999937 10.7019 1 11.8721L1.00001 12.0438C1 13.4068 0.999995 14.4909 1.07145 15.3655C1.14463 16.2611 1.29769 17.0247 1.65397 17.724C2.22921 18.8529 3.14709 19.7708 4.27607 20.3461C4.97531 20.7024 5.73899 20.8554 6.63459 20.9286C7.50915 21 8.59314 21 9.95614 21H14.0438C15.4068 21 16.4909 21 17.3654 20.9286C18.261 20.8554 19.0247 20.7024 19.724 20.3461C20.8529 19.7708 21.7708 18.8529 22.346 17.724C22.7023 17.0247 22.8554 16.2611 22.9286 15.3655C23 14.4909 23 13.4069 23 12.0439L23 11.8721C23.0001 10.7019 23.0001 9.7289 22.9477 8.90516Z" fill="#111111"/>
<path d="M14.0444 3H9.95687C8.59384 2.99999 7.5098 2.99999 6.63521 3.07144C5.73961 3.14462 4.97594 3.29768 4.27669 3.65396C3.29537 4.15397 2.47353 4.91286 1.89758 5.84423C1.76141 6.06443 1.83949 6.34851 2.05791 6.48751L8.24249 10.4231C9.86211 11.4538 10.4725 11.826 11.1016 11.9711C11.6932 12.1076 12.3081 12.1076 12.8996 11.9711C13.5287 11.826 14.1391 11.4538 15.7587 10.4231L21.9433 6.48749C22.1618 6.3485 22.2398 6.06441 22.1037 5.84422C21.5277 4.91285 20.7059 4.15397 19.7246 3.65396C19.0253 3.29768 18.2617 3.14462 17.3661 3.07144C16.4915 2.99999 15.4074 2.99999 14.0444 3Z" fill="#111111"/>
</svg>
