<svg width="24" height="24" viewBox="0 0 24 24" fill="none" xmlns="http://www.w3.org/2000/svg">
<path opacity="0.28" d="M21.8032 7.76172C22 8.72202 22 10.0061 22 12.0001C22 14.8004 22 16.2005 21.455 17.2701C20.9757 18.2109 20.2108 18.9758 19.27 19.4552C18.2004 20.0001 16.8003 20.0001 14 20.0001H10C7.19974 20.0001 5.79961 20.0001 4.73005 19.4552C3.78924 18.9758 3.02433 18.2109 2.54497 17.2701C2 16.2005 2 14.8004 2 12.0001C2 10.0061 2 8.72202 2.19678 7.76172" stroke="#111111" stroke-width="2" stroke-linecap="round" stroke-linejoin="round"/>
<path d="M14.0005 4H10.0005C7.20022 4 5.80009 4 4.73054 4.54497C3.78972 5.02433 3.02482 5.78924 2.54546 6.73005C2.38855 7.03798 2.27683 7.37332 2.19727 7.76159L7.70548 11.2668L7.70549 11.2668C9.26202 12.2573 10.0403 12.7526 10.8767 12.9455C11.6162 13.1161 12.3848 13.1161 13.1243 12.9455C13.9607 12.7526 14.739 12.2573 16.2955 11.2668L21.8037 7.76159C21.7241 7.37332 21.6124 7.03798 21.4555 6.73005C20.9762 5.78924 20.2113 5.02433 19.2704 4.54497C18.2009 4 16.8007 4 14.0005 4Z" stroke="#111111" stroke-width="2" stroke-linecap="round" stroke-linejoin="round"/>
</svg>
