<svg width="24" height="24" viewBox="0 0 24 24" fill="none" xmlns="http://www.w3.org/2000/svg">
<path opacity="0.28" d="M10.9995 17.2006V17.0003L6.44979 17.0003C6.03317 17.0004 5.7645 17.0004 5.52888 16.9818C4.17877 16.8756 2.95612 16.326 2.00586 15.4781C2.02237 16.4626 2.08176 17.2031 2.29333 17.8543C2.88683 19.6809 4.31894 21.113 6.14556 21.7065C7.05171 22.0009 8.13109 22.0006 9.80009 22.0002H14.1992C15.8682 22.0006 16.9476 22.0009 17.8538 21.7065C19.6804 21.113 21.1125 19.6809 21.706 17.8543C21.9176 17.2031 21.977 16.4625 21.9935 15.478C21.0432 16.326 19.8205 16.8756 18.4704 16.9818C18.2348 17.0004 17.9661 17.0004 17.5495 17.0003L12.9995 17.0003V17.2006C12.9995 17.7529 12.5518 18.2006 11.9995 18.2006C11.4472 18.2006 10.9995 17.7529 10.9995 17.2006Z" fill="#111111"/>
<path fill-rule="evenodd" clip-rule="evenodd" d="M12.1376 2.00005C12.9329 1.99962 13.5236 1.9993 14.0353 2.13639C15.4156 2.50626 16.4938 3.58445 16.8637 4.96482C16.9532 5.29872 16.9841 5.66628 16.9947 6.10242C17.3035 6.14556 17.5863 6.20682 17.8541 6.29383C19.6807 6.88733 21.1128 8.31944 21.7064 10.1461C21.8451 10.5729 21.9184 11.0383 21.957 11.5856C21.6872 13.4178 20.1839 14.8408 18.3138 14.988C18.167 14.9996 17.9833 15.0003 17.5 15.0003H12.9999V14.8006C12.9999 14.2483 12.5521 13.8006 11.9999 13.8006C11.4476 13.8006 10.9999 14.2483 10.9999 14.8006V15.0003H6.49998C6.01666 15.0003 5.83295 14.9996 5.68615 14.988C3.81612 14.8408 2.31288 13.4179 2.04297 11.5859C2.08165 11.0384 2.15495 10.573 2.29368 10.1461C2.88718 8.31944 4.31929 6.88733 6.14591 6.29383C6.41366 6.20683 6.69654 6.14556 7.00528 6.10243C7.01587 5.66628 7.04681 5.29873 7.13628 4.96482C7.50615 3.58445 8.58434 2.50626 9.96471 2.13639C10.4764 1.9993 11.067 1.99962 11.8624 2.00005H12.1376ZM9.0098 6.0013C9.10172 6.00082 9.19564 6.00052 9.29165 6.00034H14.7084C14.8044 6.00052 14.8983 6.00082 14.9902 6.0013C14.981 5.74297 14.9637 5.60143 14.9318 5.48246C14.7469 4.79227 14.2078 4.25318 13.5176 4.06824C13.2953 4.00869 12.9943 4.0001 12 4.0001C11.0056 4.0001 10.7046 4.00869 10.4823 4.06824C9.79216 4.25318 9.25307 4.79227 9.06813 5.48246C9.03625 5.60143 9.01898 5.74296 9.0098 6.0013Z" fill="#111111"/>
</svg>
