<svg width="24" height="24" viewBox="0 0 24 24" fill="none" xmlns="http://www.w3.org/2000/svg">
<path fill-rule="evenodd" clip-rule="evenodd" d="M12.1372 2.00005C12.9326 1.99962 13.5233 1.9993 14.0349 2.13639C15.4153 2.50626 16.4935 3.58445 16.8633 4.96482C16.9528 5.29872 16.9838 5.66628 16.9943 6.10242C17.3031 6.14556 17.586 6.20682 17.8538 6.29383C19.6804 6.88733 21.1125 8.31944 21.706 10.1461C21.8447 10.5729 21.918 11.0383 21.9567 11.5856C21.6869 13.4178 20.1836 14.8408 18.3135 14.988C18.1667 14.9996 17.983 15.0003 17.4996 15.0003H12.9995V14.8006C12.9995 14.2483 12.5518 13.8006 11.9995 13.8006C11.4472 13.8006 10.9995 14.2483 10.9995 14.8006V15.0003H6.49963C6.01631 15.0003 5.8326 14.9996 5.6858 14.988C3.81577 14.8408 2.31253 13.4179 2.04262 11.5859C2.0813 11.0384 2.1546 10.573 2.29333 10.1461C2.88683 8.31944 4.31894 6.88733 6.14556 6.29383C6.41331 6.20683 6.69619 6.14556 7.00493 6.10243C7.01552 5.66628 7.04646 5.29873 7.13593 4.96482C7.5058 3.58445 8.58399 2.50626 9.96436 2.13639C10.476 1.9993 11.0667 1.99962 11.8621 2.00005H12.1372ZM9.00945 6.0013C9.10137 6.00082 9.19529 6.00052 9.2913 6.00034H14.708C14.804 6.00052 14.8979 6.00082 14.9898 6.0013C14.9806 5.74297 14.9634 5.60143 14.9315 5.48246C14.7466 4.79227 14.2075 4.25318 13.5173 4.06824C13.295 4.00869 12.994 4.0001 11.9996 4.0001C11.0053 4.0001 10.7043 4.00869 10.482 4.06824C9.79181 4.25318 9.25272 4.79227 9.06778 5.48246C9.0359 5.60143 9.01863 5.74296 9.00945 6.0013Z" fill="#111111"/>
<path d="M10.9995 17.2006V17.0003L6.44979 17.0003C6.03317 17.0004 5.7645 17.0004 5.52888 16.9818C4.17877 16.8756 2.95612 16.326 2.00586 15.4781C2.02237 16.4626 2.08176 17.2031 2.29333 17.8543C2.88683 19.6809 4.31894 21.113 6.14556 21.7065C7.05171 22.0009 8.13109 22.0006 9.80009 22.0002H14.1992C15.8682 22.0006 16.9476 22.0009 17.8538 21.7065C19.6804 21.113 21.1125 19.6809 21.706 17.8543C21.9176 17.2031 21.977 16.4626 21.9935 15.478C21.0432 16.326 19.8205 16.8756 18.4704 16.9818C18.2348 17.0004 17.9661 17.0004 17.5495 17.0003L12.9995 17.0003V17.2006C12.9995 17.7529 12.5518 18.2006 11.9995 18.2006C11.4472 18.2006 10.9995 17.7529 10.9995 17.2006Z" fill="#111111"/>
</svg>
