<svg width="24" height="24" viewBox="0 0 24 24" fill="none" xmlns="http://www.w3.org/2000/svg">
<path opacity="0.28" d="M3.35354 7.21924C3 8.22958 3 9.48639 3 12C3 14.5136 3 15.7704 3.35354 16.7808C3.98676 18.5904 5.40959 20.0132 7.21924 20.6465C8.22958 21 9.48639 21 12 21C14.5136 21 15.7704 21 16.7808 20.6465C18.5904 20.0132 20.0132 18.5904 20.6465 16.7808C21 15.7704 21 14.5136 21 12C21 9.48639 21 8.22958 20.6465 7.21924C20.0132 5.40959 18.5904 3.98676 16.7808 3.35354C15.7704 3 14.5136 3 12 3C9.48639 3 8.22958 3 7.21924 3.35354C5.40959 3.98676 3.98676 5.40959 3.35354 7.21924Z" stroke="#111111" stroke-width="2" stroke-linecap="round" stroke-linejoin="round"/>
<path d="M14.5961 7L14.5522 7C13.9596 6.99998 13.4473 6.99996 13.0253 7.03937C12.5766 7.08127 12.1374 7.17385 11.7214 7.41609C11.1018 7.77688 10.6217 8.33788 10.3279 8.99681C10.1376 9.42391 10.0637 9.87302 10.0293 10.3541C9.99733 10.801 9.99612 11.3455 9.99608 12H8.74609C8.19381 12 7.74609 12.4477 7.74609 13C7.74609 13.5523 8.19381 14 8.74609 14H9.99608V19.9884C10.5405 19.9986 11.1942 20 11.9961 20V14H14.7461C15.2984 14 15.7461 13.5523 15.7461 13C15.7461 12.4477 15.2984 12 14.7461 12H11.9961C11.9962 11.3275 11.9981 10.8612 12.0242 10.4967C12.0511 10.1202 12.0998 9.93413 12.1547 9.81113C12.2923 9.50247 12.5006 9.27669 12.7278 9.14443C12.7931 9.10642 12.9095 9.05887 13.2112 9.03071C13.5292 9.00102 13.9472 9 14.5961 9C15.1484 9 15.5961 8.55229 15.5961 8C15.5961 7.44772 15.1484 7 14.5961 7Z" fill="#111111"/>
<path d="M11.0257 21.9996C11.0041 21.9995 10.9827 21.9995 10.9613 21.9994C10.9728 21.9998 10.9844 22 10.9961 22C11.006 22 11.0159 21.9999 11.0257 21.9996Z" fill="#111111"/>
</svg>
