<svg width="24" height="24" viewBox="0 0 24 24" fill="none" xmlns="http://www.w3.org/2000/svg">
<path fill-rule="evenodd" clip-rule="evenodd" d="M1.84961 12.0001C1.84961 6.39441 6.39392 1.8501 11.9996 1.8501C17.6053 1.8501 22.1496 6.39441 22.1496 12.0001C22.1496 17.6058 17.6053 22.1501 11.9996 22.1501C6.39392 22.1501 1.84961 17.6058 1.84961 12.0001ZM12.9994 8.90002C12.9994 8.34774 12.5517 7.90002 11.9994 7.90002C11.4471 7.90002 10.9994 8.34774 10.9994 8.90002V11H8.89941C8.34713 11 7.89941 11.4477 7.89941 12C7.89941 12.5523 8.34713 13 8.89941 13H10.9994V15.1C10.9994 15.6523 11.4471 16.1 11.9994 16.1C12.5517 16.1 12.9994 15.6523 12.9994 15.1V13H15.0994C15.6517 13 16.0994 12.5523 16.0994 12C16.0994 11.4477 15.6517 11 15.0994 11H12.9994V8.90002Z" fill="#111111"/>
</svg>
