<svg width="24" height="24" viewBox="0 0 24 24" fill="none" xmlns="http://www.w3.org/2000/svg">
<path opacity="0.28" d="M10 14.999C9.34732 15.6984 8.98919 16.6224 9 17.579V20.999M14 14.999C14.6527 15.6984 15.0108 16.6224 15 17.579V20.999M9 19.049C8.10549 19.4053 7.13532 19.5291 6.18 19.409C4.66 18.889 5.06 17.509 4.28 16.939C3.90518 16.671 3.46037 16.5181 3 16.499" stroke="#111111" stroke-width="2" stroke-linecap="round" stroke-linejoin="round"/>
<path fill-rule="evenodd" clip-rule="evenodd" d="M18.9998 9.74927C18.9998 12.7493 17.0498 14.9993 11.9998 14.9993C6.94982 14.9993 4.99982 12.7493 4.99982 9.74927C4.97512 8.70844 5.20875 7.67772 5.67982 6.74927C5.33982 5.27927 5.46982 3.46927 6.19982 3.10927C6.92982 2.74927 8.46982 3.40927 9.73982 4.25927C10.4858 4.12615 11.2421 4.05922 11.9998 4.05927C12.757 4.05262 13.5133 4.11285 14.2598 4.23927C15.5298 3.38927 17.1398 2.75927 17.7998 3.08927C18.4598 3.41927 18.6598 5.25927 18.3198 6.72927C18.7941 7.66371 19.0279 8.70171 18.9998 9.74927Z" stroke="#111111" stroke-width="2" stroke-linecap="round" stroke-linejoin="round"/>
</svg>
