<svg width="24" height="24" viewBox="0 0 24 24" fill="none" xmlns="http://www.w3.org/2000/svg">
<path opacity="0.28" d="M16.9013 16.9018C17.137 16.8669 17.3469 16.8195 17.5446 16.7553C19.0667 16.2607 20.2602 15.0673 20.7548 13.5451C20.9995 12.7919 20.9995 11.8613 20.9995 10C20.9995 8.13872 20.9995 7.20808 20.7548 6.45492C20.2602 4.93273 19.0667 3.73931 17.5446 3.24472C16.7914 3 15.8608 3 13.9995 3C12.1382 3 11.2075 3 10.4544 3.24472C8.93219 3.73931 7.73878 4.93273 7.24419 6.45492C7.17996 6.65258 7.13259 6.86246 7.09766 7.09819" stroke="#111111" stroke-width="2" stroke-linecap="round" stroke-linejoin="round"/>
<path d="M3 14C3 12.1387 3 11.2081 3.24472 10.4549C3.73931 8.93273 4.93273 7.73931 6.45492 7.24472C7.20808 7 8.13872 7 10 7C11.8613 7 12.7919 7 13.5451 7.24472C15.0673 7.73931 16.2607 8.93273 16.7553 10.4549C17 11.2081 17 12.1387 17 14C17 15.8613 17 16.7919 16.7553 17.5451C16.2607 19.0673 15.0673 20.2607 13.5451 20.7553C12.7919 21 11.8613 21 10 21C8.13872 21 7.20808 21 6.45492 20.7553C4.93273 20.2607 3.73931 19.0673 3.24472 17.5451C3 16.7919 3 15.8613 3 14Z" stroke="#111111" stroke-width="2" stroke-linecap="round" stroke-linejoin="round"/>
</svg>
