<svg width="24" height="24" viewBox="0 0 24 24" fill="none" xmlns="http://www.w3.org/2000/svg">
<path opacity="0.28" d="M16.9013 16.9018C17.137 16.8669 17.3469 16.8195 17.5446 16.7553C19.0667 16.2607 20.2602 15.0673 20.7548 13.5451C20.9995 12.7919 20.9995 11.8613 20.9995 10C20.9995 8.13872 20.9995 7.20808 20.7548 6.45492C20.2602 4.93273 19.0667 3.73931 17.5446 3.24472C16.7914 3 15.8608 3 13.9995 3C12.1382 3 11.2075 3 10.4544 3.24472C8.93219 3.73931 7.73878 4.93273 7.24419 6.45492C7.17996 6.65258 7.13259 6.86246 7.09766 7.09819" stroke="#111111" stroke-width="2" stroke-linecap="round" stroke-linejoin="round"/>
<path d="M9.8005 6.00003C8.1315 5.99959 7.05211 5.9993 6.14597 6.29373C4.31934 6.88724 2.88724 8.31934 2.29373 10.146C1.9993 11.0521 1.99959 12.1315 2.00003 13.8005V14.1996C1.99959 15.8686 1.9993 16.948 2.29373 17.8542C2.88724 19.6808 4.31934 21.1129 6.14597 21.7064C7.05211 22.0008 8.13149 22.0005 9.80048 22.0001H10.1997C11.8686 22.0005 12.948 22.0008 13.8542 21.7064C15.6808 21.1129 17.1129 19.6808 17.7064 17.8542C18.0008 16.948 18.0005 15.8686 18.0001 14.1996V13.8005C18.0005 12.1315 18.0008 11.0521 17.7064 10.146C17.1129 8.31934 15.6808 6.88724 13.8542 6.29373C12.948 5.9993 11.8686 5.99959 10.1996 6.00003H9.8005Z" fill="#111111"/>
</svg>
