<svg width="24" height="24" viewBox="0 0 24 24" fill="none" xmlns="http://www.w3.org/2000/svg">
<path opacity="0.28" d="M12 1C5.92487 1 1 5.92487 1 12C1 18.0751 5.92487 23 12 23C18.0751 23 23 18.0751 23 12C23 5.92487 18.0751 1 12 1Z" fill="#111111"/>
<path d="M19.3852 17.1441C18.5967 15.8494 17.1337 15 15.4993 15H8.49925C6.86484 15 5.40182 15.8494 4.61328 17.1441C6.23973 19.475 8.94141 21 11.9993 21C15.0571 21 17.7588 19.475 19.3852 17.1441Z" fill="#111111"/>
<path d="M11.9993 6.25C9.9282 6.25 8.24927 7.92893 8.24927 10C8.24927 12.0711 9.9282 13.75 11.9993 13.75C14.0703 13.75 15.7493 12.0711 15.7493 10C15.7493 7.92893 14.0703 6.25 11.9993 6.25Z" fill="#111111"/>
</svg>
