<svg width="24" height="24" viewBox="0 0 24 24" fill="none" xmlns="http://www.w3.org/2000/svg">
<path opacity="0.28" d="M11.7895 2C10.1274 2 7.95001 2.57617 6.169 4.02229C4.35059 5.49878 3 7.84065 3 11.2222C3 14.6327 4.61462 17.4361 6.43852 19.3614C7.35296 20.3266 8.33935 21.0928 9.24497 21.6239C10.1106 22.1315 11.0307 22.5 11.7895 22.5C12.5483 22.5 13.4683 22.1315 14.334 21.6239C15.2396 21.0928 16.226 20.3266 17.1404 19.3614C18.9643 17.4361 20.5789 14.6327 20.5789 11.2222C20.5789 7.84065 19.2284 5.49878 17.4099 4.02229C15.6289 2.57617 13.4516 2 11.7895 2Z" fill="#111111"/>
<path d="M11.7902 7.36841C9.9008 7.36841 8.36914 8.90007 8.36914 10.7895C8.36914 12.6789 9.9008 14.2105 11.7902 14.2105C13.6796 14.2105 15.2112 12.6789 15.2112 10.7895C15.2112 8.90007 13.6796 7.36841 11.7902 7.36841Z" fill="#111111"/>
</svg>
