<svg width="24" height="24" viewBox="0 0 24 24" fill="none" xmlns="http://www.w3.org/2000/svg">
<path d="M7.58397 1.99858C7.96467 1.99828 8.29251 1.99801 8.58536 2.05627C9.77543 2.29299 10.7057 3.22328 10.9424 4.41335C11.0007 4.70621 11.0004 5.03404 11.0001 5.41474L11.0001 5.49862L11.0001 5.58251C11.0004 5.96321 11.0007 6.29104 10.9424 6.58389C10.7057 7.77397 9.77543 8.70426 8.58536 8.94098C8.29251 8.99923 7.96467 8.99897 7.58397 8.99867L5.4162 8.99867C5.03551 8.99897 4.70767 8.99923 4.41482 8.94098C3.22475 8.70426 2.29445 7.77396 2.05773 6.58389C1.99948 6.29105 1.99974 5.96323 2.00004 5.58256L2.00009 5.49862L2.00004 5.41472C1.99974 5.03405 1.99948 4.70619 2.05773 4.41335C2.29445 3.22328 3.22475 2.29299 4.41482 2.05627C4.70767 1.99801 5.03551 1.99828 5.41621 1.99858L7.58397 1.99858Z" fill="#111111"/>
<path d="M17.8386 1.99862C18.3658 1.9986 18.8205 1.99859 19.1951 2.02919C19.5905 2.06149 19.9837 2.13281 20.3621 2.3256C20.9265 2.61322 21.3855 3.07217 21.6731 3.63665C21.8659 4.01503 21.9372 4.40825 21.9695 4.8036C22.0001 5.17816 22.0001 5.63291 22.0001 6.16004V17.8372C22.0001 18.3643 22.0001 18.8191 21.9695 19.1937C21.9372 19.589 21.8659 19.9822 21.6731 20.3606C21.3855 20.9251 20.9265 21.384 20.3621 21.6716C19.9837 21.8644 19.5905 21.9358 19.1951 21.9681C18.8205 21.9987 18.3658 21.9986 17.8387 21.9986H17.1615C16.6344 21.9986 16.1796 21.9987 15.8051 21.9681C15.4097 21.9358 15.0165 21.8644 14.6381 21.6716C14.0736 21.384 13.6147 20.9251 13.3271 20.3606C13.1343 19.9822 13.063 19.589 13.0307 19.1937C13.0001 18.8191 13.0001 18.3643 13.0001 17.8372L13.0001 6.1601C13.0001 5.63296 13.0001 5.17817 13.0307 4.8036C13.063 4.40825 13.1343 4.01503 13.3271 3.63665C13.6147 3.07217 14.0736 2.61322 14.6381 2.3256C15.0165 2.13281 15.4097 2.06149 15.8051 2.02919C16.1796 1.99859 16.6344 1.9986 17.1615 1.99862L17.8386 1.99862Z" fill="#111111"/>
<path d="M6.83863 10.9986C7.36577 10.9986 7.82055 10.9986 8.19512 11.0292C8.59046 11.0615 8.98368 11.1328 9.36206 11.3256C9.92655 11.6132 10.3855 12.0722 10.6731 12.6367C10.8659 13.015 10.9372 13.4082 10.9695 13.8036C11.0001 14.1782 11.0001 14.6329 11.0001 15.1601V17.8371C11.0001 18.3643 11.0001 18.8191 10.9695 19.1937C10.9372 19.589 10.8659 19.9822 10.6731 20.3606C10.3855 20.9251 9.92654 21.384 9.36206 21.6716C8.98368 21.8644 8.59046 21.9358 8.19512 21.9681C7.82055 21.9987 7.36579 21.9986 6.83865 21.9986H6.16152C5.63438 21.9986 5.17963 21.9987 4.80506 21.9681C4.40971 21.9358 4.01649 21.8644 3.63811 21.6716C3.07363 21.384 2.61469 20.9251 2.32707 20.3606C2.13427 19.9822 2.06296 19.589 2.03066 19.1937C2.00005 18.8191 2.00007 18.3643 2.00009 17.8372L2.00009 15.1601C2.00007 14.6329 2.00005 14.1782 2.03066 13.8036C2.06296 13.4082 2.13427 13.015 2.32707 12.6367C2.61469 12.0722 3.07363 11.6132 3.63812 11.3256C4.01649 11.1328 4.40971 11.0615 4.80506 11.0292C5.17963 10.9986 5.63438 10.9986 6.16152 10.9986H6.83863Z" fill="#111111"/>
</svg>
