<svg width="24" height="24" viewBox="0 0 24 24" fill="none" xmlns="http://www.w3.org/2000/svg">
<path opacity="0.28" d="M4.8191 9.60867C5.13039 5.87324 8.25302 3 12.0014 3C15.7498 3 18.8724 5.87324 19.1837 9.60867L19.5389 13.8711C19.5818 14.3856 19.7448 14.8637 19.9061 15.3497C20.2243 16.3078 19.5787 17.3156 18.5752 17.4271C17.334 17.5651 16.0895 17.6639 14.8435 17.7235C12.9499 17.8141 11.0529 17.8141 9.15927 17.7236C7.91305 17.6641 6.66825 17.5653 5.42677 17.4274C4.42239 17.3158 3.77642 16.3065 4.09599 15.3478C4.25802 14.8617 4.42119 14.3836 4.4641 13.8687L4.8191 9.60867Z" fill="#111111"/>
<path d="M9.15927 17.7236C7.91305 17.6641 6.66825 17.5653 5.42677 17.4274C4.42239 17.3158 3.77642 16.3065 4.09599 15.3478C4.25802 14.8617 4.42119 14.3836 4.4641 13.8687L4.8191 9.60867C5.13039 5.87324 8.25302 3 12.0014 3C15.7498 3 18.8724 5.87324 19.1837 9.60867L19.5389 13.8711C19.5818 14.3856 19.7448 14.8637 19.9061 15.3497C20.2243 16.3078 19.5787 17.3156 18.5752 17.4271C17.334 17.5651 16.0895 17.6639 14.8435 17.7235M9.15927 17.7236C11.0529 17.8141 12.9499 17.8141 14.8435 17.7235M9.15927 17.7236L9.1593 18.1579C9.1593 19.7276 10.4318 21 12.0014 21C13.5711 21 14.8435 19.7276 14.8435 18.1579L14.8435 17.7235" stroke="#111111" stroke-width="2" stroke-linecap="round" stroke-linejoin="round"/>
</svg>
