<svg width="24" height="24" viewBox="0 0 24 24" fill="none" xmlns="http://www.w3.org/2000/svg">
<path fill-rule="evenodd" clip-rule="evenodd" d="M3.82116 9.52563C4.17564 5.2719 7.73154 2 12 2C16.2685 2 19.8244 5.2719 20.1789 9.52563L20.5341 13.788C20.5652 14.1618 20.6839 14.5228 20.8538 15.0345C21.3724 16.5965 20.32 18.2392 18.6843 18.421C17.7272 18.5274 16.7682 18.6109 15.8081 18.6714C15.5571 20.5506 13.9478 22 12 22C10.0523 22 8.44303 20.5507 8.19195 18.6716C7.23157 18.6111 6.27229 18.5276 5.31495 18.4213C3.678 18.2394 2.62495 16.5944 3.14592 15.0315C3.31628 14.5205 3.43502 14.1593 3.46616 13.7856L3.82116 9.52563ZM10.2608 18.7665C10.5122 19.4848 11.1959 20 12 20C12.8041 20 13.4879 19.4848 13.7392 18.7664C13.6412 18.7692 13.5433 18.7718 13.4453 18.7742C12.3839 18.7995 11.3221 18.797 10.2608 18.7665Z" fill="#111111"/>
</svg>
