<svg width="24" height="24" viewBox="0 0 24 24" fill="none" xmlns="http://www.w3.org/2000/svg">
<path opacity="0.28" d="M8.16732 1C6.05023 1 4.33398 2.71624 4.33398 4.83333C4.33398 6.95042 6.05023 8.66667 8.16732 8.66667C6.05023 8.66667 4.33398 10.3829 4.33398 12.5C4.33398 14.6171 6.05023 16.3333 8.16732 16.3333C6.05023 16.3333 4.33398 18.0496 4.33398 20.1667C4.33398 22.2838 6.05023 24 8.16732 24C10.2844 24 12.0007 22.2838 12.0007 20.1667V8.66667H15.834C17.9511 8.66667 19.6673 6.95042 19.6673 4.83333C19.6673 2.71624 17.9511 1 15.834 1H8.16732Z" fill="#111111"/>
<path d="M12 12.4998C12 10.3827 13.7162 8.6665 15.8333 8.6665C17.9504 8.6665 19.6667 10.3827 19.6667 12.4998C19.6667 14.6169 17.9504 16.3332 15.8333 16.3332C13.7162 16.3332 12 14.6169 12 12.4998Z" fill="#111111"/>
</svg>
