<svg width="24" height="24" viewBox="0 0 24 24" fill="none" xmlns="http://www.w3.org/2000/svg">
<path d="M4.33398 4.83333C4.33398 2.71624 6.05023 1 8.16732 1H15.834C17.9511 1 19.6673 2.71624 19.6673 4.83333C19.6673 6.95042 17.9511 8.66667 15.834 8.66667H12.0007V12.5V20.1667C12.0007 22.2838 10.2844 24 8.16732 24C6.05023 24 4.33398 22.2838 4.33398 20.1667C4.33398 18.0496 6.05023 16.3333 8.16732 16.3333C6.05023 16.3333 4.33398 14.6171 4.33398 12.5C4.33398 10.3829 6.05023 8.66667 8.16732 8.66667C6.05023 8.66667 4.33398 6.95042 4.33398 4.83333Z" fill="#111111"/>
<path d="M12.0007 12.5C12.0007 14.6171 13.7169 16.3333 15.834 16.3333C17.9511 16.3333 19.6673 14.6171 19.6673 12.5C19.6673 10.3829 17.9511 8.66667 15.834 8.66667C13.7169 8.66667 12.0007 10.3829 12.0007 12.5Z" fill="#111111"/>
</svg>
