<svg width="24" height="24" viewBox="0 0 24 24" fill="none" xmlns="http://www.w3.org/2000/svg">
<path opacity="0.28" d="M4.76892 6.1158C4.12679 6.43686 3.80573 6.59739 3.57116 6.83689C3.36373 7.04868 3.20597 7.30394 3.10931 7.58419C3 7.9011 3 8.26005 3 8.97797V14.8756C3 16.5425 3 17.3759 3.34218 17.883C3.66292 18.3582 4.17221 18.673 4.74074 18.7473C5.34729 18.8266 6.09273 18.4539 7.58359 17.7085C8.09391 17.4533 8.34908 17.3257 8.61626 17.2735C8.86969 17.2239 9.13031 17.2239 9.38374 17.2735C9.65092 17.3257 9.90609 17.4533 10.4164 17.7085L13.5689 19.2847C14.0936 19.5471 14.356 19.6783 14.6312 19.7299C14.8749 19.7756 15.1251 19.7756 15.3688 19.7299C15.644 19.6783 15.9064 19.5471 16.4311 19.2847L19.2311 17.8847C19.8732 17.5637 20.1943 17.4031 20.4288 17.1636C20.6363 16.9518 20.794 16.6966 20.8907 16.4163C21 16.0994 21 15.7405 21 15.0226V9.12487C21 7.45803 21 6.62461 20.6578 6.11756C20.3371 5.64229 19.8278 5.32753 19.2593 5.2532C18.6527 5.17391 17.9073 5.54662 16.4164 6.29206C15.9061 6.54722 15.6509 6.6748 15.3837 6.72703C15.1303 6.77658 14.8697 6.77658 14.6163 6.72703C14.3491 6.6748 14.0939 6.54722 13.5836 6.29206L10.4311 4.7158C9.90635 4.45344 9.64399 4.32226 9.3688 4.27062C9.12506 4.2249 8.87494 4.2249 8.6312 4.27062C8.35601 4.32226 8.09365 4.45344 7.56892 4.7158L4.76892 6.1158Z" fill="#111111"/>
<path d="M9 4.23582V17.2358M15 6.7637V19.7637M10.4311 4.71531L13.5836 6.29157C14.0939 6.54673 14.3491 6.67431 14.6163 6.72654C14.8697 6.77609 15.1303 6.77609 15.3837 6.72654C15.6509 6.67431 15.9061 6.54673 16.4164 6.29157C17.9073 5.54614 18.6527 5.17342 19.2593 5.25271C19.8278 5.32704 20.3371 5.6418 20.6578 6.11707C21 6.62413 21 7.45755 21 9.12438V15.0221C21 15.74 21 16.0989 20.8907 16.4158C20.794 16.6961 20.6363 16.9514 20.4288 17.1631C20.1943 17.4026 19.8732 17.5632 19.2311 17.8842L16.4311 19.2842C15.9064 19.5466 15.644 19.6778 15.3688 19.7294C15.1251 19.7751 14.8749 19.7751 14.6312 19.7294C14.356 19.6778 14.0936 19.5466 13.5689 19.2842L10.4164 17.708C9.90609 17.4528 9.65092 17.3252 9.38374 17.273C9.13031 17.2235 8.86969 17.2235 8.61626 17.273C8.34908 17.3252 8.09391 17.4528 7.58359 17.708C6.09273 18.4534 5.34729 18.8261 4.74074 18.7468C4.17221 18.6725 3.66292 18.3577 3.34218 17.8825C3 17.3754 3 16.542 3 14.8752V8.97748C3 8.25957 3 7.90061 3.10931 7.5837C3.20597 7.30345 3.36373 7.04819 3.57116 6.8364C3.80573 6.59691 4.12679 6.43638 4.76892 6.11531L7.56892 4.71531C8.09365 4.45295 8.35601 4.32177 8.6312 4.27014C8.87494 4.22441 9.12506 4.22441 9.3688 4.27014C9.64399 4.32177 9.90635 4.45295 10.4311 4.71531Z" stroke="#111111" stroke-width="2" stroke-linecap="round" stroke-linejoin="round"/>
</svg>
