<svg width="24" height="24" viewBox="0 0 24 24" fill="none" xmlns="http://www.w3.org/2000/svg">
<g opacity="0.28">
<path d="M9 17.2363V4.23633C8.87654 4.23633 8.75307 4.24776 8.6312 4.27062C8.35601 4.32226 8.09364 4.45344 7.56892 4.7158L4.76892 6.1158C4.1268 6.43686 3.80573 6.5974 3.57116 6.83689C3.36373 7.04868 3.20597 7.30394 3.10931 7.58419C3 7.9011 3 8.26005 3 8.97797V14.8756C3 16.5425 3 17.3759 3.34218 17.883C3.66292 18.3582 4.17221 18.673 4.74074 18.7473C5.34729 18.8266 6.09273 18.4539 7.58359 17.7085C8.09388 17.4533 8.34908 17.3257 8.61626 17.2735C8.74297 17.2487 8.87149 17.2363 9 17.2363Z" stroke="#111111" stroke-width="2" stroke-linecap="round" stroke-linejoin="round"/>
<path d="M15 19.7642V6.76421C15.1285 6.76421 15.257 6.75183 15.3837 6.72705C15.6509 6.67482 15.9061 6.54724 16.4164 6.29208C17.9073 5.54665 18.6527 5.17393 19.2593 5.25322C19.8278 5.32755 20.3371 5.64231 20.6578 6.11758C21 6.62463 21 7.45806 21 9.1249V15.0226C21 15.7405 21 16.0994 20.8907 16.4164C20.794 16.6966 20.6363 16.9519 20.4288 17.1637C20.1943 17.4031 19.8732 17.5637 19.2311 17.8847L16.4311 19.2847C15.9064 19.5471 15.644 19.6783 15.3688 19.7299C15.2469 19.7528 15.1235 19.7642 15 19.7642Z" stroke="#111111" stroke-width="2" stroke-linecap="round" stroke-linejoin="round"/>
</g>
<path d="M9 17.2358V4.23584C9.12346 4.23584 9.24693 4.24727 9.3688 4.27014C9.64399 4.32177 9.90636 4.45295 10.4311 4.71531L13.5836 6.29157C14.0939 6.54673 14.3491 6.67431 14.6163 6.72654C14.743 6.75132 14.8715 6.7637 15 6.7637V19.7637C14.8765 19.7637 14.7531 19.7523 14.6312 19.7294C14.356 19.6778 14.0936 19.5466 13.569 19.2843L13.5689 19.2842L10.4164 17.708C9.9061 17.4528 9.65092 17.3252 9.38374 17.273C9.25703 17.2482 9.12851 17.2358 9 17.2358Z" stroke="#111111" stroke-width="2" stroke-linecap="round" stroke-linejoin="round"/>
</svg>
