<svg width="24" height="24" viewBox="0 0 24 24" fill="none" xmlns="http://www.w3.org/2000/svg">
<g opacity="0.28">
<path d="M7.84023 3.47787C7.96623 3.42501 8.1 3.52056 8.1 3.6572V18.4913C8.1 18.5386 8.07327 18.5817 8.03102 18.6029L7.98936 18.6237L7.9885 18.6241C7.27893 18.9789 6.68689 19.275 6.19684 19.4677C5.69859 19.6637 5.16842 19.8117 4.61133 19.7388C3.75853 19.6274 2.99459 19.1552 2.51349 18.4423C2.19921 17.9766 2.09445 17.4362 2.04693 16.9029C2.00018 16.3782 2.0002 15.7159 2.00021 14.9222L2.00022 14.8756V8.97791L2.00011 8.85354C1.99932 8.25999 1.99863 7.73801 2.16418 7.25805C2.30918 6.83768 2.54581 6.4548 2.85696 6.13711C3.21221 5.7744 3.67939 5.54158 4.21063 5.27684L4.32192 5.22132L7.12192 3.82132L7.21185 3.77627L7.212 3.7762C7.43091 3.66644 7.63671 3.56326 7.84023 3.47787Z" fill="#111111"/>
<path d="M15.9 5.5098C15.9 5.46227 15.9269 5.41883 15.9694 5.39757L16.011 5.37676L16.0119 5.37633C16.7215 5.02151 17.3135 4.72549 17.8036 4.53271C18.3018 4.33671 18.832 4.18875 19.3891 4.26158C20.2419 4.37307 21.0058 4.84521 21.4869 5.55811C21.8012 6.02382 21.906 6.56419 21.9535 7.0975C22.0002 7.62222 22.0002 8.28453 22.0002 9.07826V9.12481V15.0225L22.0003 15.1469C22.0011 15.7404 22.0018 16.2624 21.8363 16.7424C21.6913 17.1627 21.4546 17.5456 21.1435 17.8633C20.7884 18.2258 20.3215 18.4585 19.7906 18.7232L19.7898 18.7236L19.6785 18.7791L16.8785 20.1791L16.7886 20.2242L16.7861 20.2254C16.568 20.3348 16.3627 20.4376 16.1597 20.5227C16.0338 20.5756 15.9 20.48 15.9 20.3434V5.5098Z" fill="#111111"/>
</g>
<path fill-rule="evenodd" clip-rule="evenodd" d="M9.90039 18.4906C9.90039 18.5382 9.92728 18.5816 9.9698 18.6029L13.1223 20.1791L13.2122 20.2241C13.4312 20.3339 13.6371 20.4372 13.8406 20.5226C13.9666 20.5754 14.1004 20.4799 14.1004 20.3432V5.50911C14.1004 5.46186 14.0737 5.4187 14.0314 5.39757L10.8789 3.82132L10.789 3.77627C10.5698 3.6664 10.3639 3.56313 10.1601 3.47768C10.0341 3.42483 9.90039 3.52039 9.90039 3.65701V18.4906Z" fill="#111111"/>
</svg>
