<svg width="24" height="24" viewBox="0 0 24 24" fill="none" xmlns="http://www.w3.org/2000/svg">
<path opacity="0.28" d="M13.2602 1.42724C12.3823 1.11019 11.4211 1.11019 10.5431 1.42724L5.15548 3.37276C3.62323 3.92607 2.57963 5.35335 2.51702 6.98124L2.38976 10.2898C2.21775 14.7622 4.54899 18.9587 8.43708 21.1756L9.95776 22.0426C11.1588 22.7274 12.6284 22.7434 13.8442 22.0849L15.3328 21.2786C19.4972 19.0229 21.9453 14.5288 21.5821 9.80672L21.3551 6.85622C21.2344 5.28747 20.2053 3.93518 18.7255 3.40079L13.2602 1.42724Z" fill="#111111"/>
<path d="M9.13281 12.0192L11.1395 14.0238C12.1236 12.303 13.4984 10.8499 15.1328 9.73389" stroke="#111111" stroke-width="2" stroke-linecap="round" stroke-linejoin="round"/>
</svg>
