<svg width="24" height="24" viewBox="0 0 24 24" fill="none" xmlns="http://www.w3.org/2000/svg">
<path fill-rule="evenodd" clip-rule="evenodd" d="M10.5431 1.42724C11.4211 1.11019 12.3823 1.11019 13.2602 1.42724L18.7255 3.40079C20.2053 3.93518 21.2344 5.28747 21.3551 6.85622L21.5821 9.80672C21.9453 14.5288 19.4972 19.0229 15.3328 21.2786L13.8442 22.0849C12.6284 22.7434 11.1588 22.7274 9.95776 22.0426L8.43708 21.1756C4.54899 18.9587 2.21775 14.7622 2.38976 10.2898L2.51702 6.98124C2.57963 5.35335 3.62323 3.92607 5.15548 3.37276L10.5431 1.42724ZM15.7962 10.5594C16.2523 10.248 16.3696 9.62575 16.0582 9.16966C15.7467 8.71357 15.1245 8.59631 14.6684 8.90775C13.2429 9.88115 11.9939 11.0934 10.9984 12.5076L9.83905 11.3495C9.44832 10.9592 8.81516 10.9595 8.42484 11.3502C8.03452 11.741 8.03486 12.3741 8.42559 12.7644L10.4658 14.8024C10.6862 15.0226 10.9966 15.1275 11.3053 15.0861C11.6141 15.0447 11.8859 14.8618 12.0406 14.5914C12.9618 12.9805 14.2527 11.6135 15.7962 10.5594Z" fill="#111111"/>
</svg>
