<svg width="24" height="24" viewBox="0 0 24 24" fill="none" xmlns="http://www.w3.org/2000/svg">
<path opacity="0.28" d="M5 17.65V19M5 19V20.35M5 19H6.35M5 19H3.65M5.7 3C5.94808 4.50612 6.8515 5.44494 8.4 5.7C6.8515 5.95506 5.94808 6.89388 5.7 8.4C5.45192 6.89388 4.5485 5.95506 3 5.7C4.50612 5.45192 5.44494 4.5485 5.7 3Z" stroke="#111111" stroke-width="2" stroke-linecap="round" stroke-linejoin="round"/>
<path d="M12.9008 3C13.5409 8.03653 15.5313 11.1418 21.0008 12C15.8109 12.8143 13.5709 15.7277 12.9008 21C12.2307 15.7277 9.99062 12.8143 4.80078 12C9.99062 11.1857 12.2307 8.2723 12.9008 3Z" stroke="#111111" stroke-width="2" stroke-linecap="round" stroke-linejoin="round"/>
</svg>
