<svg width="24" height="24" viewBox="0 0 24 24" fill="none" xmlns="http://www.w3.org/2000/svg">
<g opacity="0.28">
<path d="M6.6867 2.83747C6.60714 2.35443 6.18956 2 5.7 2C5.21044 2 4.79286 2.35443 4.7133 2.83748C4.6133 3.44455 4.39371 3.8516 4.1155 4.1271C3.83631 4.40358 3.42903 4.61586 2.83748 4.7133C2.35443 4.79286 2 5.21044 2 5.7C2 6.18956 2.35443 6.60714 2.83747 6.6867C3.44455 6.7867 3.8516 7.00629 4.1271 7.2845C4.40358 7.56369 4.61586 7.97097 4.7133 8.56252C4.79286 9.04557 5.21044 9.4 5.7 9.4C6.18956 9.4 6.60714 9.04557 6.6867 8.56253C6.78414 7.97097 6.99642 7.56369 7.2729 7.2845C7.5484 7.00629 7.95545 6.7867 8.56253 6.6867C9.04557 6.60714 9.4 6.18956 9.4 5.7C9.4 5.21044 9.04557 4.79286 8.56252 4.7133C7.95545 4.6133 7.5484 4.39371 7.2729 4.1155C6.99642 3.83631 6.78414 3.42902 6.6867 2.83747Z" fill="#111111"/>
<path d="M6 17.65C6 17.0977 5.55228 16.65 5 16.65C4.44772 16.65 4 17.0977 4 17.65V18H3.65C3.09772 18 2.65 18.4477 2.65 19C2.65 19.5523 3.09772 20 3.65 20H4V20.35C4 20.9023 4.44772 21.35 5 21.35C5.55228 21.35 6 20.9023 6 20.35V20H6.35C6.90228 20 7.35 19.5523 7.35 19C7.35 18.4477 6.90228 18 6.35 18H6V17.65Z" fill="#111111"/>
</g>
<path d="M13.8928 2.87392C13.8293 2.3744 13.4043 2 12.9008 2C12.3972 2 11.9722 2.3744 11.9088 2.87392C11.5867 5.40808 10.9029 7.2346 9.79047 8.51626C8.69305 9.78066 7.07699 10.6306 4.64577 11.0121C4.15928 11.0884 3.80078 11.5076 3.80078 12C3.80078 12.4924 4.15928 12.9116 4.64577 12.9879C7.07699 13.3694 8.69305 14.2193 9.79047 15.4837C10.9029 16.7654 11.5867 18.5919 11.9088 21.1261C11.9722 21.6256 12.3972 22 12.9008 22C13.4043 22 13.8293 21.6256 13.8928 21.1261C14.2149 18.5919 14.8987 16.7654 16.0111 15.4837C17.1085 14.2193 18.7246 13.3694 21.1558 12.9879C21.6423 12.9116 22.0008 12.4924 22.0008 12C22.0008 11.5076 21.6423 11.0884 21.1558 11.0121C18.5924 10.6099 16.9746 9.7062 15.9079 8.42658C14.8217 7.12345 14.2019 5.30628 13.8928 2.87392Z" fill="#111111"/>
</svg>
