<svg width="24" height="24" viewBox="0 0 24 24" fill="none" xmlns="http://www.w3.org/2000/svg">
<path opacity="0.28" d="M2.13126 6.01488C1.42786 3.62384 3.66855 1.38349 6.06156 2.15175C10.5959 3.60745 14.9234 5.64907 18.9358 8.22541C19.0477 8.29723 19.1794 8.37717 19.3231 8.46438C19.7725 8.73719 20.3392 9.08116 20.7822 9.47017C21.4302 10.0392 22.0007 10.8436 22.0007 12.0003C22.0007 13.1569 21.4302 13.9613 20.7822 14.5304C20.3392 14.9194 19.7725 15.2633 19.3231 15.5361C19.1794 15.6234 19.0477 15.7033 18.9358 15.7751C14.9234 18.3515 10.5959 20.3931 6.06156 21.8488C3.66855 22.617 1.42786 20.3767 2.13126 17.9857L3.38671 13.718C3.5119 13.2925 3.90247 13.0002 4.34606 13.0002H9.83565C10.3879 13.0002 10.8357 12.5525 10.8357 12.0002C10.8357 11.448 10.3879 11.0002 9.83565 11.0002H4.34605C3.90246 11.0002 3.51189 10.708 3.3867 10.2825L2.13126 6.01488Z" fill="#111111"/>
<path d="M13 17.9747C14.8525 17.0663 16.6539 16.051 18.3948 14.9332C19.526 14.2069 21 13.5581 21 11.9998C21 10.4415 19.526 9.79274 18.3948 9.06644C16.6539 7.9486 14.8525 6.93331 13 6.0249" stroke="#111111" stroke-width="2" stroke-linecap="round" stroke-linejoin="round"/>
</svg>
